<svg width="29" height="50" viewBox="0 0 29 50" fill="none" xmlns="http://www.w3.org/2000/svg">
<path d="M27.083 43.4162H1.51359C0.515197 43.4162 0 43.9184 0 44.9168V50H14.2983H28.8673V44.9168C28.8673 43.9184 28.0854 43.4162 27.083 43.4162ZM20.3368 13.5355H8.26387L6.92658 16.5748H21.67L20.3368 13.5355ZM27.2935 42.908C27.4138 42.4038 27.4839 42.4038 27.4839 42.088C27.4839 40.5363 20.5574 36.9456 18.5927 32.1542C16.4275 26.8554 16.7883 20.6275 17.109 17.081H11.4846C11.8164 20.6275 12.1702 26.7973 10.003 32.0981C8.04731 36.8896 1.11263 40.5092 1.11263 42.0609C1.11263 42.3757 1.18282 42.4038 1.30812 42.908H27.2935ZM9.59 12.5241C8.15556 11.0024 7.25236 9.32339 7.25236 7.21433C7.25236 3.27488 10.3899 0.122292 14.2983 0C18.2117 0.122292 21.3493 3.29796 21.3493 7.23841C21.3493 9.34747 20.447 11.0024 19.0136 12.5241H9.59Z" fill="#100F0D"/>
</svg>
