<svg width="32" height="50" viewBox="0 0 32 50" fill="none" xmlns="http://www.w3.org/2000/svg">
<path d="M2.65354 31.8128C0.172064 37.7411 4.44093 41.9527 4.44093 41.9527H27.1653C27.1653 30.8618 20.5828 33.4825 21.7191 31.2099C21.842 30.9703 26.029 25.2293 26.6841 18.3858C26.9196 15.9576 26.0597 13.0267 24.4013 10.5412C22.5996 7.84061 20.1938 6.15865 17.6448 5.80138C14.2799 5.32842 10.3765 6.50263 7.46198 7.70242L1.94824 16.2033L2.01272 16.5688L5.86593 20.3329C5.86593 20.3329 11.1554 16.0723 13.3267 15.5993C15.5041 15.1294 18.0031 15.3843 18.0031 19.5447C18.0031 23.7061 5.49331 25.0359 2.65354 31.8128Z" fill="#100F0D"/>
<path d="M17.7676 4.91689C20.5725 5.31102 23.1932 7.13321 25.1383 10.0498C26.9195 12.7022 27.8204 15.8522 27.5747 18.479C27.0628 23.8453 24.6161 28.1551 23.3672 30.0439C24.1759 30.3817 24.739 31.8589 24.739 31.8589C24.739 31.8589 31.7719 26.1312 31.7719 17.2935C31.7719 7.49049 25.6808 5.72205e-06 17.7266 5.72205e-06C11.355 5.72205e-06 6.58044 3.62905 6.58044 3.62905L7.40041 6.74522C10.3794 5.5485 14.2931 4.43063 17.7676 4.91689Z" fill="#100F0D"/>
<path d="M29.141 43.2036H1.91436C0.853794 43.2036 0 43.6141 0 44.6777V50H15.5256H30.9426V44.6777C30.9426 43.6141 30.2056 43.2036 29.141 43.2036Z" fill="#100F0D"/>
</svg>
