<svg width="38" height="50" viewBox="0 0 38 50" fill="none" xmlns="http://www.w3.org/2000/svg">
<path d="M32.1288 43.3335H5.42847C4.38633 43.3335 3.61432 43.723 3.61432 44.7662V50H18.7786H33.964V44.7662C33.964 43.723 33.1719 43.3335 32.1288 43.3335Z" fill="#100F0D"/>
<path d="M7.65027 42.4539H30.4571V37.8927H7.65027V42.4539Z" fill="#100F0D"/>
<path d="M4.75585 28.3298C4.27895 27.7244 3.8091 27.0788 3.37839 26.384C2.94366 25.6903 2.55007 24.9473 2.24987 24.1431C2.10028 23.7395 1.97981 23.3188 1.90651 22.8781C1.8282 22.4283 1.84531 21.9785 1.86739 21.5729C1.9186 20.7426 2.05511 19.9283 2.28703 19.1683C2.40049 18.7878 2.53909 18.4213 2.69471 18.0719C2.85133 17.7205 3.02603 17.3892 3.22181 17.08C3.60634 16.4585 4.0621 15.9284 4.54201 15.5128C4.77995 15.3009 5.03394 15.1242 5.2749 14.9696C5.52691 14.824 5.76992 14.6915 6.00486 14.5971C6.47674 14.3913 6.91248 14.2969 7.27192 14.2477C7.63034 14.1955 7.91644 14.2046 8.10619 14.2086C8.29494 14.2216 8.40141 14.2296 8.40141 14.2296C8.40141 14.2296 8.29494 14.2417 8.10619 14.2678C8.01483 14.2799 7.89941 14.307 7.76587 14.33C7.69861 14.3431 7.63035 14.3632 7.55605 14.3833C7.47573 14.4003 7.39944 14.4194 7.31711 14.4485C6.98178 14.5479 6.59122 14.7086 6.1836 14.9485C5.77096 15.1875 5.35224 15.5218 4.95566 15.9445C4.56109 16.3682 4.19867 16.8792 3.89647 17.4675C3.59025 18.0529 3.35331 18.7115 3.17661 19.4133C3.00894 20.1151 2.90448 20.858 2.88139 21.6191C2.87738 21.7144 2.87737 21.8098 2.87737 21.9032V22.0488L2.87443 22.1201L2.87737 22.1803L2.88443 22.3269L2.89649 22.4484C2.90251 22.5287 2.92256 22.6211 2.93561 22.7094C2.99485 23.0638 3.09733 23.4233 3.23387 23.7777C3.49792 24.4905 3.86128 25.1832 4.25385 25.8519C4.64741 26.5176 5.07313 27.1591 5.50786 27.7685C6.37331 28.9864 7.24878 30.0868 8.00981 31.0215C8.77586 31.9572 9.43044 32.7253 9.89329 33.2654C10.3561 33.8026 10.6192 34.1138 10.6192 34.1138C10.6192 34.1138 10.2919 33.8708 9.74475 33.416C9.46965 33.1881 9.13829 32.91 8.77183 32.5757C8.40336 32.2454 7.99079 31.8649 7.56007 31.4372C6.68559 30.5817 5.70563 29.5416 4.75585 28.3298ZM28.0004 33.4401C28.4633 32.9 29.1178 32.1339 29.8768 31.1982C30.6419 30.2625 31.5234 29.1631 32.3849 27.9432C32.8186 27.3348 33.2403 26.6923 33.6399 26.0256C34.0284 25.361 34.3949 24.6662 34.659 23.9524C34.7935 23.6 34.8948 23.2385 34.9581 22.8861C34.9701 22.7978 34.9862 22.7044 34.9972 22.6251L35.0104 22.5036L35.0163 22.355L35.0194 22.2958V22.2245L35.0163 22.0799C35.0163 21.9845 35.0164 21.8902 35.0104 21.7958C34.9863 21.0337 34.8838 20.2898 34.7171 19.589C34.5414 18.8852 34.2994 18.2286 33.9932 17.6423C33.694 17.0559 33.3286 16.5399 32.9321 16.1202C32.5425 15.6975 32.1218 15.3652 31.7102 15.1242C31.2966 14.8833 30.9099 14.7226 30.5756 14.6242C30.4923 14.5971 30.414 14.573 30.3357 14.558C30.2634 14.5389 30.1931 14.5188 30.1269 14.5048C29.9923 14.4817 29.8769 14.4536 29.7825 14.4445C29.5948 14.4184 29.4963 14.4053 29.4963 14.4053C29.4963 14.4053 29.5948 14.3973 29.7856 14.3833C29.9753 14.3802 30.2634 14.3702 30.6198 14.4224C30.9752 14.4726 31.416 14.568 31.8889 14.7738C32.1228 14.8672 32.3658 14.9987 32.6148 15.1463C32.8598 15.3009 33.1107 15.4776 33.3487 15.6895C33.8306 16.1031 34.2855 16.6342 34.672 17.2537C34.8648 17.5659 35.0404 17.8962 35.1961 18.2466C35.3517 18.597 35.4932 18.9645 35.6067 19.345C35.8366 20.103 35.9752 20.9193 36.0244 21.7486C36.0485 22.1542 36.0645 22.604 35.9862 23.0548C35.9139 23.4945 35.7934 23.9152 35.6458 24.3178C35.3426 25.123 34.948 25.866 34.5163 26.5577C34.0816 27.2515 33.6147 27.9001 33.1398 28.5045C32.183 29.7163 31.2062 30.7554 30.3357 31.6118C29.9 32.0416 29.4873 32.4221 29.1219 32.7534C28.7514 33.0867 28.42 33.3648 28.149 33.5927C27.6008 34.0475 27.2735 34.2865 27.2735 34.2865C27.2735 34.2865 27.5376 33.9803 28.0004 33.4401ZM10.6031 36.8417H27.1279C27.1279 36.8417 37.7572 27.5828 37.7572 22.3972C37.7572 17.2105 35.6017 11.8612 30.0466 11.8612C27.0376 11.8612 24.0276 13.8863 21.8971 15.7477C22.2284 14.0088 22.4453 12.5791 22.4453 12.0068C22.4453 10.4034 21.3328 9.04703 19.9323 8.59825V5.08828H23.6179V2.9829H19.9323V7.62939e-06H17.8259V2.9829H14.1422V5.08828H17.8259V8.59825C16.4224 9.04703 15.3109 10.3653 15.3109 11.9697C15.3109 12.5339 15.5208 14.0359 15.8471 15.6152C13.7055 13.8602 10.7105 11.8231 7.73469 11.8231C2.17858 11.8231 0 17.1935 0 22.3791C0 27.5637 10.6031 36.8417 10.6031 36.8417Z" fill="#100F0D"/>
</svg>
