<svg width="32" height="50" viewBox="0 0 32 50" fill="none" xmlns="http://www.w3.org/2000/svg">
<path d="M8.82816 22.4274H13.334V17.9235H18.0173V22.4274H22.3479V26.9322H18.0173V31.437H13.334V26.9322H8.82816V22.4274ZM7.52455 37.3858H3.78391V42.0711H27.2106V37.3858H23.3978C27.5943 35.7645 30.3881 32.6076 30.3881 28.768C30.3881 24.6901 24.9045 14.5655 20.4007 8.61679C19.2745 10.1174 17.4789 11.0951 15.4596 11.0951C13.4423 11.0951 11.6447 10.1215 10.5164 8.62092C6.01465 14.5707 0.535217 24.6901 0.535217 28.768C0.535217 32.6056 3.32497 35.7645 7.52455 37.3858Z" fill="#100F0D"/>
<path d="M29.1485 43.153H1.72023C0.650737 43.153 0 43.5511 0 44.6227V50H15.4349H31.174V44.6227C31.174 43.5511 30.219 43.153 29.1485 43.153Z" fill="#100F0D"/>
<path d="M15.4596 9.83478C17.1923 9.83478 18.7104 8.9365 19.5891 7.58237C20.0862 6.81403 20.378 5.89923 20.378 4.91843C20.378 2.205 18.172 2.28882e-05 15.4596 2.28882e-05C12.7483 2.28882e-05 10.5422 2.205 10.5422 4.91843C10.5422 5.89923 10.8352 6.814 11.3323 7.58337C12.2099 8.93648 13.7291 9.83478 15.4596 9.83478Z" fill="#100F0D"/>
<path d="M27.2106 37.3858H3.78394V42.0711H27.2106V37.3858Z" fill="#100F0D"/>
</svg>
