<svg width="41" height="50" viewBox="0 0 41 50" fill="none" xmlns="http://www.w3.org/2000/svg">
<path d="M6.50681 42.8927H34.9727C36.0837 42.8927 36.8115 43.307 36.8115 44.4212V50H20.7408H4.45697V44.4212C4.45697 43.307 5.39467 42.8927 6.50681 42.8927Z" fill="#100F0D"/>
<path d="M12.8157 26.6934L10.3805 12.0366C10.8729 11.8246 11.3171 11.5196 11.6907 11.13L17.9375 19.57L19.7732 6.93404C19.9669 6.96294 20.1617 6.97791 20.3587 6.97791C20.5492 6.97791 20.7408 6.96293 20.9271 6.93724L22.7275 19.57L28.5461 11.6684C29.0417 12.0045 29.6015 12.226 30.1988 12.3181L27.816 26.6934L34.6655 20.5858C35.1022 20.9208 35.6053 21.1584 36.1448 21.2912L30.8131 36.176L20.3523 36.1567L9.84638 36.176L4.44092 21.1124C4.89583 20.9294 5.31757 20.6628 5.68044 20.3246L12.8157 26.6934Z" fill="#100F0D"/>
<path d="M32.5065 37.0955V41.9572H8.19373V37.0955H32.5065Z" fill="#100F0D"/>
<path d="M35.524 19.8194C35.1772 19.5967 34.8786 19.3024 34.6431 18.9416C34.338 18.4707 34.1753 17.9216 34.1753 17.3564C34.1753 15.7422 35.4897 14.4278 37.1017 14.4278C38.718 14.4278 40.0325 15.7422 40.0325 17.3564C40.0325 17.9216 39.8698 18.4707 39.5605 18.9416C39.0167 19.783 38.1015 20.285 37.1017 20.285C36.8994 20.285 36.6982 20.2614 36.5023 20.2208C36.1513 20.1469 35.8227 20.011 35.524 19.8194Z" fill="#100F0D"/>
<path d="M2.92747 14.4278C4.5384 14.4278 5.85389 15.7422 5.85389 17.3564C5.85389 17.9216 5.69442 18.4707 5.38508 18.9416C5.23094 19.1814 5.04573 19.3923 4.83807 19.5721C4.61222 19.769 4.35754 19.9275 4.08566 20.0441C3.72601 20.1993 3.33315 20.285 2.92747 20.285C1.93201 20.285 1.01472 19.783 0.468818 18.9416C0.163757 18.4707 0 17.9216 0 17.3564C0 15.7422 1.31547 14.4278 2.92747 14.4278Z" fill="#100F0D"/>
<path d="M30.8164 11.2455C30.6719 11.2455 30.5263 11.2327 30.3829 11.2102C29.9622 11.1481 29.5629 10.9929 29.2108 10.7639C28.8779 10.5444 28.5868 10.2522 28.3588 9.90222C28.0537 9.43017 27.891 8.88106 27.891 8.31589C27.891 6.70282 29.2033 5.38946 30.8164 5.38946C32.4305 5.38946 33.745 6.70282 33.745 8.31589C33.745 8.88106 33.5812 9.43017 33.2762 9.90222C32.7324 10.7435 31.8118 11.2455 30.8164 11.2455Z" fill="#100F0D"/>
<path d="M11.0109 10.2105C10.7765 10.4866 10.4982 10.7114 10.19 10.8816C9.76501 11.1171 9.28441 11.2455 8.78026 11.2455C7.78587 11.2455 6.86643 10.7435 6.32161 9.90222C6.01333 9.43017 5.84955 8.88106 5.84955 8.31589C5.84955 6.70282 7.16504 5.38946 8.78026 5.38946C10.3923 5.38946 11.7078 6.70282 11.7078 8.31589C11.7078 8.88106 11.5473 9.43017 11.239 9.90222C11.1684 10.0103 11.0934 10.1142 11.0109 10.2105Z" fill="#100F0D"/>
<path d="M20.7666 5.82825C20.6307 5.84537 20.4947 5.85608 20.3587 5.85608C20.2174 5.85608 20.074 5.84324 19.9306 5.82183C19.1064 5.70302 18.3668 5.23097 17.9023 4.51488C17.5951 4.03856 17.4323 3.49266 17.4323 2.92857C17.4323 1.31228 18.7467 -1.00136e-05 20.3587 -1.00136e-05C21.9761 -1.00136e-05 23.2863 1.31228 23.2863 2.92857C23.2863 3.49266 23.1268 4.03856 22.8175 4.51488C22.3487 5.23846 21.5983 5.71158 20.7666 5.82825Z" fill="#100F0D"/>
</svg>
