<svg width="31" height="50" viewBox="0 0 31 50" fill="none" xmlns="http://www.w3.org/2000/svg">
<path d="M2.71019 42.0297H27.8734C27.9355 42.0297 27.9777 41.8927 27.9871 41.7977C28.3051 38.8076 22.4773 37.3545 20.4779 30.0052C19.2418 25.4567 19.0322 19.1521 19.0565 14.3622H11.524C11.5472 19.1521 11.3397 25.4777 10.1057 30.0266C8.10101 37.3862 2.27846 38.7549 2.59539 41.7347C2.60486 41.8293 2.64701 42.0297 2.71019 42.0297ZM28.7021 43.6192H1.84257C0.795992 43.6192 0 43.7245 0 44.7774V50H15.2713H30.3225V44.7774C30.3225 43.7245 29.7486 43.6192 28.7021 43.6192ZM9.57506 10.6405V13.3011H20.7474V10.6405H19.1396H11.4419H9.57506ZM22.8732 9.57486H7.9789V0.64743C7.9789 0.162041 8.14315 0 8.63064 0H9.33503C9.82147 0 10.1068 0.162041 10.1068 0.64743V3.19323H12.7685V0.64743C12.7685 0.162041 13.0886 0 13.5708 0H16.9243C17.4097 0 18.0867 0.162041 18.0867 0.64743V3.19323H20.2136V0.64743C20.2136 0.162041 20.8527 0 21.336 0H22.0404C22.5268 0 22.8732 0.162041 22.8732 0.64743V3.12174V8.05879V9.57486Z" fill="#100F0D"/>
</svg>
