<svg width="39" height="51" viewBox="0 0 39 51" fill="none" xmlns="http://www.w3.org/2000/svg">
<path d="M33.1289 44.3334H6.42853C5.38639 44.3334 4.61438 44.723 4.61438 45.7661V51H19.7786H34.9641V45.7661C34.9641 44.723 34.172 44.3334 33.1289 44.3334Z" fill="#7F8D9A"/>
<path d="M8.65021 43.4538H31.457V38.8927H8.65021V43.4538Z" fill="#7F8D9A"/>
<path d="M5.75585 29.3298C5.27895 28.7244 4.8091 28.0788 4.37839 27.384C3.94366 26.6902 3.55007 25.9473 3.24987 25.1431C3.10028 24.7395 2.97981 24.3188 2.90651 23.8781C2.8282 23.4283 2.84531 22.9785 2.86739 22.5729C2.9186 21.7426 3.05511 20.9283 3.28703 20.1683C3.40049 19.7878 3.53909 19.4213 3.69471 19.0719C3.85133 18.7205 4.02603 18.3892 4.22181 18.08C4.60634 17.4585 5.0621 16.9284 5.54201 16.5127C5.77995 16.3009 6.03394 16.1242 6.2749 15.9696C6.52691 15.824 6.76992 15.6915 7.00486 15.5971C7.47674 15.3913 7.91248 15.2969 8.27192 15.2477C8.63034 15.1955 8.91644 15.2045 9.10619 15.2085C9.29494 15.2216 9.40141 15.2296 9.40141 15.2296C9.40141 15.2296 9.29494 15.2417 9.10619 15.2678C9.01483 15.2798 8.89941 15.3069 8.76587 15.33C8.69861 15.3431 8.63035 15.3632 8.55605 15.3832C8.47573 15.4003 8.39944 15.4194 8.31711 15.4485C7.98178 15.5479 7.59122 15.7085 7.1836 15.9485C6.77096 16.1874 6.35224 16.5218 5.95566 16.9445C5.56109 17.3681 5.19867 17.8792 4.89647 18.4675C4.59025 19.0528 4.35331 19.7115 4.17661 20.4133C4.00894 21.1151 3.90448 21.858 3.88139 22.619C3.87738 22.7144 3.87737 22.8098 3.87737 22.9032V23.0488L3.87443 23.12L3.87737 23.1803L3.88443 23.3269L3.89649 23.4483C3.90251 23.5287 3.92256 23.621 3.93561 23.7094C3.99485 24.0638 4.09733 24.4232 4.23387 24.7776C4.49792 25.4905 4.86128 26.1832 5.25385 26.8519C5.64741 27.5175 6.07313 28.1591 6.50786 28.7685C7.37331 29.9864 8.24878 31.0867 9.00981 32.0215C9.77586 32.9572 10.4304 33.7252 10.8933 34.2654C11.3561 34.8025 11.6192 35.1138 11.6192 35.1138C11.6192 35.1138 11.2919 34.8708 10.7447 34.416C10.4697 34.1881 10.1383 33.91 9.77183 33.5757C9.40336 33.2453 8.99079 32.8648 8.56007 32.4371C7.68559 31.5817 6.70563 30.5416 5.75585 29.3298ZM29.0004 34.4401C29.4633 33.8999 30.1178 33.1339 30.8768 32.1982C31.6419 31.2624 32.5234 30.1631 33.3849 28.9432C33.8186 28.3348 34.2403 27.6922 34.6399 27.0256C35.0284 26.3609 35.3949 25.6662 35.659 24.9523C35.7935 24.5999 35.8948 24.2385 35.9581 23.8861C35.9701 23.7977 35.9862 23.7044 35.9972 23.625L36.0104 23.5036L36.0163 23.355L36.0194 23.2957V23.2245L36.0163 23.0799C36.0163 22.9845 36.0164 22.8901 36.0104 22.7957C35.9863 22.0337 35.8838 21.2898 35.7171 20.589C35.5414 19.8852 35.2994 19.2286 34.9932 18.6422C34.694 18.0559 34.3286 17.5398 33.9321 17.1201C33.5425 16.6975 33.1218 16.3652 32.7102 16.1242C32.2966 15.8832 31.9099 15.7226 31.5756 15.6242C31.4923 15.5971 31.414 15.573 31.3357 15.5579C31.2634 15.5388 31.1931 15.5188 31.1269 15.5047C30.9923 15.4816 30.8769 15.4535 30.7825 15.4445C30.5948 15.4184 30.4963 15.4053 30.4963 15.4053C30.4963 15.4053 30.5948 15.3973 30.7856 15.3832C30.9753 15.3802 31.2634 15.3702 31.6198 15.4224C31.9752 15.4726 32.416 15.568 32.8889 15.7738C33.1228 15.8672 33.3658 15.9987 33.6148 16.1463C33.8598 16.3009 34.1107 16.4776 34.3487 16.6894C34.8306 17.1031 35.2855 17.6342 35.672 18.2537C35.8648 18.5659 36.0404 18.8962 36.1961 19.2466C36.3517 19.597 36.4932 19.9645 36.6067 20.345C36.8366 21.103 36.9752 21.9193 37.0244 22.7486C37.0485 23.1542 37.0645 23.604 36.9862 24.0548C36.9139 24.4945 36.7934 24.9152 36.6458 25.3178C36.3426 26.123 35.948 26.8659 35.5163 27.5577C35.0816 28.2515 34.6147 28.9 34.1398 29.5045C33.183 30.7163 32.2062 31.7554 31.3357 32.6118C30.9 33.0415 30.4873 33.422 30.1219 33.7533C29.7514 34.0867 29.42 34.3648 29.149 34.5927C28.6008 35.0475 28.2735 35.2865 28.2735 35.2865C28.2735 35.2865 28.5376 34.9802 29.0004 34.4401V34.4401ZM11.6031 37.8416H28.1279C28.1279 37.8416 38.7572 28.5828 38.7572 23.3971C38.7572 18.2105 36.6017 12.8612 31.0466 12.8612C28.0376 12.8612 25.0276 14.8863 22.8971 16.7477C23.2284 15.0087 23.4453 13.5791 23.4453 13.0068C23.4453 11.4034 22.3328 10.047 20.9323 9.59822V6.08825H24.6179V3.98287H20.9323V0.999978H18.8259V3.98287H15.1422V6.08825H18.8259V9.59822C17.4224 10.047 16.3109 11.3653 16.3109 12.9696C16.3109 13.5339 16.5208 15.0359 16.8471 16.6151C14.7055 14.8602 11.7105 12.823 8.73469 12.823C3.17858 12.823 1 18.1934 1 23.3791C1 28.5637 11.6031 37.8416 11.6031 37.8416" fill="#7F8D9A"/>
<path d="M32.1289 43.3334H5.42853C4.38639 43.3334 3.61438 43.723 3.61438 44.7661V50H18.7786H33.9641V44.7661C33.9641 43.723 33.172 43.3334 32.1289 43.3334Z" fill="white"/>
<path d="M7.65021 42.4538H30.457V37.8927H7.65021V42.4538Z" fill="white"/>
<path d="M4.75585 28.3298C4.27895 27.7243 3.8091 27.0788 3.37839 26.384C2.94366 25.6902 2.55007 24.9473 2.24987 24.1431C2.10028 23.7395 1.97981 23.3188 1.90651 22.8781C1.8282 22.4283 1.84531 21.9785 1.86739 21.5729C1.9186 20.7426 2.05511 19.9283 2.28703 19.1683C2.40049 18.7878 2.53909 18.4213 2.69471 18.0719C2.85133 17.7205 3.02603 17.3892 3.22181 17.08C3.60634 16.4585 4.0621 15.9284 4.54201 15.5127C4.77995 15.3009 5.03394 15.1242 5.2749 14.9696C5.52691 14.824 5.76992 14.6915 6.00486 14.5971C6.47674 14.3913 6.91248 14.2969 7.27192 14.2477C7.63034 14.1955 7.91644 14.2045 8.10619 14.2085C8.29494 14.2216 8.40141 14.2296 8.40141 14.2296C8.40141 14.2296 8.29494 14.2417 8.10619 14.2678C8.01483 14.2798 7.89941 14.3069 7.76587 14.33C7.69861 14.3431 7.63035 14.3632 7.55605 14.3832C7.47573 14.4003 7.39944 14.4194 7.31711 14.4485C6.98178 14.5479 6.59122 14.7085 6.1836 14.9485C5.77096 15.1874 5.35224 15.5218 4.95566 15.9445C4.56109 16.3681 4.19867 16.8792 3.89647 17.4675C3.59025 18.0528 3.35331 18.7115 3.17661 19.4133C3.00894 20.1151 2.90448 20.858 2.88139 21.619C2.87738 21.7144 2.87737 21.8098 2.87737 21.9032V22.0488L2.87443 22.12L2.87737 22.1803L2.88443 22.3269L2.89649 22.4483C2.90251 22.5287 2.92256 22.621 2.93561 22.7094C2.99485 23.0638 3.09733 23.4232 3.23387 23.7776C3.49792 24.4905 3.86128 25.1832 4.25385 25.8519C4.64741 26.5175 5.07313 27.1591 5.50786 27.7685C6.37331 28.9864 7.24878 30.0867 8.00981 31.0215C8.77586 31.9572 9.43044 32.7252 9.89329 33.2654C10.3561 33.8025 10.6192 34.1138 10.6192 34.1138C10.6192 34.1138 10.2919 33.8708 9.74475 33.416C9.46965 33.1881 9.13829 32.91 8.77183 32.5757C8.40336 32.2453 7.99079 31.8648 7.56007 31.4371C6.68559 30.5817 5.70563 29.5416 4.75585 28.3298ZM28.0004 33.4401C28.4633 32.8999 29.1178 32.1339 29.8768 31.1982C30.6419 30.2624 31.5234 29.1631 32.3849 27.9432C32.8186 27.3348 33.2403 26.6922 33.6399 26.0256C34.0284 25.3609 34.3949 24.6662 34.659 23.9523C34.7935 23.5999 34.8948 23.2385 34.9581 22.8861C34.9701 22.7977 34.9862 22.7044 34.9972 22.625L35.0104 22.5036L35.0163 22.355L35.0194 22.2957V22.2245L35.0163 22.0799C35.0163 21.9845 35.0164 21.8901 35.0104 21.7957C34.9863 21.0337 34.8838 20.2898 34.7171 19.589C34.5414 18.8852 34.2994 18.2286 33.9932 17.6422C33.694 17.0559 33.3286 16.5398 32.9321 16.1201C32.5425 15.6975 32.1218 15.3652 31.7102 15.1242C31.2966 14.8832 30.9099 14.7226 30.5756 14.6242C30.4923 14.5971 30.414 14.573 30.3357 14.5579C30.2634 14.5388 30.1931 14.5188 30.1269 14.5047C29.9923 14.4816 29.8769 14.4535 29.7825 14.4445C29.5948 14.4184 29.4963 14.4053 29.4963 14.4053C29.4963 14.4053 29.5948 14.3973 29.7856 14.3832C29.9753 14.3802 30.2634 14.3702 30.6198 14.4224C30.9752 14.4726 31.416 14.568 31.8889 14.7738C32.1228 14.8672 32.3658 14.9987 32.6148 15.1463C32.8598 15.3009 33.1107 15.4776 33.3487 15.6894C33.8306 16.1031 34.2855 16.6342 34.672 17.2537C34.8648 17.5659 35.0404 17.8962 35.1961 18.2466C35.3517 18.597 35.4932 18.9645 35.6067 19.345C35.8366 20.103 35.9752 20.9193 36.0244 21.7486C36.0485 22.1542 36.0645 22.604 35.9862 23.0548C35.9139 23.4945 35.7934 23.9152 35.6458 24.3178C35.3426 25.123 34.948 25.8659 34.5163 26.5577C34.0816 27.2515 33.6147 27.9 33.1398 28.5045C32.183 29.7163 31.2062 30.7554 30.3357 31.6118C29.9 32.0415 29.4873 32.422 29.1219 32.7533C28.7514 33.0867 28.42 33.3648 28.149 33.5927C27.6008 34.0475 27.2735 34.2865 27.2735 34.2865C27.2735 34.2865 27.5376 33.9802 28.0004 33.4401ZM10.6031 36.8416H27.1279C27.1279 36.8416 37.7572 27.5828 37.7572 22.3971C37.7572 17.2105 35.6017 11.8612 30.0466 11.8612C27.0376 11.8612 24.0276 13.8863 21.8971 15.7477C22.2284 14.0087 22.4453 12.5791 22.4453 12.0068C22.4453 10.4034 21.3328 9.047 19.9323 8.59822V5.08825H23.6179V2.98287H19.9323V-2.28882e-05H17.8259V2.98287H14.1422V5.08825H17.8259V8.59822C16.4224 9.047 15.3109 10.3653 15.3109 11.9696C15.3109 12.5339 15.5208 14.0359 15.8471 15.6151C13.7055 13.8602 10.7105 11.823 7.73469 11.823C2.17858 11.823 0 17.1934 0 22.3791C0 27.5637 10.6031 36.8416 10.6031 36.8416Z" fill="white"/>
</svg>
