<svg width="30" height="51" viewBox="0 0 30 51" fill="none" xmlns="http://www.w3.org/2000/svg">
<path d="M28.083 44.4162H2.51359C1.5152 44.4162 1 44.9184 1 45.9168V51H15.2983H29.8673V45.9168C29.8673 44.9184 29.0854 44.4162 28.083 44.4162ZM21.3368 14.5355H9.26387L7.92658 17.5748H22.67L21.3368 14.5355ZM28.2935 43.908C28.4138 43.4038 28.4839 43.4038 28.4839 43.088C28.4839 41.5363 21.5574 37.9456 19.5927 33.1542C17.4275 27.8554 17.7883 21.6275 18.109 18.081H12.4846C12.8164 21.6275 13.1702 27.7973 11.003 33.0981C9.04731 37.8896 2.11263 41.5092 2.11263 43.0609C2.11263 43.3757 2.18282 43.4038 2.30812 43.908H28.2935ZM10.59 13.5241C9.15556 12.0024 8.25236 10.3234 8.25236 8.21433C8.25236 4.27488 11.3899 1.12229 15.2983 0.999999C19.2117 1.12229 22.3493 4.29796 22.3493 8.23841C22.3493 10.3475 21.447 12.0024 20.0136 13.5241H10.59" fill="#7F8D9A"/>
<path d="M27.083 43.4162H1.51359C0.515197 43.4162 0 43.9184 0 44.9168V50H14.2983H28.8673V44.9168C28.8673 43.9184 28.0854 43.4162 27.083 43.4162ZM20.3368 13.5355H8.26387L6.92658 16.5748H21.67L20.3368 13.5355ZM27.2935 42.908C27.4138 42.4038 27.4839 42.4038 27.4839 42.088C27.4839 40.5363 20.5574 36.9456 18.5927 32.1542C16.4275 26.8554 16.7883 20.6275 17.109 17.081H11.4846C11.8164 20.6275 12.1702 26.7973 10.003 32.0981C8.04731 36.8896 1.11263 40.5092 1.11263 42.0609C1.11263 42.3757 1.18282 42.4038 1.30812 42.908H27.2935ZM9.59 12.5241C8.15556 11.0024 7.25236 9.32339 7.25236 7.21433C7.25236 3.27488 10.3899 0.122292 14.2983 0C18.2117 0.122292 21.3493 3.29796 21.3493 7.23841C21.3493 9.34747 20.447 11.0024 19.0136 12.5241H9.59Z" fill="white"/>
</svg>
