<svg width="33" height="51" viewBox="0 0 33 51" fill="none" xmlns="http://www.w3.org/2000/svg">
<path d="M9.82816 23.4274H14.334V18.9235H19.0173V23.4274H23.3479V27.9322H19.0173V32.437H14.334V27.9322H9.82816V23.4274ZM8.52455 38.3858H4.78391V43.0711H28.2106V38.3858H24.3978C28.5943 36.7645 31.3881 33.6076 31.3881 29.768C31.3881 25.6901 25.9045 15.5655 21.4007 9.61679C20.2745 11.1174 18.4789 12.0951 16.4596 12.0951C14.4423 12.0951 12.6447 11.1215 11.5164 9.62092C7.01465 15.5707 1.53522 25.6901 1.53522 29.768C1.53522 33.6056 4.32497 36.7645 8.52455 38.3858" fill="#7F8D9A"/>
<path d="M30.1485 44.153H2.72023C1.65074 44.153 1 44.5511 1 45.6227V51H16.4349H32.174V45.6227C32.174 44.5511 31.219 44.153 30.1485 44.153" fill="#7F8D9A"/>
<path d="M16.4596 10.8348C18.1923 10.8348 19.7104 9.9365 20.5891 8.58237C21.0862 7.81403 21.378 6.89923 21.378 5.91843C21.378 3.205 19.172 1.00002 16.4596 1.00002C13.7483 1.00002 11.5422 3.205 11.5422 5.91843C11.5422 6.89923 11.8352 7.814 12.3323 8.58337C13.2099 9.93648 14.7291 10.8348 16.4596 10.8348Z" fill="#7F8D9A"/>
<path d="M28.2106 38.3858H4.78394V43.0711H28.2106V38.3858Z" fill="#7F8D9A"/>
<path d="M8.82816 22.4274H13.334V17.9235H18.0173V22.4274H22.3479V26.9322H18.0173V31.437H13.334V26.9322H8.82816V22.4274ZM7.52455 37.3858H3.78391V42.0711H27.2106V37.3858H23.3978C27.5943 35.7645 30.3881 32.6076 30.3881 28.768C30.3881 24.6901 24.9045 14.5655 20.4007 8.61679C19.2745 10.1174 17.4789 11.0951 15.4596 11.0951C13.4423 11.0951 11.6447 10.1215 10.5164 8.62092C6.01465 14.5707 0.535217 24.6901 0.535217 28.768C0.535217 32.6056 3.32497 35.7645 7.52455 37.3858Z" fill="white"/>
<path d="M29.1485 43.153H1.72023C0.650737 43.153 0 43.5511 0 44.6227V50H15.4349H31.174V44.6227C31.174 43.5511 30.219 43.153 29.1485 43.153Z" fill="white"/>
<path d="M15.4596 9.83478C17.1923 9.83478 18.7104 8.9365 19.5891 7.58237C20.0862 6.81403 20.378 5.89923 20.378 4.91843C20.378 2.205 18.172 2.28882e-05 15.4596 2.28882e-05C12.7483 2.28882e-05 10.5422 2.205 10.5422 4.91843C10.5422 5.89923 10.8352 6.814 11.3323 7.58337C12.2099 8.93648 13.7291 9.83478 15.4596 9.83478Z" fill="white"/>
<path d="M27.2106 37.3858H3.78394V42.0711H27.2106V37.3858Z" fill="white"/>
</svg>
