<svg width="32" height="51" viewBox="0 0 32 51" fill="none" xmlns="http://www.w3.org/2000/svg">
<path d="M3.71019 43.0297H28.8734C28.9355 43.0297 28.9777 42.8927 28.9871 42.7977C29.3051 39.8076 23.4773 38.3545 21.4779 31.0052C20.2418 26.4567 20.0322 20.1521 20.0565 15.3622H12.524C12.5472 20.1521 12.3397 26.4777 11.1057 31.0266C9.10101 38.3862 3.27846 39.7549 3.59539 42.7347C3.60486 42.8293 3.64701 43.0297 3.71019 43.0297ZM29.7021 44.6192H2.84257C1.79599 44.6192 1 44.7245 1 45.7774V51H16.2713H31.3225V45.7774C31.3225 44.7245 30.7486 44.6192 29.7021 44.6192V44.6192ZM10.5751 11.6405V14.3011H21.7474V11.6405H20.1396H12.4419H10.5751ZM23.8732 10.5749H8.9789V1.64743C8.9789 1.16204 9.14315 0.999999 9.63064 0.999999H10.335C10.8215 0.999999 11.1068 1.16204 11.1068 1.64743V4.19323H13.7685V1.64743C13.7685 1.16204 14.0886 0.999999 14.5708 0.999999H17.9243C18.4097 0.999999 19.0867 1.16204 19.0867 1.64743V4.19323H21.2136V1.64743C21.2136 1.16204 21.8527 0.999999 22.336 0.999999H23.0404C23.5268 0.999999 23.8732 1.16204 23.8732 1.64743V4.12174V9.05879V10.5749" fill="#7F8D9A"/>
<path d="M2.71019 42.0297H27.8734C27.9355 42.0297 27.9777 41.8927 27.9871 41.7977C28.3051 38.8076 22.4773 37.3545 20.4779 30.0052C19.2418 25.4567 19.0322 19.1521 19.0565 14.3622H11.524C11.5472 19.1521 11.3397 25.4777 10.1057 30.0266C8.10101 37.3862 2.27846 38.7549 2.59539 41.7347C2.60486 41.8293 2.64701 42.0297 2.71019 42.0297ZM28.7021 43.6192H1.84257C0.795992 43.6192 0 43.7245 0 44.7774V50H15.2713H30.3225V44.7774C30.3225 43.7245 29.7486 43.6192 28.7021 43.6192ZM9.57506 10.6405V13.3011H20.7474V10.6405H19.1396H11.4419H9.57506ZM22.8732 9.57486H7.9789V0.64743C7.9789 0.162041 8.14315 0 8.63064 0H9.33503C9.82147 0 10.1068 0.162041 10.1068 0.64743V3.19323H12.7685V0.64743C12.7685 0.162041 13.0886 0 13.5708 0H16.9243C17.4097 0 18.0867 0.162041 18.0867 0.64743V3.19323H20.2136V0.64743C20.2136 0.162041 20.8527 0 21.336 0H22.0404C22.5268 0 22.8732 0.162041 22.8732 0.64743V3.12174V8.05879V9.57486Z" fill="white"/>
</svg>
