<svg width="49" height="58" viewBox="0 0 49 58" fill="none" xmlns="http://www.w3.org/2000/svg">
<g filter="url(#filter0_d)">
<path d="M10.5068 46.8927H38.9727C40.0837 46.8927 40.8115 47.307 40.8115 48.4212V54H24.7408H8.45697V48.4212C8.45697 47.307 9.39467 46.8927 10.5068 46.8927Z" fill="white"/>
<path d="M16.8157 30.6934L14.3805 16.0366C14.8729 15.8246 15.3171 15.5196 15.6907 15.13L21.9375 23.57L23.7732 10.934C23.9669 10.9629 24.1617 10.9779 24.3587 10.9779C24.5492 10.9779 24.7408 10.9629 24.9271 10.9372L26.7275 23.57L32.5461 15.6684C33.0417 16.0045 33.6015 16.226 34.1988 16.3181L31.816 30.6934L38.6655 24.5858C39.1022 24.9208 39.6053 25.1584 40.1448 25.2912L34.8131 40.176L24.3523 40.1567L13.8464 40.176L8.44092 25.1124C8.89583 24.9294 9.31757 24.6628 9.68044 24.3246L16.8157 30.6934Z" fill="white"/>
<path d="M36.5065 41.0955V45.9572H12.1937V41.0955H36.5065Z" fill="white"/>
<path d="M39.524 23.8194C39.1772 23.5967 38.8786 23.3024 38.6431 22.9416C38.338 22.4707 38.1753 21.9216 38.1753 21.3564C38.1753 19.7422 39.4897 18.4278 41.1017 18.4278C42.718 18.4278 44.0325 19.7422 44.0325 21.3564C44.0325 21.9216 43.8698 22.4707 43.5605 22.9416C43.0167 23.783 42.1015 24.285 41.1017 24.285C40.8994 24.285 40.6982 24.2614 40.5023 24.2208C40.1513 24.1469 39.8227 24.011 39.524 23.8194Z" fill="white"/>
<path d="M6.92747 18.4278C8.5384 18.4278 9.85389 19.7422 9.85389 21.3564C9.85389 21.9216 9.69442 22.4707 9.38508 22.9416C9.23094 23.1814 9.04573 23.3923 8.83807 23.5721C8.61222 23.769 8.35754 23.9275 8.08566 24.0441C7.72601 24.1993 7.33315 24.285 6.92747 24.285C5.93201 24.285 5.01472 23.783 4.46882 22.9416C4.16376 22.4707 4 21.9216 4 21.3564C4 19.7422 5.31547 18.4278 6.92747 18.4278Z" fill="white"/>
<path d="M34.8164 15.2455C34.6719 15.2455 34.5263 15.2327 34.3829 15.2102C33.9622 15.1481 33.5629 14.9929 33.2108 14.7639C32.8779 14.5444 32.5868 14.2522 32.3588 13.9022C32.0537 13.4302 31.891 12.8811 31.891 12.3159C31.891 10.7028 33.2033 9.38946 34.8164 9.38946C36.4305 9.38946 37.745 10.7028 37.745 12.3159C37.745 12.8811 37.5812 13.4302 37.2762 13.9022C36.7324 14.7435 35.8118 15.2455 34.8164 15.2455Z" fill="white"/>
<path d="M15.0109 14.2105C14.7765 14.4866 14.4982 14.7114 14.19 14.8816C13.765 15.1171 13.2844 15.2455 12.7803 15.2455C11.7859 15.2455 10.8664 14.7435 10.3216 13.9022C10.0133 13.4302 9.84955 12.8811 9.84955 12.3159C9.84955 10.7028 11.165 9.38946 12.7803 9.38946C14.3923 9.38946 15.7078 10.7028 15.7078 12.3159C15.7078 12.8811 15.5473 13.4302 15.239 13.9022C15.1684 14.0103 15.0934 14.1142 15.0109 14.2105Z" fill="white"/>
<path d="M24.7666 9.82825C24.6307 9.84537 24.4947 9.85608 24.3587 9.85608C24.2174 9.85608 24.074 9.84324 23.9306 9.82183C23.1064 9.70302 22.3668 9.23097 21.9023 8.51488C21.5951 8.03856 21.4323 7.49266 21.4323 6.92857C21.4323 5.31228 22.7467 3.99999 24.3587 3.99999C25.9761 3.99999 27.2863 5.31228 27.2863 6.92857C27.2863 7.49266 27.1268 8.03856 26.8175 8.51488C26.3487 9.23846 25.5983 9.71158 24.7666 9.82825Z" fill="white"/>
</g>
<defs>
<filter id="filter0_d" x="0" y="0" width="48.0325" height="58" filterUnits="userSpaceOnUse" color-interpolation-filters="sRGB">
<feFlood flood-opacity="0" result="BackgroundImageFix"/>
<feColorMatrix in="SourceAlpha" type="matrix" values="0 0 0 0 0 0 0 0 0 0 0 0 0 0 0 0 0 0 127 0"/>
<feOffset/>
<feGaussianBlur stdDeviation="2"/>
<feColorMatrix type="matrix" values="0 0 0 0 0.509804 0 0 0 0 0.603922 0 0 0 0 0.764706 0 0 0 1 0"/>
<feBlend mode="normal" in2="BackgroundImageFix" result="effect1_dropShadow"/>
<feBlend mode="normal" in="SourceGraphic" in2="effect1_dropShadow" result="shape"/>
</filter>
</defs>
</svg>
