<svg width="40" height="58" viewBox="0 0 40 58" fill="none" xmlns="http://www.w3.org/2000/svg">
<g filter="url(#filter0_d)">
<path d="M6.65348 35.8128C4.172 41.7411 8.44087 45.9527 8.44087 45.9527H31.1652C31.1652 34.8618 24.5828 37.4825 25.7191 35.2099C25.8419 34.9703 30.0289 29.2293 30.6841 22.3858C30.9195 19.9576 30.0596 17.0267 28.4012 14.5412C26.5995 11.8406 24.1938 10.1587 21.6447 9.80138C18.2798 9.32843 14.3764 10.5026 11.4619 11.7024L5.94818 20.2033L6.01266 20.5688L9.86587 24.3329C9.86587 24.3329 15.1554 20.0723 17.3267 19.5993C19.5041 19.1294 22.003 19.3843 22.003 23.5447C22.003 27.7061 9.49325 29.0359 6.65348 35.8128Z" fill="white"/>
<path d="M21.7676 8.91689C24.5725 9.31102 27.1932 11.1332 29.1383 14.0498C30.9195 16.7022 31.8204 19.8522 31.5747 22.479C31.0628 27.8453 28.6161 32.1551 27.3672 34.0439C28.1759 34.3817 28.739 35.8589 28.739 35.8589C28.739 35.8589 35.7719 30.1312 35.7719 21.2935C35.7719 11.4905 29.6808 4.00001 21.7266 4.00001C15.355 4.00001 10.5804 7.62905 10.5804 7.62905L11.4004 10.7452C14.3794 9.5485 18.2931 8.43063 21.7676 8.91689Z" fill="white"/>
<path d="M33.141 47.2036H5.91436C4.85379 47.2036 4 47.6141 4 48.6777V54H19.5256H34.9426V48.6777C34.9426 47.6141 34.2056 47.2036 33.141 47.2036Z" fill="white"/>
</g>
<defs>
<filter id="filter0_d" x="0" y="0" width="39.7719" height="58" filterUnits="userSpaceOnUse" color-interpolation-filters="sRGB">
<feFlood flood-opacity="0" result="BackgroundImageFix"/>
<feColorMatrix in="SourceAlpha" type="matrix" values="0 0 0 0 0 0 0 0 0 0 0 0 0 0 0 0 0 0 127 0"/>
<feOffset/>
<feGaussianBlur stdDeviation="2"/>
<feColorMatrix type="matrix" values="0 0 0 0 0.509804 0 0 0 0 0.603922 0 0 0 0 0.764706 0 0 0 1 0"/>
<feBlend mode="normal" in2="BackgroundImageFix" result="effect1_dropShadow"/>
<feBlend mode="normal" in="SourceGraphic" in2="effect1_dropShadow" result="shape"/>
</filter>
</defs>
</svg>
