<svg width="40" height="58" viewBox="0 0 40 58" fill="none" xmlns="http://www.w3.org/2000/svg">
<g filter="url(#filter0_d)">
<path d="M12.8282 26.4274H17.334V21.9235H22.0173V26.4274H26.3479V30.9322H22.0173V35.437H17.334V30.9322H12.8282V26.4274ZM11.5245 41.3858H7.78391V46.0711H31.2106V41.3858H27.3978C31.5943 39.7645 34.3881 36.6076 34.3881 32.768C34.3881 28.6901 28.9045 18.5655 24.4007 12.6168C23.2745 14.1174 21.4789 15.0951 19.4596 15.0951C17.4423 15.0951 15.6447 14.1215 14.5164 12.6209C10.0147 18.5707 4.53522 28.6901 4.53522 32.768C4.53522 36.6056 7.32497 39.7645 11.5245 41.3858Z" fill="white"/>
<path d="M33.1485 47.153H5.72023C4.65074 47.153 4 47.5511 4 48.6227V54H19.4349H35.174V48.6227C35.174 47.5511 34.219 47.153 33.1485 47.153Z" fill="white"/>
<path d="M19.4596 13.8348C21.1923 13.8348 22.7104 12.9365 23.5891 11.5824C24.0862 10.814 24.378 9.89923 24.378 8.91843C24.378 6.205 22.172 4.00002 19.4596 4.00002C16.7483 4.00002 14.5422 6.205 14.5422 8.91843C14.5422 9.89923 14.8352 10.814 15.3323 11.5834C16.2099 12.9365 17.7291 13.8348 19.4596 13.8348Z" fill="white"/>
<path d="M31.2106 41.3858H7.78394V46.0711H31.2106V41.3858Z" fill="white"/>
</g>
<defs>
<filter id="filter0_d" x="0" y="0" width="39.174" height="58" filterUnits="userSpaceOnUse" color-interpolation-filters="sRGB">
<feFlood flood-opacity="0" result="BackgroundImageFix"/>
<feColorMatrix in="SourceAlpha" type="matrix" values="0 0 0 0 0 0 0 0 0 0 0 0 0 0 0 0 0 0 127 0"/>
<feOffset/>
<feGaussianBlur stdDeviation="2"/>
<feColorMatrix type="matrix" values="0 0 0 0 0.509804 0 0 0 0 0.603922 0 0 0 0 0.764706 0 0 0 1 0"/>
<feBlend mode="normal" in2="BackgroundImageFix" result="effect1_dropShadow"/>
<feBlend mode="normal" in="SourceGraphic" in2="effect1_dropShadow" result="shape"/>
</filter>
</defs>
</svg>
