<svg width="46" height="58" viewBox="0 0 46 58" fill="none" xmlns="http://www.w3.org/2000/svg">
<g filter="url(#filter0_d)">
<path d="M36.1289 47.3334H9.42853C8.38639 47.3334 7.61438 47.723 7.61438 48.7661V54H22.7786H37.9641V48.7661C37.9641 47.723 37.172 47.3334 36.1289 47.3334Z" fill="white"/>
<path d="M11.6502 46.4538H34.457V41.8927H11.6502V46.4538Z" fill="white"/>
<path d="M8.75585 32.3298C8.27895 31.7243 7.8091 31.0788 7.37839 30.384C6.94366 29.6902 6.55007 28.9473 6.24987 28.1431C6.10028 27.7395 5.97981 27.3188 5.90651 26.8781C5.8282 26.4283 5.84531 25.9785 5.86739 25.5729C5.9186 24.7426 6.05511 23.9283 6.28703 23.1683C6.40049 22.7878 6.53909 22.4213 6.69471 22.0719C6.85133 21.7205 7.02603 21.3892 7.22181 21.08C7.60634 20.4585 8.0621 19.9284 8.54201 19.5127C8.77995 19.3009 9.03394 19.1242 9.2749 18.9696C9.52691 18.824 9.76992 18.6915 10.0049 18.5971C10.4767 18.3913 10.9125 18.2969 11.2719 18.2477C11.6303 18.1955 11.9164 18.2045 12.1062 18.2085C12.2949 18.2216 12.4014 18.2296 12.4014 18.2296C12.4014 18.2296 12.2949 18.2417 12.1062 18.2678C12.0148 18.2798 11.8994 18.3069 11.7659 18.33C11.6986 18.3431 11.6304 18.3632 11.5561 18.3832C11.4757 18.4003 11.3994 18.4194 11.3171 18.4485C10.9818 18.5479 10.5912 18.7085 10.1836 18.9485C9.77096 19.1874 9.35224 19.5218 8.95566 19.9445C8.56109 20.3681 8.19867 20.8792 7.89647 21.4675C7.59025 22.0528 7.35331 22.7115 7.17661 23.4133C7.00894 24.1151 6.90448 24.858 6.88139 25.619C6.87738 25.7144 6.87737 25.8098 6.87737 25.9032V26.0488L6.87443 26.12L6.87737 26.1803L6.88443 26.3269L6.89649 26.4483C6.90251 26.5287 6.92256 26.621 6.93561 26.7094C6.99485 27.0638 7.09733 27.4232 7.23387 27.7776C7.49792 28.4905 7.86128 29.1832 8.25385 29.8519C8.64741 30.5175 9.07313 31.1591 9.50786 31.7685C10.3733 32.9864 11.2488 34.0867 12.0098 35.0215C12.7759 35.9572 13.4304 36.7252 13.8933 37.2654C14.3561 37.8025 14.6192 38.1138 14.6192 38.1138C14.6192 38.1138 14.2919 37.8708 13.7447 37.416C13.4697 37.1881 13.1383 36.91 12.7718 36.5757C12.4034 36.2453 11.9908 35.8648 11.5601 35.4371C10.6856 34.5817 9.70563 33.5416 8.75585 32.3298ZM32.0004 37.4401C32.4633 36.8999 33.1178 36.1339 33.8768 35.1982C34.6419 34.2624 35.5234 33.1631 36.3849 31.9432C36.8186 31.3348 37.2403 30.6922 37.6399 30.0256C38.0284 29.3609 38.3949 28.6662 38.659 27.9523C38.7935 27.5999 38.8948 27.2385 38.9581 26.8861C38.9701 26.7977 38.9862 26.7044 38.9972 26.625L39.0104 26.5036L39.0163 26.355L39.0194 26.2957V26.2245L39.0163 26.0799C39.0163 25.9845 39.0164 25.8901 39.0104 25.7957C38.9863 25.0337 38.8838 24.2898 38.7171 23.589C38.5414 22.8852 38.2994 22.2286 37.9932 21.6422C37.694 21.0559 37.3286 20.5398 36.9321 20.1201C36.5425 19.6975 36.1218 19.3652 35.7102 19.1242C35.2966 18.8832 34.9099 18.7226 34.5756 18.6242C34.4923 18.5971 34.414 18.573 34.3357 18.5579C34.2634 18.5388 34.1931 18.5188 34.1269 18.5047C33.9923 18.4816 33.8769 18.4535 33.7825 18.4445C33.5948 18.4184 33.4963 18.4053 33.4963 18.4053C33.4963 18.4053 33.5948 18.3973 33.7856 18.3832C33.9753 18.3802 34.2634 18.3702 34.6198 18.4224C34.9752 18.4726 35.416 18.568 35.8889 18.7738C36.1228 18.8672 36.3658 18.9987 36.6148 19.1463C36.8598 19.3009 37.1107 19.4776 37.3487 19.6894C37.8306 20.1031 38.2855 20.6342 38.672 21.2537C38.8648 21.5659 39.0404 21.8962 39.1961 22.2466C39.3517 22.597 39.4932 22.9645 39.6067 23.345C39.8366 24.103 39.9752 24.9193 40.0244 25.7486C40.0485 26.1542 40.0645 26.604 39.9862 27.0548C39.9139 27.4945 39.7934 27.9152 39.6458 28.3178C39.3426 29.123 38.948 29.8659 38.5163 30.5577C38.0816 31.2515 37.6147 31.9 37.1398 32.5045C36.183 33.7163 35.2062 34.7554 34.3357 35.6118C33.9 36.0415 33.4873 36.422 33.1219 36.7533C32.7514 37.0867 32.42 37.3648 32.149 37.5927C31.6008 38.0475 31.2735 38.2865 31.2735 38.2865C31.2735 38.2865 31.5376 37.9802 32.0004 37.4401ZM14.6031 40.8416H31.1279C31.1279 40.8416 41.7572 31.5828 41.7572 26.3971C41.7572 21.2105 39.6017 15.8612 34.0466 15.8612C31.0376 15.8612 28.0276 17.8863 25.8971 19.7477C26.2284 18.0087 26.4453 16.5791 26.4453 16.0068C26.4453 14.4034 25.3328 13.047 23.9323 12.5982V9.08825H27.6179V6.98287H23.9323V3.99998H21.8259V6.98287H18.1422V9.08825H21.8259V12.5982C20.4224 13.047 19.3109 14.3653 19.3109 15.9696C19.3109 16.5339 19.5208 18.0359 19.8471 19.6151C17.7055 17.8602 14.7105 15.823 11.7347 15.823C6.17858 15.823 4 21.1934 4 26.3791C4 31.5637 14.6031 40.8416 14.6031 40.8416Z" fill="white"/>
</g>
<defs>
<filter id="filter0_d" x="0" y="0" width="45.7572" height="58" filterUnits="userSpaceOnUse" color-interpolation-filters="sRGB">
<feFlood flood-opacity="0" result="BackgroundImageFix"/>
<feColorMatrix in="SourceAlpha" type="matrix" values="0 0 0 0 0 0 0 0 0 0 0 0 0 0 0 0 0 0 127 0"/>
<feOffset/>
<feGaussianBlur stdDeviation="2"/>
<feColorMatrix type="matrix" values="0 0 0 0 0.509804 0 0 0 0 0.603922 0 0 0 0 0.764706 0 0 0 1 0"/>
<feBlend mode="normal" in2="BackgroundImageFix" result="effect1_dropShadow"/>
<feBlend mode="normal" in="SourceGraphic" in2="effect1_dropShadow" result="shape"/>
</filter>
</defs>
</svg>
