<svg width="33" height="51" viewBox="0 0 33 51" fill="none" xmlns="http://www.w3.org/2000/svg">
<path d="M3.65348 32.8128C1.172 38.7411 5.44087 42.9527 5.44087 42.9527H28.1652C28.1652 31.8618 21.5828 34.4825 22.7191 32.2099C22.8419 31.9703 27.0289 26.2293 27.6841 19.3858C27.9195 16.9576 27.0596 14.0267 25.4012 11.5412C23.5995 8.84062 21.1938 7.15866 18.6447 6.80138C15.2798 6.32843 11.3764 7.50263 8.46192 8.70242L2.94818 17.2033L3.01266 17.5688L6.86587 21.3329C6.86587 21.3329 12.1554 17.0723 14.3267 16.5993C16.5041 16.1294 19.003 16.3843 19.003 20.5447C19.003 24.7061 6.49325 26.0359 3.65348 32.8128" fill="#7F8D9A"/>
<path d="M18.7676 5.91689C21.5725 6.31102 24.1932 8.13321 26.1383 11.0498C27.9195 13.7022 28.8204 16.8522 28.5747 19.479C28.0628 24.8453 25.6161 29.1551 24.3672 31.0439C25.1759 31.3817 25.739 32.8589 25.739 32.8589C25.739 32.8589 32.7719 27.1312 32.7719 18.2935C32.7719 8.49049 26.6808 1 18.7266 1C12.355 1 7.58044 4.62905 7.58044 4.62905L8.40041 7.74522C11.3794 6.5485 15.2931 5.43063 18.7676 5.91689" fill="#7F8D9A"/>
<path d="M30.141 44.2036H2.91436C1.85379 44.2036 1 44.6141 1 45.6777V51H16.5256H31.9426V45.6777C31.9426 44.6141 31.2056 44.2036 30.141 44.2036Z" fill="#7F8D9A"/>
<path d="M2.65348 31.8128C0.172003 37.7411 4.44087 41.9527 4.44087 41.9527H27.1652C27.1652 30.8618 20.5828 33.4825 21.7191 31.2099C21.8419 30.9703 26.0289 25.2293 26.6841 18.3858C26.9195 15.9576 26.0596 13.0267 24.4012 10.5412C22.5995 7.84062 20.1938 6.15866 17.6447 5.80138C14.2798 5.32843 10.3764 6.50263 7.46192 7.70242L1.94818 16.2033L2.01266 16.5688L5.86587 20.3329C5.86587 20.3329 11.1554 16.0723 13.3267 15.5993C15.5041 15.1294 18.003 15.3843 18.003 19.5447C18.003 23.7061 5.49325 25.0359 2.65348 31.8128Z" fill="white"/>
<path d="M17.7676 4.91689C20.5725 5.31102 23.1932 7.13321 25.1383 10.0498C26.9195 12.7022 27.8204 15.8522 27.5747 18.479C27.0628 23.8453 24.6161 28.1551 23.3672 30.0439C24.1759 30.3817 24.739 31.8589 24.739 31.8589C24.739 31.8589 31.7719 26.1312 31.7719 17.2935C31.7719 7.49049 25.6808 5.72205e-06 17.7266 5.72205e-06C11.355 5.72205e-06 6.58044 3.62905 6.58044 3.62905L7.40041 6.74522C10.3794 5.5485 14.2931 4.43063 17.7676 4.91689Z" fill="white"/>
<path d="M29.141 43.2036H1.91436C0.853794 43.2036 0 43.6141 0 44.6777V50H15.5256H30.9426V44.6777C30.9426 43.6141 30.2056 43.2036 29.141 43.2036Z" fill="white"/>
</svg>
