<svg width="42" height="51" viewBox="0 0 42 51" fill="none" xmlns="http://www.w3.org/2000/svg">
<path d="M7.50681 43.8927H35.9727C37.0837 43.8927 37.8115 44.307 37.8115 45.4212V51H21.7408H5.45697V45.4212C5.45697 44.307 6.39467 43.8927 7.50681 43.8927" fill="#7F8D9A"/>
<path d="M13.8157 27.6934L11.3805 13.0366C11.8729 12.8246 12.3171 12.5196 12.6907 12.13L18.9375 20.57L20.7732 7.93404C20.9669 7.96294 21.1617 7.97791 21.3587 7.97791C21.5492 7.97791 21.7408 7.96293 21.9271 7.93724L23.7275 20.57L29.5461 12.6684C30.0417 13.0045 30.6015 13.226 31.1988 13.3181L28.816 27.6934L35.6655 21.5858C36.1022 21.9208 36.6053 22.1584 37.1448 22.2912L31.8131 37.176L21.3523 37.1567L10.8464 37.176L5.44092 22.1124C5.89583 21.9294 6.31757 21.6628 6.68044 21.3246L13.8157 27.6934" fill="#7F8D9A"/>
<path d="M33.5065 38.0955V42.9572H9.19373V38.0955H33.5065Z" fill="#7F8D9A"/>
<path d="M36.524 20.8194C36.1772 20.5967 35.8786 20.3024 35.6431 19.9416C35.338 19.4707 35.1753 18.9216 35.1753 18.3564C35.1753 16.7422 36.4897 15.4278 38.1017 15.4278C39.718 15.4278 41.0325 16.7422 41.0325 18.3564C41.0325 18.9216 40.8698 19.4707 40.5605 19.9416C40.0167 20.783 39.1015 21.285 38.1017 21.285C37.8994 21.285 37.6982 21.2614 37.5023 21.2208C37.1513 21.1469 36.8227 21.011 36.524 20.8194Z" fill="#7F8D9A"/>
<path d="M3.92747 15.4278C5.5384 15.4278 6.85389 16.7422 6.85389 18.3564C6.85389 18.9216 6.69442 19.4707 6.38508 19.9416C6.23094 20.1814 6.04573 20.3923 5.83807 20.5721C5.61222 20.769 5.35754 20.9275 5.08566 21.0441C4.72601 21.1993 4.33315 21.285 3.92747 21.285C2.93201 21.285 2.01472 20.783 1.46882 19.9416C1.16376 19.4707 1 18.9216 1 18.3564C1 16.7422 2.31547 15.4278 3.92747 15.4278" fill="#7F8D9A"/>
<path d="M31.8164 12.2455C31.6719 12.2455 31.5263 12.2327 31.3829 12.2102C30.9622 12.1481 30.5629 11.9929 30.2108 11.7639C29.8779 11.5444 29.5868 11.2522 29.3588 10.9022C29.0537 10.4302 28.891 9.88106 28.891 9.31589C28.891 7.70282 30.2033 6.38946 31.8164 6.38946C33.4305 6.38946 34.745 7.70282 34.745 9.31589C34.745 9.88106 34.5812 10.4302 34.2762 10.9022C33.7324 11.7435 32.8118 12.2455 31.8164 12.2455" fill="#7F8D9A"/>
<path d="M12.0109 11.2105C11.7765 11.4866 11.4982 11.7114 11.19 11.8816C10.765 12.1171 10.2844 12.2455 9.78026 12.2455C8.78587 12.2455 7.86643 11.7435 7.32161 10.9022C7.01333 10.4302 6.84955 9.88106 6.84955 9.31589C6.84955 7.70282 8.16504 6.38946 9.78026 6.38946C11.3923 6.38946 12.7078 7.70282 12.7078 9.31589C12.7078 9.88106 12.5473 10.4302 12.239 10.9022C12.1684 11.0103 12.0934 11.1142 12.0109 11.2105" fill="#7F8D9A"/>
<path d="M21.7666 6.82825C21.6307 6.84537 21.4947 6.85608 21.3587 6.85608C21.2174 6.85608 21.074 6.84324 20.9306 6.82183C20.1064 6.70302 19.3668 6.23097 18.9023 5.51488C18.5951 5.03856 18.4323 4.49266 18.4323 3.92857C18.4323 2.31228 19.7467 0.99999 21.3587 0.99999C22.9761 0.99999 24.2863 2.31228 24.2863 3.92857C24.2863 4.49266 24.1268 5.03856 23.8175 5.51488C23.3487 6.23846 22.5983 6.71158 21.7666 6.82825" fill="#7F8D9A"/>
<path d="M6.50681 42.8927H34.9727C36.0837 42.8927 36.8115 43.307 36.8115 44.4212V50H20.7408H4.45697V44.4212C4.45697 43.307 5.39467 42.8927 6.50681 42.8927Z" fill="white"/>
<path d="M12.8157 26.6934L10.3805 12.0366C10.8729 11.8246 11.3171 11.5196 11.6907 11.13L17.9375 19.57L19.7732 6.93404C19.9669 6.96294 20.1617 6.97791 20.3587 6.97791C20.5492 6.97791 20.7408 6.96293 20.9271 6.93724L22.7275 19.57L28.5461 11.6684C29.0417 12.0045 29.6015 12.226 30.1988 12.3181L27.816 26.6934L34.6655 20.5858C35.1022 20.9208 35.6053 21.1584 36.1448 21.2912L30.8131 36.176L20.3523 36.1567L9.84638 36.176L4.44092 21.1124C4.89583 20.9294 5.31757 20.6628 5.68044 20.3246L12.8157 26.6934Z" fill="white"/>
<path d="M32.5065 37.0955V41.9572H8.19373V37.0955H32.5065Z" fill="white"/>
<path d="M35.524 19.8194C35.1772 19.5967 34.8786 19.3024 34.6431 18.9416C34.338 18.4707 34.1753 17.9216 34.1753 17.3564C34.1753 15.7422 35.4897 14.4278 37.1017 14.4278C38.718 14.4278 40.0325 15.7422 40.0325 17.3564C40.0325 17.9216 39.8698 18.4707 39.5605 18.9416C39.0167 19.783 38.1015 20.285 37.1017 20.285C36.8994 20.285 36.6982 20.2614 36.5023 20.2208C36.1513 20.1469 35.8227 20.011 35.524 19.8194Z" fill="white"/>
<path d="M2.92747 14.4278C4.5384 14.4278 5.85389 15.7422 5.85389 17.3564C5.85389 17.9216 5.69442 18.4707 5.38508 18.9416C5.23094 19.1814 5.04573 19.3923 4.83807 19.5721C4.61222 19.769 4.35754 19.9275 4.08566 20.0441C3.72601 20.1993 3.33315 20.285 2.92747 20.285C1.93201 20.285 1.01472 19.783 0.468818 18.9416C0.163757 18.4707 0 17.9216 0 17.3564C0 15.7422 1.31547 14.4278 2.92747 14.4278Z" fill="white"/>
<path d="M30.8164 11.2455C30.6719 11.2455 30.5263 11.2327 30.3829 11.2102C29.9622 11.1481 29.5629 10.9929 29.2108 10.7639C28.8779 10.5444 28.5868 10.2522 28.3588 9.90222C28.0537 9.43017 27.891 8.88106 27.891 8.31589C27.891 6.70282 29.2033 5.38946 30.8164 5.38946C32.4305 5.38946 33.745 6.70282 33.745 8.31589C33.745 8.88106 33.5812 9.43017 33.2762 9.90222C32.7324 10.7435 31.8118 11.2455 30.8164 11.2455Z" fill="white"/>
<path d="M11.0109 10.2105C10.7765 10.4866 10.4982 10.7114 10.19 10.8816C9.76501 11.1171 9.28441 11.2455 8.78026 11.2455C7.78587 11.2455 6.86643 10.7435 6.32161 9.90222C6.01333 9.43017 5.84955 8.88106 5.84955 8.31589C5.84955 6.70282 7.16504 5.38946 8.78026 5.38946C10.3923 5.38946 11.7078 6.70282 11.7078 8.31589C11.7078 8.88106 11.5473 9.43017 11.239 9.90222C11.1684 10.0103 11.0934 10.1142 11.0109 10.2105Z" fill="white"/>
<path d="M20.7666 5.82825C20.6307 5.84537 20.4947 5.85608 20.3587 5.85608C20.2174 5.85608 20.074 5.84324 19.9306 5.82183C19.1064 5.70302 18.3668 5.23097 17.9023 4.51488C17.5951 4.03856 17.4323 3.49266 17.4323 2.92857C17.4323 1.31228 18.7467 -1.00136e-05 20.3587 -1.00136e-05C21.9761 -1.00136e-05 23.2863 1.31228 23.2863 2.92857C23.2863 3.49266 23.1268 4.03856 22.8175 4.51488C22.3487 5.23846 21.5983 5.71158 20.7666 5.82825Z" fill="white"/>
</svg>
