<svg xmlns="http://www.w3.org/2000/svg" width="177.17" height="177.17" shape-rendering="geometricPrecision" image-rendering="optimizeQuality" 
fill-rule="evenodd" clip-rule="evenodd" viewBox="0 0 50 50"><defs><linearGradient id="0" x1="21.13" y1="37.592" x2="77.64" y2="37.469" 
gradientUnits="userSpaceOnUse"><stop stop-color="#6680C9"/><stop offset="1" stop-color="#6680C9" stop-opacity="0"/></linearGradient></defs>
<path fill="url(#0)" d="m26.32 39.2c0 1.092.245 2.024.753 2.794.5.77 1.041 1.372 1.626 1.795.906.669 2.235.999 3.988.999.432 0 1.279-.093 2.532-.279 1.025-.161 1.854-.279 2.481-.356.627-.076 1.05-.135 1.27-.186.627-.085 1.287-.068 1.981.051.262.068.559.127.88.186.322.059.593.186.804.381l1.194-1.93c-.677-.347-1.397-.593-2.159-.72-1.253-.22-2.354-.263-3.302-.152-.279.034-.643.118-1.101.245-.457.136-1.067.263-1.846.373-1.676.271-2.557.398-2.659.398-.644 0-1.202-.076-1.685-.246-.483-.169-.906-.347-1.287-.542-.881-.398-1.77-1.338-2.684-2.811h-.787m-1.761 0h-.796c-.931 1.49-1.812 2.43-2.659 2.811-.398.195-.83.373-1.312.542-.483.169-1.033.246-1.66.246-.119 0-.999-.127-2.659-.398-.787-.11-1.422-.237-1.88-.373-.466-.127-.83-.212-1.092-.245-.948-.11-2.04-.068-3.302.152-.762.127-1.473.373-2.134.72l1.194 1.93c.195-.195.457-.322.779-.381.322-.059.618-.118.88-.186.694-.119 1.355-.136 1.981-.051.22.051.643.11 1.27.186.627.076 1.465.195 2.506.356 1.236.186 2.083.279 2.532.279 1.736 0 3.065-.33 3.988-.999.567-.423 1.101-1.025 1.6-1.795.508-.77.762-1.702.762-2.794m.889-9.347c1.6 0 3.141.127 4.614.373 1.617-.576 2.794-1.482 3.522-2.701.627-1.058.94-2.227.94-3.497 0-.762-.186-1.6-.567-2.523-.381-.914-.999-1.744-1.863-2.489-.974-.813-2.04-1.702-3.2-2.667-1.151-.965-2.303-2.1-3.446-3.387-1.16 1.287-2.311 2.422-3.471 3.387-1.16.965-2.218 1.854-3.175 2.667-.881.745-1.499 1.575-1.871 2.489-.372.923-.559 1.761-.559 2.523 0 1.27.305 2.438.914 3.497.711 1.219 1.897 2.125 3.548 2.701 1.456-.246 2.997-.373 4.614-.373m0 4.513c1.939 0 3.793.195 5.579.576l-1.185-3.057c-1.456-.229-2.921-.347-4.394-.347-1.507 0-2.98.119-4.411.347l-1.194 3.057c1.77-.381 3.641-.576 5.605-.576m0-23.537c1.126 0 1.685-.559 1.685-1.685 0-1.126-.559-1.693-1.685-1.693-1.126 0-1.685.567-1.685 1.693 0 1.126.559 1.685 1.685 1.685m0 27.01c1.126 0 2.218-.093 3.285-.279 1.067-.195 2.1-.423 3.09-.686-1.939-.508-4.064-.77-6.375-.77-2.345 0-4.47.263-6.375.77.957.263 1.973.491 3.048.686 1.075.186 2.184.279 3.327.279m-.889-14.334l-2.066-.025c-.559 0-.838-.279-.838-.847 0-.559.279-.838.838-.838h2.066v-2.134c0-.576.296-.872.889-.872.576 0 .872.296.872.872v2.134h2.134c.542 0 .813.279.813.838 0 .567-.271.847-.813.847h-2.134v2.032c0 .601-.296.898-.872.898-.593 0-.889-.296-.889-.898v-2.01"/></svg>