<svg xmlns="http://www.w3.org/2000/svg" width="177.17" height="177.17" shape-rendering="geometricPrecision" 
image-rendering="optimizeQuality" fill-rule="evenodd" clip-rule="evenodd" viewBox="0 0 50 50"><defs>
<linearGradient id="0" gradientUnits="userSpaceOnUse" x1="21.13" y1="37.35" x2="77.76" y2="37.469" gradientTransform="matrix(1 0 0 .97324 0 1.243)">
<stop stop-color="#2B90DA"/><stop offset="1" stop-color="#2B90DA" stop-opacity="0"/></linearGradient></defs>
<path d="m25 44.808h12.175c.347-1.154.525-2.291.525-3.403 0-2.513-.711-4.787-2.142-6.831-1.431-2.044-3.277-3.552-5.52-4.516-1.584-.62-1.643-.659-1.643-1.739 0-.849.559-1.475 1.668-1.879 1.532-1.047 2.303-2.431 2.303-4.153 0-1.244-.432-2.324-1.287-3.263-.864-.931-1.905-1.467-3.124-1.615-.999-.082-1.49-.626-1.49-1.64 0-.453.178-.873.542-1.261.898-.676 1.346-1.557 1.346-2.653 0-.898-.339-1.673-.999-2.316-.66-.643-1.448-.964-2.354-.964-.94 0-1.744.321-2.396.964-.652.643-.974 1.417-.974 2.316 0 1.079.44 1.961 1.338 2.653.364.354.542.775.542 1.261 0 1.014-.483 1.557-1.465 1.64-1.236.148-2.286.684-3.133 1.615-.855.939-1.279 2.02-1.279 3.263 0 1.722.77 3.106 2.303 4.153 1.109.412 1.668 1.046 1.668 1.879 0 1.079-.067 1.118-1.668 1.739-2.244.964-4.081 2.472-5.503 4.516-1.422 2.044-2.134 4.318-2.134 6.831 0 1.195.178 2.324.525 3.403h12.175" fill="url(#0)"/></svg>