<svg xmlns="http://www.w3.org/2000/svg" width="177.17" height="177.17" shape-rendering="geometricPrecision" image-rendering="optimizeQuality" 
fill-rule="evenodd" clip-rule="evenodd" viewBox="0 0 50 50"><defs>
<linearGradient id="0" x1="21.253" y1="37.22" x2="77.64" y2="37.35" gradientUnits="userSpaceOnUse"><stop stop-color="#2B90DA"/>
<stop offset="1" stop-color="#2B90DA" stop-opacity="0"/></linearGradient></defs>
<g stroke="#2B90DA" stroke-width=".076">
<path fill="url(#0)" d="m38.22 43.04c-3.02-1.253-7.417-1.88-13.166-1.88-5.876 0-10.312.643-13.327 1.93 2.896 1.143 7.315 1.71 13.25 1.71 2.845 0 5.444-.152 7.798-.466 2.362-.313 4.174-.745 5.444-1.295zm-13.267-34.03c1.109 0 1.66-.559 1.66-1.659 0-1.092-.55-1.643-1.66-1.643-1.092 0-1.634.55-1.634 1.643 0 1.101.542 1.659 1.634 1.659zm12.624 24.977c-3.192-.813-7.366-1.211-12.522-1.211-5.292 0-9.517.406-12.675 1.236l.373 2.379c3.217-.762 7.324-1.143 12.302-1.143 4.944 0 8.975.373 12.1 1.118l.423-2.379zm.618-1.49l1.617-2.853c-.796.322-1.609.474-2.43.474-2.218 0-3.988-.897-5.309-2.701-.991.821-2.1 1.236-3.327 1.236-1.583 0-2.853-.618-3.793-1.863-1.058 1.16-2.32 1.744-3.793 1.744-1.194 0-2.286-.406-3.277-1.219-1.389 1.77-3.183 2.65-5.385 2.65-.838 0-1.676-.152-2.506-.466l1.736 2.972c3.209-.923 7.62-1.389 13.225-1.389 5.706 0 10.118.474 13.242 1.414zm-11.11-5.927l-2.108-12.133-2.108 11.989c.051-.034.161-.119.347-.254.381-.745.957-1.118 1.736-1.118.847 0 1.389.372 1.634 1.118.102.102.271.237.5.398zm6.867.474v-11.489l-4.089 11.261c.313-.11.576-.262.796-.44.33-.415.779-.627 1.338-.627.66 0 1.194.296 1.592.872.042.068.102.136.169.212.068.076.136.144.195.212zm-13.936-.347l-4.064-11.142v11.337c.042-.068.119-.144.22-.245.33-.694.872-1.041 1.634-1.041.627 0 1.143.262 1.541.796.449.195.669.296.669.296zm-6.299 1.389l-5.334-9.203 1.363 8.382c.94.66 1.863.991 2.752.991.347 0 .754-.059 1.219-.169zm22.394.119c.381.119.804.178 1.27.178 1.01 0 1.947-.313 2.828-.94l1.363-8.585-5.461 9.347zm1.49 12.556l-.745-2.802c-3.243-.711-7.205-1.067-11.904-1.067-4.648 0-8.611.356-11.879 1.067l-.771 2.828c3.073-.931 7.298-1.389 12.675-1.389 5.241 0 9.449.449 12.624 1.363zm-23.06-30.514c1.084 0 1.634-.542 1.634-1.634 0-1.092-.55-1.634-1.634-1.634-1.109 0-1.668.542-1.668 1.634 0 1.092.559 1.634 1.668 1.634zm20.828 0c1.109 0 1.668-.542 1.668-1.634 0-1.092-.559-1.634-1.668-1.634-1.084 0-1.634.542-1.634 1.634 0 1.092.55 1.634 1.634 1.634zm-29.964 2.735c1.109 0 1.668-.55 1.668-1.643 0-1.109-.559-1.659-1.668-1.659-1.084 0-1.634.55-1.634 1.659 0 1.092.55 1.643 1.634 1.643zm39.14 0c1.092 0 1.642-.55 1.642-1.643 0-1.109-.55-1.659-1.642-1.659-1.101 0-1.66.55-1.66 1.659 0 1.092.559 1.643 1.66 1.643z"/></g></svg>