<svg width="11" height="16" viewBox="0 0 11 16" fill="none" xmlns="http://www.w3.org/2000/svg">
<path d="M0.0219672 14.1064L0.019482 14.0956C0.00603026 14.0383 -0.0305908 13.8823 0.0542265 13.6989C0.153727 13.4838 0.335733 13.3553 0.464109 13.268C0.610997 13.1681 0.763804 13.0954 0.870498 13.0552C1.72891 12.6691 2.24161 12.3853 2.53441 12.2019C2.68134 12.1099 2.77107 12.0443 2.82041 12.0051C2.8369 11.992 2.84685 11.9824 2.85828 11.9715L2.8587 11.9711L2.87302 11.9568C3.28477 11.5451 3.61367 10.8344 3.85418 10.0708C4.0885 9.32682 4.22513 8.57845 4.27949 8.11477V7.93228L4.2831 7.90898C4.29412 7.83777 4.26369 7.71543 4.16678 7.55571C4.07637 7.40671 3.95778 7.2741 3.88041 7.20185C3.7436 7.07712 3.51209 6.93734 3.25696 6.79671C2.9109 6.66291 2.67583 6.54918 2.52013 6.4568C2.44122 6.40999 2.37669 6.36513 2.32685 6.32191C2.30202 6.30038 2.27635 6.27539 2.25353 6.247C2.2362 6.22542 2.20598 6.18431 2.18773 6.12739C2.15914 6.04207 2.15567 5.92758 2.1782 5.80805L2.18795 5.75635L2.2149 5.71093C2.33821 5.50315 2.55126 5.44099 2.67523 5.43653C3.22785 5.40039 3.59942 5.34352 3.84559 5.28233C3.91851 5.26421 3.97792 5.2463 4.02609 5.2295C3.69427 5.03758 3.43366 4.77764 3.23799 4.52175C2.98484 4.19069 2.82641 3.84841 2.75591 3.62128L2.75163 3.60749L2.74866 3.59338C2.47985 2.3149 2.86471 1.4171 3.4918 0.834581C4.09124 0.277746 4.85328 0 5.49501 0C6.11436 0 6.90695 0.276061 7.5082 0.834581C8.13529 1.41711 8.52015 2.31489 8.25134 3.59338L8.24838 3.60749L8.24406 3.6214C8.17354 3.84854 8.01511 4.19075 7.76201 4.52175C7.56634 4.77764 7.30574 5.03758 6.97391 5.2295C7.02208 5.2463 7.08149 5.26421 7.15441 5.28233C7.40058 5.34352 7.77215 5.40039 8.32477 5.43653C8.44874 5.44099 8.66179 5.50315 8.7851 5.71093L8.81205 5.75635L8.8218 5.80805C8.84433 5.92759 8.84085 6.04207 8.81227 6.1274C8.79402 6.18431 8.7638 6.22542 8.74647 6.247C8.72365 6.27539 8.69798 6.30038 8.67315 6.32191C8.62331 6.36513 8.55878 6.40999 8.47987 6.4568C8.32417 6.54918 8.0891 6.66291 7.74304 6.79671C7.48792 6.93734 7.25642 7.07711 7.1196 7.20183C7.04223 7.27408 6.92364 7.4067 6.83322 7.55571C6.73636 7.71534 6.70592 7.83771 6.7169 7.90894L6.72051 7.9322V8.11477C6.77487 8.57845 6.9115 9.32682 7.14582 10.0708C7.38633 10.8344 7.71523 11.5451 8.12698 11.9568L8.1413 11.9711L8.14172 11.9715L8.14175 11.9715C8.15317 11.9825 8.16311 11.992 8.17959 12.0051C8.22893 12.0443 8.31866 12.1099 8.46559 12.2019C8.75839 12.3853 9.27109 12.6691 10.1295 13.0552C10.2362 13.0954 10.389 13.1681 10.5359 13.268C10.6643 13.3553 10.8463 13.4838 10.9458 13.6989C11.0306 13.8823 10.994 14.0383 10.9805 14.0956L10.978 14.1064C10.9365 14.3472 10.7739 14.8768 10.4055 15.2823C10.4054 15.3042 10.4055 15.3291 10.4058 15.3561C10.4069 15.4634 10.4111 15.6015 10.4144 15.6867L10.4264 16H0.573554L0.585581 15.6867C0.588854 15.6015 0.593126 15.4634 0.594248 15.3561C0.594532 15.3291 0.594628 15.3042 0.594525 15.2823C0.226071 14.8768 0.0634698 14.3472 0.0219672 14.1064Z" fill="white"/>
</svg>
