<?xml version="1.0" encoding="UTF-8" standalone="no"?><!DOCTYPE svg PUBLIC "-//W3C//DTD SVG 1.1//EN" "http://www.w3.org/Graphics/SVG/1.1/DTD/svg11.dtd"><svg width="100%" height="100%" viewBox="0 0 800 800" version="1.1" xmlns="http://www.w3.org/2000/svg" xmlns:xlink="http://www.w3.org/1999/xlink" xml:space="preserve" xmlns:serif="http://www.serif.com/" style="fill-rule:evenodd;clip-rule:evenodd;stroke-linejoin:round;stroke-miterlimit:2;"><clipPath id="_clip1"><rect x="0" y="0" width="800" height="800"/></clipPath><g clip-path="url(#_clip1)"><path d="M555.617,104.491l-399.093,0c-86.446,0 -156.524,70.064 -156.524,156.492l0,539.013l539.129,-0c86.446,-0 156.525,-70.063 156.525,-156.488l0,-351.23c-80.683,-0 -146.087,-65.392 -146.087,-146.056c-0,-14.501 2.112,-28.508 6.05,-41.731Z" style="fill:#5a20fe;fill-rule:nonzero;"/><path d="M97.847,595.329c0.023,0.096 0.043,0.179 0.058,0.254c0.971,5.654 4.776,18.084 13.397,27.6c0.003,0.517 0.001,1.1 -0.006,1.734c-0.026,2.52 -0.126,5.758 -0.203,7.762l-0.281,7.354l184.01,0c0.948,0.238 1.948,0.354 2.999,0.354c1.379,0 2.758,-0.116 4.137,-0.354l39.404,0l-0.282,-7.354c-0.06,-1.579 -0.135,-3.925 -0.177,-6.083l1.377,-0.475l-1.385,-0c-0.007,-0.413 -0.013,-0.817 -0.018,-1.204c-0.006,-0.634 -0.008,-1.217 -0.006,-1.734c8.622,-9.516 12.426,-21.946 13.398,-27.6c0.015,-0.075 0.035,-0.158 0.058,-0.254c0.315,-1.346 1.171,-5.004 -0.813,-9.312c-2.329,-5.05 -6.587,-8.067 -9.591,-10.113c-3.437,-2.346 -7.013,-4.054 -9.509,-4.996c-20.087,-9.062 -32.084,-15.725 -38.935,-20.029c-3.438,-2.162 -5.537,-3.7 -6.692,-4.621c-0.386,-0.308 -0.618,-0.533 -0.886,-0.787l-0.01,-0.013l-0.335,-0.333c-9.635,-9.663 -17.331,-26.35 -22.958,-44.271c-5.483,-17.462 -8.68,-35.029 -9.952,-45.916l-0,-4.284l-0.085,-0.546c-0.256,-1.67 0.456,-4.545 2.722,-8.291c2.116,-3.5 4.891,-6.613 6.701,-8.309c3.202,-2.925 8.618,-6.208 14.588,-9.508c8.098,-3.142 13.598,-5.813 17.242,-7.979c1.846,-1.099 3.356,-2.152 4.522,-3.166c0.581,-0.506 1.182,-1.092 1.716,-1.759c0.405,-0.506 1.112,-1.471 1.539,-2.807c0.669,-2.003 0.751,-4.69 0.223,-7.496l-0.228,-1.214l-0.631,-1.066c-2.885,-4.878 -7.87,-6.337 -10.771,-6.441c-12.931,-0.849 -21.625,-2.184 -27.385,-3.62c-1.707,-0.425 -3.097,-0.846 -4.224,-1.24c7.765,-4.505 13.862,-10.607 18.441,-16.613c5.923,-7.77 9.629,-15.803 11.28,-21.134l0.101,-0.327l0.069,-0.331c6.29,-30.01 -2.715,-51.084 -17.389,-64.758c-14.069,-13.111 -32.615,-19.591 -47.107,-19.591c-15.016,0 -32.847,6.52 -46.873,19.591c-14.674,13.673 -23.679,34.748 -17.39,64.758l0.07,0.331l0.1,0.324c1.65,5.331 5.357,13.366 11.28,21.137c4.579,6.006 10.677,12.108 18.442,16.613c-1.128,0.394 -2.518,0.815 -4.224,1.24c-5.76,1.436 -14.455,2.771 -27.385,3.62c-2.901,0.104 -7.886,1.563 -10.772,6.441l-0.631,1.066l-0.227,1.214c-0.528,2.805 -0.447,5.493 0.222,7.496c0.428,1.336 1.135,2.301 1.54,2.807c0.534,0.667 1.135,1.253 1.716,1.759c1.166,1.014 2.676,2.067 4.522,3.166c3.643,2.166 9.144,4.837 17.242,7.979c5.969,3.3 11.386,6.583 14.588,9.508c1.81,1.696 4.585,4.809 6.7,8.309c2.268,3.75 2.98,6.621 2.722,8.291l-0.084,0.546l-0,4.284c-1.272,10.887 -4.469,28.454 -9.952,45.916c-5.628,17.921 -13.324,34.608 -22.959,44.271l-0.335,0.333l-0.01,0.013c-0.267,0.254 -0.5,0.479 -0.885,0.787c-1.155,0.921 -3.255,2.459 -6.692,4.621c-6.852,4.304 -18.848,10.967 -38.935,20.029c-2.496,0.942 -6.072,2.65 -9.509,4.996c-3.004,2.046 -7.263,5.063 -9.591,10.113c-1.985,4.308 -1.128,7.966 -0.813,9.312Z" style="fill:#fff;fill-rule:nonzero;"/><path d="M399.611,468.892l-8.246,92.275c-3.035,-1.921 -6.062,-3.342 -8.256,-4.171c-20.086,-9.063 -32.083,-15.725 -38.934,-20.029c-3.438,-2.159 -5.538,-3.696 -6.692,-4.621c-0.386,-0.304 -0.618,-0.529 -0.886,-0.788l-0.01,-0.008l-0.335,-0.337c-9.635,-9.663 -17.331,-26.346 -22.959,-44.271c-5.483,-17.463 -8.68,-35.029 -9.952,-45.913l0,-4.287l-0.01,-0.067l0.309,-3.742c0.424,-1.416 1.177,-3.108 2.339,-5.029c2.116,-3.496 4.891,-6.608 6.701,-8.304c3.201,-2.929 8.618,-6.209 14.588,-9.51c8.097,-3.141 13.598,-5.81 17.241,-7.979c1.846,-1.099 3.356,-2.152 4.523,-3.166c0.58,-0.506 1.181,-1.092 1.715,-1.759c0.406,-0.506 1.113,-1.471 1.54,-2.807c0.669,-2.003 0.75,-4.691 0.223,-7.496l-0.228,-1.214l-0.631,-1.066c-2.885,-4.878 -7.87,-6.337 -10.771,-6.441c-12.931,-0.849 -21.625,-2.184 -27.385,-3.62c-1.707,-0.425 -3.097,-0.846 -4.224,-1.24c7.764,-4.505 13.862,-10.607 18.441,-16.613c5.922,-7.77 9.629,-15.803 11.279,-21.134l0.101,-0.327l0.07,-0.331c5.543,-26.45 -0.794,-45.958 -12.422,-59.577c9.995,-1.967 20.648,-3.717 31.958,-5.251c11.994,-1.626 24.728,-2.927 38.202,-3.903c13.473,-1.138 27.767,-1.708 42.883,-1.708c17.088,0.325 33.684,2.033 49.788,5.123c16.266,2.928 30.641,7.969 43.129,15.125c12.654,6.994 22.758,16.589 30.317,28.787c7.72,12.035 11.583,27.322 11.583,45.862c-0,10.247 -1.808,19.68 -5.421,28.299c-3.45,8.62 -7.971,16.426 -13.558,23.419c-5.421,6.831 -11.417,12.931 -17.992,18.298c-6.571,5.204 -12.896,9.675 -18.975,13.417c-5.917,3.741 -11.175,6.75 -15.775,9.025c-4.6,2.116 -7.721,3.495 -9.367,4.15c0,0.325 0.084,0.729 0.246,1.216c0.329,0.488 0.904,1.467 1.725,2.929c0.825,1.3 1.975,3.255 3.454,5.855c1.642,2.441 3.696,5.854 6.159,10.245c2.629,3.905 5.754,9.109 9.366,15.613c3.617,6.504 7.888,14.233 12.817,23.175c5.092,8.783 10.925,18.625 17.5,29.521c6.571,10.896 14.129,22.604 22.675,35.129c2.792,2.437 5.996,3.983 9.613,4.633c3.612,0.488 6.983,0.813 10.104,0.975c3.121,0 5.75,0.163 7.887,0.488c2.134,0.162 3.205,1.141 3.205,2.929c-0,1.3 -1.4,2.846 -4.192,4.633c-2.629,1.629 -5.75,3.338 -9.367,5.125c-3.612,1.788 -7.312,3.496 -11.091,5.121c-3.613,1.629 -6.405,2.929 -8.38,3.904c-3.941,1.954 -8.05,3.821 -12.32,5.613c-4.275,1.787 -8.875,3.821 -13.805,6.1c-4.929,2.112 -10.433,4.633 -16.512,7.562c-5.913,2.925 -12.65,6.421 -20.209,10.488c-1.97,1.137 -3.862,1.87 -5.67,2.195c-1.642,0.488 -3.204,0.734 -4.684,0.734c-2.954,-0 -5.504,-0.734 -7.637,-2.196c-2.138,-1.3 -3.946,-2.929 -5.425,-4.879c-1.479,-1.954 -2.708,-3.988 -3.696,-6.1c-0.821,-1.95 -1.562,-3.579 -2.217,-4.879l-73.447,-153.2Zm2.957,-30.009c8.38,0 17.09,-2.112 26.124,-6.341c9.037,-4.229 17.254,-9.68 24.65,-16.345c7.391,-6.669 13.471,-14.231 18.237,-22.688c4.763,-8.457 7.146,-16.995 7.146,-25.615c0,-23.582 -14.296,-35.373 -42.883,-35.373c-5.421,-0 -9.942,0.407 -13.554,1.22c-3.617,0.65 -6.903,1.138 -9.861,1.463l-9.859,103.679Z" style="fill:#fff;"/><ellipse cx="695.654" cy="146.222" rx="104.348" ry="104.326" style="fill:#ff32a1;"/></g></svg>