<svg xmlns="http://www.w3.org/2000/svg" width="192" height="192" fill="none">
<path d="M133.348 25.0779H37.5658C16.8188 25.0779 0 41.8931 0 62.6358V191.999H129.391C150.138 191.999 166.957 175.184 166.957 154.442V70.1467C147.593 70.1467 131.896 54.4527 131.896 35.0932C131.896 31.613 132.403 28.2513 133.348 25.0779Z" fill="#5A20FE"/>
<path d="M23.4833 142.879C23.4887 142.902 23.4935 142.922 23.4973 142.94C23.7303 144.297 24.6435 147.28 26.7126 149.564C26.7132 149.688 26.7127 149.828 26.7111 149.98C26.7048 150.585 26.6808 151.362 26.6624 151.843L26.5949 153.608H70.7572C70.9848 153.665 71.2247 153.693 71.4771 153.693C71.808 153.693 72.1389 153.665 72.4698 153.608H81.9268L81.8593 151.843C81.8448 151.464 81.8268 150.901 81.8168 150.383L82.1471 150.269H81.8147C81.813 150.17 81.8116 150.073 81.8106 149.98C81.809 149.828 81.8085 149.688 81.8091 149.564C83.8783 147.28 84.7914 144.297 85.0245 142.94C85.0282 142.922 85.033 142.902 85.0384 142.879C85.114 142.556 85.3196 141.678 84.8433 140.644C84.2845 139.432 83.2624 138.708 82.5415 138.217C81.7166 137.654 80.8584 137.244 80.2593 137.018C75.4386 134.843 72.5593 133.244 70.915 132.211C70.0899 131.692 69.586 131.323 69.3089 131.102C69.2163 131.028 69.1605 130.974 69.0963 130.913L69.0939 130.91L69.0135 130.83C66.7011 128.511 64.8541 124.506 63.5035 120.205C62.1875 116.014 61.4203 111.798 61.115 109.185V108.157L61.0947 108.026C61.0331 107.625 61.204 106.935 61.748 106.036C62.2557 105.196 62.9217 104.449 63.3562 104.042C64.1246 103.34 65.4246 102.552 66.8573 101.76C68.8008 101.006 70.1209 100.365 70.9953 99.845C71.4384 99.5813 71.8008 99.3286 72.0807 99.0851C72.2201 98.9638 72.3643 98.8231 72.4924 98.6631C72.5897 98.5415 72.7594 98.3099 72.8619 97.9893C73.0225 97.5086 73.042 96.8637 72.9154 96.1902L72.8607 95.899L72.7093 95.6431C72.0168 94.4725 70.8204 94.1223 70.1242 94.0973C67.0208 93.8936 64.9341 93.5732 63.5517 93.2285C63.1422 93.1264 62.8086 93.0255 62.538 92.9309C64.4015 91.8497 65.865 90.3853 66.9639 88.9437C68.3853 87.079 69.2749 85.1511 69.671 83.8715L69.6952 83.7932L69.7119 83.7137C71.2214 76.5112 69.0602 71.4534 65.5385 68.1717C62.162 65.0252 57.711 63.47 54.2328 63.47C50.629 63.47 46.3495 65.0347 42.9832 68.1717C39.4616 71.4534 37.3003 76.5112 38.8098 83.7137L38.8265 83.7932L38.8505 83.8708C39.2465 85.1504 40.1362 87.0787 41.5578 88.9437C42.6567 90.3853 44.1202 91.8497 45.9837 92.9309C45.7131 93.0255 45.3795 93.1264 44.97 93.2285C43.5876 93.5732 41.5009 93.8936 38.3975 94.0973C37.7013 94.1223 36.5049 94.4725 35.8124 95.6431L35.661 95.899L35.6063 96.1902C35.4797 96.8636 35.4992 97.5086 35.6598 97.9893C35.7623 98.3099 35.932 98.5415 36.0293 98.6631C36.1575 98.8231 36.3016 98.9638 36.4411 99.0851C36.7209 99.3286 37.0833 99.5813 37.5265 99.845C38.4008 100.365 39.721 101.006 41.6644 101.76C43.0971 102.552 44.3972 103.34 45.1655 104.042C45.6001 104.449 46.266 105.196 46.7737 106.036C47.318 106.936 47.4889 107.625 47.427 108.026L47.4067 108.157V109.185C47.1014 111.798 46.3342 116.014 45.0182 120.205C43.6676 124.506 41.8206 128.511 39.5082 130.83L39.4278 130.91L39.4254 130.913C39.3612 130.974 39.3054 131.028 39.2128 131.102C38.9357 131.323 38.4318 131.692 37.6067 132.211C35.9624 133.244 33.0832 134.843 28.2624 137.018C27.6633 137.244 26.8051 137.654 25.9802 138.217C25.2593 138.708 24.2372 139.432 23.6784 140.644C23.2021 141.678 23.4078 142.556 23.4833 142.879Z" fill="white"/>
<path fill-rule="evenodd" clip-rule="evenodd" d="M95.9066 112.534L93.9276 134.68C93.1993 134.219 92.4728 133.878 91.9462 133.679C87.1255 131.504 84.2463 129.905 82.602 128.872C81.7769 128.354 81.273 127.985 80.9959 127.763C80.9033 127.69 80.8475 127.636 80.7833 127.574L80.7808 127.572L80.7004 127.491C78.3881 125.172 76.5411 121.168 75.1904 116.866C73.8745 112.675 73.1072 108.459 72.8019 105.847V104.818L72.7994 104.802L72.8737 103.904C72.9754 103.564 73.1562 103.158 73.4349 102.697C73.9427 101.858 74.6087 101.111 75.0432 100.704C75.8115 100.001 77.1116 99.2138 78.5443 98.4215C80.4877 97.6678 81.8078 97.0271 82.6822 96.5066C83.1253 96.2429 83.4877 95.9902 83.7676 95.7467C83.907 95.6254 84.0512 95.4846 84.1793 95.3247C84.2767 95.2031 84.4464 94.9715 84.5489 94.6509C84.7094 94.1702 84.7289 93.5252 84.6024 92.8518L84.5477 92.5606L84.3963 92.3047C83.7038 91.1341 82.5074 90.7839 81.8112 90.7588C78.7078 90.5552 76.6211 90.2348 75.2387 89.8901C74.8292 89.788 74.4955 89.6871 74.225 89.5925C76.0885 88.5113 77.552 87.0469 78.6508 85.6053C80.0722 83.7406 80.9619 81.8127 81.3579 80.5331L81.3822 80.4548L81.3988 80.3753C82.7293 74.0273 81.2083 69.3453 78.4176 66.0769C80.8164 65.6047 83.3731 65.1846 86.0875 64.8166C88.9661 64.4263 92.0223 64.114 95.2559 63.8798C98.4895 63.6066 101.92 63.47 105.548 63.47C109.649 63.548 113.632 63.9579 117.497 64.6995C121.401 65.4021 124.851 66.6121 127.848 68.3295C130.885 70.0079 133.31 72.3108 135.124 75.2382C136.977 78.1266 137.904 81.7957 137.904 86.2453C137.904 88.7044 137.47 90.9683 136.603 93.037C135.775 95.1057 134.69 96.9792 133.349 98.6576C132.048 100.297 130.609 101.761 129.031 103.049C127.454 104.298 125.936 105.371 124.477 106.269C123.057 107.167 121.795 107.889 120.691 108.435C119.587 108.943 118.838 109.274 118.443 109.431C118.443 109.509 118.463 109.606 118.502 109.723C118.581 109.84 118.719 110.075 118.916 110.426C119.114 110.738 119.39 111.207 119.745 111.831C120.139 112.417 120.632 113.236 121.223 114.29C121.854 115.227 122.604 116.476 123.471 118.037C124.339 119.598 125.364 121.453 126.547 123.599C127.769 125.707 129.169 128.069 130.747 130.684C132.324 133.299 134.138 136.109 136.189 139.115C136.859 139.7 137.628 140.071 138.496 140.227C139.363 140.344 140.172 140.422 140.921 140.461C141.67 140.461 142.301 140.5 142.814 140.578C143.326 140.617 143.583 140.852 143.583 141.281C143.583 141.593 143.247 141.964 142.577 142.393C141.946 142.784 141.197 143.194 140.329 143.623C139.462 144.052 138.574 144.462 137.667 144.852C136.8 145.243 136.13 145.555 135.656 145.789C134.71 146.258 133.724 146.706 132.699 147.136C131.673 147.565 130.569 148.053 129.386 148.6C128.203 149.107 126.882 149.712 125.423 150.415C124.004 151.117 122.387 151.956 120.573 152.932C120.1 153.205 119.646 153.381 119.212 153.459C118.818 153.576 118.443 153.635 118.088 153.635C117.379 153.635 116.767 153.459 116.255 153.108C115.742 152.796 115.308 152.405 114.953 151.937C114.598 151.468 114.303 150.98 114.066 150.473C113.869 150.005 113.691 149.614 113.534 149.302L95.9066 112.534ZM96.6164 105.332C98.6275 105.332 100.718 104.825 102.886 103.81C105.055 102.795 107.027 101.487 108.802 99.8872C110.576 98.2868 112.035 96.4718 113.179 94.4421C114.322 92.4125 114.894 90.3633 114.894 88.2945C114.894 82.6349 111.463 79.805 104.602 79.805C103.301 79.805 102.216 79.9026 101.349 80.0978C100.481 80.2539 99.6923 80.371 98.9825 80.449L96.6164 105.332Z" fill="white"/>
<ellipse cx="166.957" cy="35.0932" rx="25.0435" ry="25.0382" fill="#FF32A1"/>
</svg>
