<svg width="148" height="150" viewBox="0 0 148 150" fill="none" xmlns="http://www.w3.org/2000/svg">
<path d="M26.4489 67.2821L39.9483 67.2821L39.9483 53.7705L53.9791 53.7705L53.9791 67.2821L66.9534 67.2821L66.9534 80.7966L53.9791 80.7966L53.9791 94.3111L39.9483 94.3111L39.9483 80.7966L26.4489 80.7966L26.4489 67.2821ZM22.5433 112.157L11.3365 112.157L11.3365 126.213L81.5219 126.213L81.5219 112.157L70.0989 112.157C82.6714 107.294 91.0417 97.8228 91.0417 86.3039C91.0417 74.0703 74.6131 43.6965 61.1198 25.8504C57.7457 30.3521 52.3663 33.2852 46.3164 33.2852C40.2727 33.2852 34.8871 30.3645 31.5068 25.8628C18.0197 43.712 1.60351 74.0703 1.60351 86.3039C1.60351 97.8167 9.9615 107.294 22.5433 112.157" fill="#001B36"/>
<path d="M87.3278 129.459L5.15374 129.459C1.94958 129.459 -7.05037e-07 130.653 -5.87888e-07 133.868L0 150L46.2423 150L93.3962 150L93.3962 133.868C93.3962 130.653 90.535 129.459 87.3278 129.459" fill="#001B36"/>
<path d="M46.3166 29.5043C51.5075 29.5043 56.0557 26.8095 58.6883 22.7471C60.1776 20.4421 61.052 17.6977 61.0519 14.7553C61.0519 6.615 54.4428 6.84376e-05 46.3166 6.87337e-05C38.1934 6.90297e-05 31.5842 6.61501 31.5842 14.7553C31.5842 17.6977 32.4618 20.442 33.9511 22.7501C36.5805 26.8094 41.1318 29.5043 46.3166 29.5043Z" fill="#001B36"/>
<path d="M81.5218 112.157L11.3364 112.157L11.3364 126.213L81.5218 126.213L81.5218 112.157Z" fill="#001B36"/>
<mask id="path-5-inside-1" fill="white">
<path d="M59.9663 95.8177C52.5165 113.639 65.3323 126.3 65.3323 126.3L133.555 126.3C133.555 92.9587 113.793 100.837 117.204 94.005C117.573 93.2849 130.143 76.0265 132.11 55.4536C132.817 48.1539 130.236 39.3431 125.257 31.8711C119.848 23.7527 112.625 18.6964 104.973 17.6224C94.8705 16.2006 83.1518 19.7305 74.402 23.3373L57.8488 48.8925L58.0424 49.9911L69.6104 61.307C69.6104 61.307 85.4904 48.4986 92.009 47.0768C98.546 45.6642 106.048 46.4305 106.048 58.9373C106.048 71.4472 68.4917 75.4449 59.9663 95.8177"/>
</mask>
<path d="M59.9663 95.8177C52.5165 113.639 65.3323 126.3 65.3323 126.3L133.555 126.3C133.555 92.9587 113.793 100.837 117.204 94.005C117.573 93.2849 130.143 76.0265 132.11 55.4536C132.817 48.1539 130.236 39.3431 125.257 31.8711C119.848 23.7527 112.625 18.6964 104.973 17.6224C94.8705 16.2006 83.1518 19.7305 74.402 23.3373L57.8488 48.8925L58.0424 49.9911L69.6104 61.307C69.6104 61.307 85.4904 48.4986 92.009 47.0768C98.546 45.6642 106.048 46.4305 106.048 58.9373C106.048 71.4472 68.4917 75.4449 59.9663 95.8177" fill="white"/>
<path d="M65.3323 126.3L65.3323 128.3L64.511 128.3L63.9268 127.723L65.3323 126.3ZM133.555 126.3L135.555 126.3L135.555 128.3L133.555 128.3L133.555 126.3ZM117.204 94.005L115.415 93.1116L115.42 93.1024L115.424 93.0934L117.204 94.005ZM132.11 55.4536L130.119 55.2633L130.12 55.2609L132.11 55.4536ZM125.257 31.8711L123.592 32.9801L123.592 32.98L125.257 31.8711ZM104.973 17.6224L104.695 19.603L104.694 19.6029L104.973 17.6224ZM74.402 23.3373L72.7234 22.25L73.0627 21.7261L73.6398 21.4882L74.402 23.3373ZM57.8488 48.8925L55.8792 49.2396L55.7427 48.4652L56.1702 47.8052L57.8488 48.8925ZM58.0424 49.9911L56.6439 51.4208L56.1843 50.9713L56.0728 50.3382L58.0424 49.9911ZM69.6104 61.307L70.866 62.8637L69.4825 63.9796L68.2119 62.7367L69.6104 61.307ZM92.009 47.0768L91.5828 45.1227L91.5865 45.1219L92.009 47.0768ZM61.8115 96.5891C58.3364 104.902 59.5871 111.955 61.6986 116.965C62.7602 119.484 64.0411 121.486 65.0536 122.853C65.5588 123.535 65.9939 124.055 66.2964 124.399C66.4476 124.57 66.5653 124.697 66.6416 124.777C66.6797 124.818 66.7075 124.846 66.7239 124.863C66.7321 124.871 66.7374 124.877 66.7398 124.879C66.741 124.88 66.7414 124.881 66.7411 124.88C66.741 124.88 66.7406 124.88 66.7401 124.879C66.7398 124.879 66.7393 124.879 66.7391 124.878C66.7385 124.878 66.7379 124.877 65.3323 126.3C63.9268 127.723 63.926 127.722 63.9252 127.721C63.9249 127.721 63.9241 127.72 63.9234 127.719C63.9221 127.718 63.9206 127.717 63.9189 127.715C63.9155 127.712 63.9113 127.707 63.9063 127.702C63.8965 127.693 63.8835 127.679 63.8677 127.663C63.8361 127.631 63.7928 127.586 63.7389 127.53C63.6311 127.416 63.4807 127.253 63.2959 127.044C62.9267 126.625 62.4188 126.017 61.8389 125.233C60.6812 123.67 59.2237 121.393 58.0126 118.519C55.5786 112.743 54.1463 104.555 58.121 95.0463L61.8115 96.5891ZM65.3323 124.3L133.555 124.3L133.555 128.3L65.3323 128.3L65.3323 124.3ZM131.555 126.3C131.555 110.066 126.779 104.437 122.98 101.868C121.978 101.191 120.984 100.687 120.04 100.25C119.174 99.8501 118.125 99.4136 117.368 99.0036C116.619 98.5983 115.584 97.9404 115.087 96.7686C114.542 95.4865 114.871 94.2004 115.415 93.1116L118.994 94.8985C118.685 95.5176 118.885 95.4799 118.768 95.2048C118.698 95.0401 118.648 95.1481 119.272 95.4859C119.888 95.819 120.6 96.1028 121.718 96.619C122.756 97.0986 123.966 97.7063 125.221 98.5547C130.45 102.09 135.555 109.193 135.555 126.3L131.555 126.3ZM115.424 93.0934C115.988 91.9929 128.201 75.3302 130.119 55.2633L134.101 55.644C133.086 66.2591 129.346 75.9603 125.852 83.0575C124.101 86.6151 122.401 89.5396 121.114 91.622C120.47 92.6637 119.93 93.4944 119.54 94.086C119.362 94.3572 119.173 94.6403 119.08 94.7808C118.93 95.0084 118.944 94.9967 118.985 94.9167L115.424 93.0934ZM130.12 55.2609C130.772 48.5205 128.378 40.1625 123.592 32.9801L126.921 30.7621C132.093 38.5238 134.862 47.7872 134.101 55.6464L130.12 55.2609ZM123.592 32.98C118.413 25.2065 111.643 20.5782 104.695 19.603L105.251 15.6418C113.607 16.8146 121.282 22.2989 126.921 30.7621L123.592 32.98ZM104.694 19.6029C95.1488 18.2595 83.8514 21.6054 75.1642 25.1863L73.6398 21.4882C82.4523 17.8556 94.5922 14.1417 105.251 15.6419L104.694 19.6029ZM76.0806 24.4246L59.5274 49.9798L56.1702 47.8052L72.7234 22.25L76.0806 24.4246ZM59.8185 48.5455L60.0121 49.6441L56.0728 50.3382L55.8792 49.2396L59.8185 48.5455ZM59.441 48.5614L71.009 59.8773L68.2119 62.7367L56.6439 51.4208L59.441 48.5614ZM69.6104 61.307C68.3548 59.7502 68.355 59.7501 68.3552 59.7499C68.3553 59.7498 68.3556 59.7496 68.356 59.7493C68.3566 59.7488 68.3575 59.7481 68.3586 59.7472C68.3608 59.7454 68.364 59.7428 68.3681 59.7395C68.3764 59.7328 68.3884 59.7232 68.4042 59.7105C68.4357 59.6852 68.482 59.6481 68.5422 59.6C68.6628 59.5037 68.8394 59.3632 69.0659 59.1843C69.5187 58.8266 70.1714 58.3154 70.9744 57.6979C72.5792 56.464 74.7905 54.8015 77.2113 53.0915C79.6276 51.3847 82.2766 49.6136 84.7527 48.1717C87.1728 46.7625 89.6214 45.5505 91.5828 45.1227L92.4352 49.0308C91.1372 49.3139 89.1564 50.2362 86.7656 51.6284C84.4308 52.988 81.8876 54.6856 79.5191 56.3586C77.1551 58.0285 74.989 59.6569 73.4126 60.8689C72.625 61.4745 71.9861 61.975 71.5451 62.3233C71.3246 62.4975 71.1537 62.6335 71.0384 62.7256C70.9808 62.7716 70.9371 62.8066 70.9081 62.8299C70.8936 62.8415 70.8828 62.8502 70.8758 62.8559C70.8722 62.8587 70.8697 62.8608 70.868 62.8621C70.8672 62.8627 70.8666 62.8632 70.8663 62.8635C70.8661 62.8636 70.8661 62.8637 70.866 62.8637C70.866 62.8637 70.866 62.8637 69.6104 61.307ZM91.5865 45.1219C94.9713 44.3905 99.1225 44.0871 102.491 46.0619C106.041 48.1425 108.048 52.3124 108.048 58.9373L104.048 58.9373C104.048 53.0554 102.304 50.5889 100.469 49.5127C98.4521 48.3307 95.5836 48.3505 92.4314 49.0317L91.5865 45.1219ZM108.048 58.9373C108.048 63.16 104.878 66.2789 101.161 68.7733C97.3615 71.3234 92.2289 73.7105 87.0825 76.2258C81.8546 78.7809 76.5037 81.5152 71.9402 84.8366C67.3804 88.1553 63.7482 91.961 61.8112 96.5898L58.1213 95.0456C60.447 89.488 64.7065 85.1542 69.5863 81.6025C74.4624 78.0536 80.0992 75.1867 85.3261 72.6321C90.6345 70.0376 95.4239 67.8064 98.9323 65.4519C102.524 63.0416 104.048 60.9697 104.048 58.9373L108.048 58.9373Z" fill="#001B36" mask="url(#path-5-inside-1)"/>
<mask id="path-7-inside-2" fill="white">
<path d="M105.341 14.7507C113.762 15.9331 121.63 21.3996 127.469 30.1493C132.817 38.1066 135.522 47.5565 134.784 55.437C133.247 71.5359 125.902 84.4653 122.152 90.1315C124.58 91.145 126.271 95.5767 126.271 95.5767C126.271 95.5767 147.385 78.3937 147.385 51.8806C147.385 22.4715 129.098 1.73325e-05 105.218 1.82027e-05C86.0897 1.88998e-05 71.7556 10.8872 71.7556 10.8872L74.2173 20.2357C83.1608 16.6455 94.9103 13.2919 105.341 14.7507"/>
</mask>
<path d="M105.341 14.7507C113.762 15.9331 121.63 21.3996 127.469 30.1493C132.817 38.1066 135.522 47.5565 134.784 55.437C133.247 71.5359 125.902 84.4653 122.152 90.1315C124.58 91.145 126.271 95.5767 126.271 95.5767C126.271 95.5767 147.385 78.3937 147.385 51.8806C147.385 22.4715 129.098 1.73325e-05 105.218 1.82027e-05C86.0897 1.88998e-05 71.7556 10.8872 71.7556 10.8872L74.2173 20.2357C83.1608 16.6455 94.9103 13.2919 105.341 14.7507" fill="white"/>
<path d="M127.469 30.1493L125.809 31.2649L125.806 31.2595L127.469 30.1493ZM134.784 55.437L136.775 55.6234L136.775 55.627L134.784 55.437ZM122.152 90.1315L121.382 91.9772L119.149 91.0453L120.484 89.0279L122.152 90.1315ZM126.271 95.5767L127.533 97.1279L125.388 98.8738L124.402 96.2895L126.271 95.5767ZM71.7556 10.8872L69.8215 11.3964L69.481 10.1033L70.5459 9.29448L71.7556 10.8872ZM74.2173 20.2357L74.9624 22.0917L72.8601 22.9356L72.2832 20.745L74.2173 20.2357ZM105.619 12.7701C114.734 14.0498 123.057 19.9349 129.133 29.0391L125.806 31.2595C120.203 22.8644 112.791 17.8163 105.063 16.7312L105.619 12.7701ZM129.129 29.0337C134.682 37.2963 137.564 47.1985 136.775 55.6234L132.793 55.2506C133.479 47.9144 130.952 38.9169 125.809 31.2649L129.129 29.0337ZM136.775 55.627C135.194 72.1911 127.654 85.4419 123.82 91.2352L120.484 89.0279C124.15 83.4887 131.301 70.8807 132.793 55.247L136.775 55.627ZM122.923 88.2859C123.91 88.6979 124.705 89.4001 125.31 90.0753C125.927 90.7645 126.442 91.5333 126.846 92.2202C127.253 92.9131 127.572 93.5638 127.789 94.0395C127.898 94.2788 127.983 94.4774 128.041 94.6195C128.071 94.6906 128.094 94.7478 128.11 94.7892C128.118 94.8098 128.125 94.8266 128.13 94.8391C128.132 94.8453 128.134 94.8506 128.136 94.8547C128.137 94.8568 128.137 94.8586 128.138 94.8601C128.138 94.8609 128.138 94.8615 128.139 94.8622C128.139 94.8625 128.139 94.8629 128.139 94.8631C128.139 94.8635 128.139 94.8638 126.271 95.5767C124.402 96.2895 124.402 96.2898 124.402 96.2902C124.402 96.2902 124.402 96.2906 124.403 96.2907C124.403 96.2911 124.403 96.2914 124.403 96.2916C124.403 96.2921 124.403 96.2923 124.403 96.2922C124.403 96.2921 124.403 96.2909 124.402 96.2888C124.4 96.2844 124.397 96.2762 124.392 96.2641C124.383 96.24 124.367 96.201 124.345 96.149C124.302 96.0448 124.236 95.8893 124.148 95.6973C123.972 95.3104 123.717 94.7898 123.398 94.2481C123.076 93.7004 122.713 93.1713 122.33 92.7445C121.936 92.3038 121.609 92.0719 121.382 91.9772L122.923 88.2859ZM126.271 95.5767C125.008 94.0254 125.008 94.0258 125.007 94.0262C125.007 94.0262 125.007 94.0265 125.007 94.0265C125.007 94.0266 125.007 94.0265 125.008 94.026C125.009 94.0252 125.011 94.0233 125.014 94.0204C125.021 94.0146 125.033 94.0047 125.05 93.9907C125.084 93.9626 125.137 93.9182 125.208 93.8576C125.349 93.7364 125.562 93.5508 125.837 93.3026C126.387 92.806 127.181 92.0598 128.139 91.0796C130.057 89.1174 132.621 86.2267 135.184 82.5311C140.32 75.1273 145.385 64.597 145.385 51.8806L149.385 51.8806C149.385 65.6773 143.892 76.995 138.471 84.8109C135.756 88.7253 133.041 91.7874 131 93.8755C129.979 94.9204 129.124 95.7238 128.519 96.2705C128.216 96.5439 127.976 96.7533 127.808 96.8968C127.724 96.9686 127.659 97.0239 127.612 97.0624C127.589 97.0817 127.571 97.0969 127.558 97.1078C127.551 97.1132 127.546 97.1176 127.542 97.121C127.54 97.1227 127.538 97.1241 127.536 97.1252C127.536 97.1258 127.535 97.1265 127.535 97.1268C127.534 97.1274 127.533 97.1279 126.271 95.5767ZM145.385 51.8806C145.385 23.1694 127.627 2.00002 105.218 2.00002L105.218 -1.99998C130.57 -1.99998 149.385 21.7736 149.385 51.8806L145.385 51.8806ZM105.218 2.00002C96.0257 2.00002 87.9484 4.61884 82.1429 7.26363C79.2458 8.5834 76.9321 9.90166 75.3497 10.8848C74.559 11.3761 73.9525 11.7828 73.5486 12.0629C73.3466 12.2029 73.1955 12.3112 73.0975 12.3824C73.0485 12.4181 73.0128 12.4444 72.9907 12.4609C72.9796 12.4691 72.9719 12.4749 72.9677 12.4781C72.9656 12.4797 72.9643 12.4806 72.9639 12.4809C72.9637 12.4811 72.9637 12.481 72.964 12.4809C72.9641 12.4808 72.9644 12.4805 72.9645 12.4805C72.9649 12.4802 72.9653 12.4798 71.7556 10.8872C70.5459 9.29448 70.5465 9.29405 70.5471 9.29359C70.5474 9.29338 70.548 9.29288 70.5486 9.29246C70.5497 9.29162 70.551 9.29062 70.5526 9.28945C70.5557 9.28711 70.5596 9.28412 70.5645 9.28048C70.5742 9.27319 70.5873 9.26333 70.604 9.25096C70.6373 9.22622 70.6844 9.19146 70.745 9.14735C70.8663 9.05915 71.0418 8.93352 71.2692 8.77584C71.7239 8.46052 72.3867 8.01665 73.2387 7.48726C74.9417 6.42909 77.407 5.02557 80.4846 3.62355C86.6282 0.824765 95.2822 -1.99998 105.218 -1.99998L105.218 2.00002ZM73.6897 10.3779L76.1514 19.7264L72.2832 20.745L69.8215 11.3964L73.6897 10.3779ZM73.4722 18.3796C82.4979 14.7565 94.6524 11.2363 105.618 12.7699L105.064 16.7314C95.1683 15.3474 83.8236 18.5345 74.9624 22.0917L73.4722 18.3796Z" fill="#001B36" mask="url(#path-7-inside-2)"/>
<path d="M139.486 130.45L57.7472 130.45C56.2604 130.45 55.0524 130.744 54.2451 131.297C53.4944 131.812 53 132.609 53 133.907L53 149L98.6105 149L143.895 149L143.895 133.907C143.895 132.554 143.445 131.763 142.79 131.274C142.083 130.745 140.981 130.45 139.486 130.45Z" fill="white" stroke="#001B36" stroke-width="2"/>
</svg>
