<svg version="1" xmlns="http://www.w3.org/2000/svg" width="933.333" height="933.333" viewBox="0 0 700.000000 700.000000"><path d="M202.5.7c-5 .9-17.1 5.7-22.8 9-15.9 9.3-29.4 29.1-32.4 47.8-1.2 6.8-.5 21 1.2 27.7 7.9 31 35.1 52.2 67 52.1 11 0 19.3-1.8 28.9-6.2 20.2-9.3 36-30.3 39.2-52.1 5.2-35.9-18.5-70.3-53.6-77.6-6.5-1.3-21.8-1.7-27.5-.7zM483.5.7c-31.3 3.4-55.3 9.5-83.7 21.4-17.8 7.4-43.3 21.3-49.9 27.1l-2.6 2.3 5.6 20.7c3.1 11.3 5.9 20.9 6.2 21.2.3.3 3.6-.6 7.5-2 25.2-9.5 50.2-16.6 69.9-20 5-.8 10.1-1.7 11.5-2 11.2-1.9 42.1-2.5 53-1 43.4 5.9 81.9 33.4 110.1 78.7 5.3 8.4 14.4 26.4 16.8 32.9.7 1.9 1.7 4.4 2.2 5.5 3.7 8.8 8.5 28 10.5 42.3 1 6.5 1.1 27.7.3 33.8-.4 3.2-1 8.4-1.4 11.4-1.4 11.7-6.3 34-10.6 48-2.6 8.5-6.8 21-8 23.5-.4 1.1-2.2 5.6-3.9 10-4.8 12.5-20.1 42.8-27.8 55.2-6.2 9.9-6.8 11.3-5.2 11.8 3.2 1 10.3 9.8 14.3 17.5l3.7 7.3 12.8-12.9c42.5-43.1 72.4-97.7 81.2-148.4.6-3.6 1.3-7.6 1.5-9 2.6-15.1 2.7-52.6.1-73-1.2-9.2-1.8-13.6-2.1-14-.2-.3-.6-2.6-1-5-2.1-14.2-8.5-36.1-15.7-53.8C649.3 58.3 593.9 11.4 526.5 1.4c-4.5-.6-38.3-1.2-43-.7z"/><path d="M472.7 79.6c-.1.1-3.8.5-8.2.9-27.5 2.3-56.4 9.3-90 22-12.4 4.6-13.9 5.5-17 10.4-3 4.7-13.2 20.6-23.3 36.1-10.8 16.7-14.4 22-14.8 22-.2 0-3.6-4.8-7.5-10.8-10.2-15.2-27.3-39.2-27.9-39.1-.3 0-2.5 2.4-5 5.3-8.4 9.7-20.5 18.2-33 23-32.1 12.5-67.8 4.5-92.2-20.4l-7.7-7.9-6.7 9.1c-6.9 9.4-30.3 44-36.3 53.8-6.8 10.9-23.1 38.3-23.1 38.6 0 .3-1.1 2.1-2.3 4.2-1.3 2-4.5 7.7-7.2 12.7-2.6 4.9-5.1 9.4-5.6 10-1.4 1.9-23.8 47.1-28.9 58.5-11.4 25.3-20 48.8-24.6 67.5-.4 1.6-.8 3.4-1 4-1.3 5.1-3 20.5-2.8 26.6 1.2 45.3 31.4 86 81.8 110.4 6.2 3 11.9 5.6 12.7 5.7.8.1-10 .5-24 .8l-25.4.5-.1 32.7-.1 32.8h163.3c89.7 0 163.2-.4 163.2-.8 0-.5 57.6-.8 128-.8 84.6.1 128-.2 128.1-.9.2-2-.3-24.8-.6-26.4-.1-.9-.6-4.5-1-8.1-2.2-21.3-7.6-40.8-15.5-55.7-2.7-5-5.7-10.2-6.7-11.4-3.1-3.9-10.8-12.4-11.5-12.7-.3-.2-1.7-1.2-3-2.4-1.2-1.1-4.1-3.2-6.3-4.6-4.8-3.1-25-13.2-26.4-13.2-.5 0-2.1-1.4-3.5-3.1-3.8-4.5-3.4-8.3 1.5-16 14.3-22.1 23.9-39.4 33.5-60.4 3-6.6 5.9-12.9 6.4-14 10.6-23.2 22.8-66.5 25.5-91 .4-3.3.9-6.9 1.1-8 .5-2.4.5-23.8-.1-27.7-.2-1.6-.6-4.7-1-7-.4-2.4-.9-5.4-1.2-6.8-2.4-14.8-10.8-38.1-19.5-54-27.5-50.3-68.7-80.8-112.8-83.6-9.9-.6-21.1-1-21.3-.8zm6.6 138.9c17.7 5.8 27.7 24 28 51.5.2 9.4-.1 11.1-2.4 16-4.7 10.1-17 21.2-35.9 32.6-8.6 5.1-57.3 29.3-58.1 28.8-.3-.2-1.6-3.2-2.9-6.6-2.8-7.9-11.1-27.6-14.5-34.5-1.4-2.9-2.5-5.6-2.5-5.9 0-.4-4.5-9.6-9.9-20.5l-10-19.9 3.7-2.8c3.7-2.9 15-10.8 18.1-12.7.9-.6 4.9-3.1 8.9-5.8 4-2.6 7.5-4.7 7.8-4.7.3 0 1.8-.8 3.2-1.8 8.8-6.2 24.1-12.8 33.7-14.6 9.8-1.9 25.6-1.4 32.8.9zm-228.3 64V314h60v63h-60v63l-32.7-.2-32.7-.3V377H123v-63h62.6l-.1-30.8c0-16.9.1-31 .3-31.5.2-.4 14.9-.7 32.8-.7H251v31.5zM15.2 605c-5.5 1.3-9.6 4-12.2 7.9l-2.5 3.6-.3 41.8-.3 41.7h697.9l-.1-40.8-.2-40.8-2.8-4.2c-2.6-4-7.5-7.3-12.7-8.5-3.9-1-663.1-1.7-666.8-.7z"/></svg>