<svg width="76" height="76" viewBox="0 0 76 76" fill="none" xmlns="http://www.w3.org/2000/svg">
<g filter="url(#filter0_d)">
<path d="M71 36C71 54.2254 56.2254 69 38 69H5V36C5 17.7746 19.7746 3 38 3C56.2254 3 71 17.7746 71 36Z" fill="#54C4F2"/>
</g>
<path d="M26.5312 49.2949C26.5312 48.7324 26.6953 48.2637 27.0234 47.8887C27.3633 47.5137 27.8672 47.3262 28.5352 47.3262C29.2031 47.3262 29.707 47.5137 30.0469 47.8887C30.3984 48.2637 30.5742 48.7324 30.5742 49.2949C30.5742 49.834 30.3984 50.2852 30.0469 50.6484C29.707 51.0117 29.2031 51.1934 28.5352 51.1934C27.8672 51.1934 27.3633 51.0117 27.0234 50.6484C26.6953 50.2852 26.5312 49.834 26.5312 49.2949ZM36.0234 49.2949C36.0234 48.7324 36.1875 48.2637 36.5156 47.8887C36.8555 47.5137 37.3594 47.3262 38.0273 47.3262C38.6953 47.3262 39.1992 47.5137 39.5391 47.8887C39.8906 48.2637 40.0664 48.7324 40.0664 49.2949C40.0664 49.834 39.8906 50.2852 39.5391 50.6484C39.1992 51.0117 38.6953 51.1934 38.0273 51.1934C37.3594 51.1934 36.8555 51.0117 36.5156 50.6484C36.1875 50.2852 36.0234 49.834 36.0234 49.2949ZM45.5156 49.2949C45.5156 48.7324 45.6797 48.2637 46.0078 47.8887C46.3477 47.5137 46.8516 47.3262 47.5195 47.3262C48.1875 47.3262 48.6914 47.5137 49.0312 47.8887C49.3828 48.2637 49.5586 48.7324 49.5586 49.2949C49.5586 49.834 49.3828 50.2852 49.0312 50.6484C48.6914 51.0117 48.1875 51.1934 47.5195 51.1934C46.8516 51.1934 46.3477 51.0117 46.0078 50.6484C45.6797 50.2852 45.5156 49.834 45.5156 49.2949Z" fill="white"/>
<defs>
<filter id="filter0_d" x="0" y="0" width="76" height="76" filterUnits="userSpaceOnUse" color-interpolation-filters="sRGB">
<feFlood flood-opacity="0" result="BackgroundImageFix"/>
<feColorMatrix in="SourceAlpha" type="matrix" values="0 0 0 0 0 0 0 0 0 0 0 0 0 0 0 0 0 0 127 0"/>
<feOffset dy="2"/>
<feGaussianBlur stdDeviation="2.5"/>
<feColorMatrix type="matrix" values="0 0 0 0 0 0 0 0 0 0 0 0 0 0 0 0 0 0 0.25 0"/>
<feBlend mode="normal" in2="BackgroundImageFix" result="effect1_dropShadow"/>
<feBlend mode="normal" in="SourceGraphic" in2="effect1_dropShadow" result="shape"/>
</filter>
</defs>
</svg>
