<svg width="633" height="109" viewBox="0 0 633 109" fill="none" xmlns="http://www.w3.org/2000/svg">
<mask id="path-1-inside-1" fill="white">
<path fill-rule="evenodd" clip-rule="evenodd" d="M79.8696 9H22C9.84974 9 0 18.8497 0 31V109H78C90.1503 109 100 99.1503 100 87V36C88.402 36 79 26.598 79 15C79 12.9151 79.3038 10.9011 79.8696 9Z"/>
</mask>
<path d="M79.8696 9L83.2242 9.99837L84.563 5.5H79.8696V9ZM0 109H-3.5V112.5H0V109ZM100 36H103.5V32.5H100V36ZM22 12.5H79.8696V5.5H22V12.5ZM3.5 31C3.5 20.7827 11.7827 12.5 22 12.5V5.5C7.91674 5.5 -3.5 16.9167 -3.5 31H3.5ZM3.5 109V31H-3.5V109H3.5ZM78 105.5H0V112.5H78V105.5ZM96.5 87C96.5 97.2173 88.2173 105.5 78 105.5V112.5C92.0833 112.5 103.5 101.083 103.5 87H96.5ZM96.5 36V87H103.5V36H96.5ZM100 32.5C90.335 32.5 82.5 24.665 82.5 15H75.5C75.5 28.531 86.469 39.5 100 39.5V32.5ZM82.5 15C82.5 13.2567 82.7538 11.5789 83.2242 9.99837L76.5151 8.00163C75.8538 10.2233 75.5 12.5734 75.5 15H82.5Z" fill="white" mask="url(#path-1-inside-1)"/>
<path fill-rule="evenodd" clip-rule="evenodd" d="M41.5781 84C41.5739 84.2896 41.5718 84.5876 41.5718 84.8938C41.5718 85.3381 41.6899 85.6421 41.9261 85.8058C42.1859 85.9694 42.4811 86.0513 42.8118 86.0513C43.2133 86.0513 43.6149 85.9811 44.0164 85.8408C44.4415 85.7239 44.7958 85.607 45.0793 85.4901C45.6461 85.2796 46.461 84.9756 47.5239 84.5781L49.2027 84H41.5781ZM56.2587 74.661L57.4441 61.3932L68.002 83.4206C68.0965 83.6077 68.2027 83.8415 68.3208 84.1221C68.4626 84.4261 68.6397 84.7184 68.8523 84.999C69.0649 85.2796 69.3247 85.5135 69.6317 85.7005C69.9388 85.911 70.3049 86.0162 70.73 86.0162C70.9426 86.0162 71.167 85.9811 71.4032 85.911C71.663 85.8642 71.9346 85.759 72.2181 85.5953C73.3046 85.0107 74.2729 84.508 75.1233 84.0871C75.9972 83.6662 76.7884 83.3037 77.497 82.9997C78.2056 82.6724 78.8669 82.3801 79.481 82.1228C80.0952 81.8656 80.6856 81.5967 81.2525 81.3161C81.5359 81.1758 81.9375 80.9887 82.4571 80.7549C83.0003 80.5211 83.5318 80.2755 84.0514 80.0183C84.571 79.7611 85.0198 79.5156 85.3977 79.2817C85.7993 79.0245 86 78.8024 86 78.6153C86 78.3581 85.8465 78.2178 85.5394 78.1944C85.2324 78.1476 84.8545 78.1242 84.4057 78.1242C83.9569 78.1008 83.4727 78.0541 82.9531 77.9839C82.4335 77.8904 81.9729 77.6683 81.5714 77.3175C80.3432 75.517 79.2567 73.8333 78.3119 72.2666C77.3671 70.6999 76.5286 69.2852 75.7964 68.0225C75.0878 66.7364 74.4737 65.6257 73.9541 64.6903C73.4345 63.755 72.9857 63.0067 72.6078 62.4455C72.2535 61.8141 71.9582 61.3231 71.722 60.9723C71.5095 60.5982 71.3441 60.3176 71.226 60.1305C71.1079 59.9201 71.0253 59.7798 70.978 59.7096C70.9544 59.6395 70.9426 59.581 70.9426 59.5342C71.1788 59.4407 71.6276 59.2419 72.2889 58.938C72.9503 58.6106 73.7061 58.178 74.5564 57.6402C75.4303 57.1023 76.3397 56.4593 77.2844 55.711C78.2292 54.9394 79.0913 54.0625 79.8708 53.0804C80.6738 52.0749 81.3234 50.9524 81.8194 49.7131C82.339 48.4738 82.5988 47.1175 82.5988 45.6444C82.5988 42.9786 82.0438 40.7806 80.9336 39.0502C79.8471 37.2964 78.3946 35.9168 76.5759 34.9113C74.7808 33.8824 72.7141 33.1575 70.3757 32.7366C68.061 32.2923 65.6755 32.0468 63.219 32C61.046 32 58.9911 32.0818 57.0543 32.2455C55.1175 32.3858 53.287 32.5729 51.5628 32.8067C49.937 33.0272 48.4057 33.2789 46.9689 33.5618C48.6404 35.5198 49.5514 38.3247 48.7545 42.1277L48.7446 42.1753L48.73 42.2222C48.4928 42.9888 47.9599 44.1438 47.1086 45.2609C46.4504 46.1245 45.5739 47.0018 44.4577 47.6496C44.6197 47.7063 44.8196 47.7667 45.0648 47.8279C45.8929 48.0344 47.1427 48.2263 49.0015 48.3483C49.4185 48.3633 50.1351 48.5731 50.5499 49.2744L50.6405 49.4277L50.6733 49.6022C50.7491 50.0056 50.7374 50.392 50.6413 50.68C50.5799 50.872 50.4783 51.0108 50.4199 51.0836C50.3432 51.1795 50.2568 51.2638 50.1733 51.3364C50.0057 51.4823 49.7886 51.6337 49.5232 51.7917C48.9995 52.1035 48.2088 52.4873 47.0448 52.9389C46.1866 53.4135 45.408 53.8853 44.9478 54.3062C44.6875 54.55 44.2886 54.9976 43.9845 55.5005C43.8175 55.7766 43.7093 56.0196 43.6483 56.2234L43.6038 56.7613L43.6054 56.7712V57.3873C43.7882 58.9523 44.2478 61.478 45.036 63.9889C45.845 66.5659 46.9512 68.9648 48.3362 70.3541L48.3844 70.4024L48.3858 70.4038L48.3858 70.4038C48.4243 70.4407 48.4577 70.4729 48.5132 70.5171C48.6792 70.6496 48.981 70.8709 49.4752 71.1814C50.46 71.8003 52.1846 72.7582 55.072 74.0614C55.3874 74.1806 55.8225 74.3845 56.2587 74.661ZM61.6247 56.167C60.3256 56.775 59.0738 57.079 57.8692 57.079L59.2864 42.1719C59.7115 42.1251 60.1839 42.055 60.7036 41.9614C61.2232 41.8445 61.8727 41.7861 62.6522 41.7861C66.762 41.7861 68.8169 43.4814 68.8169 46.872C68.8169 48.1113 68.4744 49.339 67.7894 50.5549C67.1044 51.7709 66.2305 52.8582 65.1676 53.8169C64.1048 54.7757 62.9238 55.559 61.6247 56.167Z" fill="white"/>
<path d="M14.0655 79.5727L14.0655 79.5726C14.0203 79.3793 13.8971 78.8529 14.1824 78.2339C14.5171 77.5077 15.1293 77.0742 15.5611 76.7795C16.0552 76.4423 16.5692 76.197 16.928 76.0614C19.8154 74.7582 21.54 73.8003 22.5248 73.1814C23.0191 72.8709 23.3209 72.6496 23.4868 72.5171C23.5423 72.4729 23.5758 72.4407 23.6142 72.4038L23.6156 72.4024L23.6638 72.3541C25.0488 70.9648 26.1551 68.5659 26.964 65.9889C27.7522 63.478 28.2118 60.9523 28.3947 59.3874V58.7714L28.4068 58.6928C28.4439 58.4525 28.3415 58.0396 28.0155 57.5005C27.7114 56.9976 27.3125 56.5501 27.0523 56.3062C26.5921 55.8853 25.8134 55.4135 24.9552 54.9389C23.7912 54.4873 23.0005 54.1035 22.4768 53.7917C22.2114 53.6337 21.9943 53.4823 21.8267 53.3364C21.7432 53.2638 21.6568 53.1795 21.5801 53.0836C21.5218 53.0108 21.4201 52.872 21.3587 52.68C21.2626 52.392 21.2509 52.0056 21.3267 51.6022L21.3595 51.4277L21.4501 51.2744C21.8649 50.5731 22.5815 50.3633 22.9985 50.3483C24.8573 50.2263 26.1071 50.0344 26.9352 49.8279C27.1804 49.7667 27.3803 49.7063 27.5423 49.6496C26.4262 49.0018 25.5496 48.1245 24.8914 47.2609C24.0399 46.1436 23.507 44.9884 23.2699 44.2218L23.2555 44.1753L23.2455 44.1277C22.3413 39.8128 23.6358 36.7827 25.7451 34.8167C27.7614 32.9374 30.3247 32 32.4832 32C34.5665 32 37.2325 32.9317 39.2549 34.8167C41.3642 36.7827 42.6587 39.8128 41.7545 44.1277L41.7446 44.1753L41.73 44.2222C41.4928 44.9888 40.9599 46.1438 40.1086 47.2609C39.4504 48.1245 38.5738 49.0018 37.4577 49.6496C37.6197 49.7063 37.8196 49.7667 38.0648 49.8279C38.8929 50.0344 40.1427 50.2263 42.0015 50.3483C42.4185 50.3633 43.1351 50.5731 43.5499 51.2744L43.6405 51.4277L43.6733 51.6022C43.7491 52.0056 43.7374 52.392 43.6413 52.68C43.5799 52.872 43.4782 53.0108 43.4199 53.0836C43.3432 53.1795 43.2568 53.2638 43.1733 53.3364C43.0057 53.4823 42.7886 53.6337 42.5232 53.7917C41.9995 54.1035 41.2088 54.4873 40.0448 54.9389C39.1866 55.4135 38.4079 55.8853 37.9478 56.3062C37.6875 56.55 37.2886 56.9976 36.9845 57.5005C36.6587 58.0393 36.5563 58.4523 36.5932 58.6927L36.6053 58.7712V59.3873C36.7882 60.9523 37.2478 63.478 38.0359 65.9889C38.8449 68.5659 39.9512 70.9648 41.3362 72.3541L41.3844 72.4024L41.3858 72.4038L41.3858 72.4038C41.4243 72.4407 41.4577 72.4729 41.5132 72.5171C41.6791 72.6496 41.9809 72.8709 42.4752 73.1814C43.46 73.8003 45.1846 74.7582 48.072 76.0614C48.4308 76.197 48.9448 76.4423 49.4389 76.7795C49.8707 77.0742 50.4829 77.5077 50.8176 78.2339C51.1029 78.8529 50.9797 79.3793 50.9345 79.5726C50.9312 79.5865 50.9284 79.5986 50.9261 79.609C50.7865 80.4219 50.2396 82.2093 49.0002 83.5778C48.9999 83.6518 49.0002 83.7356 49.0012 83.8269C49.0049 84.189 49.0193 84.6549 49.0303 84.9427L49.0708 86H15.9292L15.9697 84.9427C15.9807 84.6549 15.9951 84.189 15.9988 83.8269C15.9998 83.7356 16.0001 83.6518 15.9998 83.5778C14.7604 82.2093 14.2135 80.4219 14.0739 79.609C14.0716 79.5987 14.0688 79.5865 14.0655 79.5727Z" fill="white"/>
<circle cx="100" cy="15" r="15" fill="#FF32A1"/>
<path d="M143.249 81.734C144.834 81.734 146.215 81.611 147.39 81.365C148.565 81.119 149.577 80.8047 150.424 80.422C151.299 80.0393 152.037 79.6293 152.638 79.192C153.239 78.7547 153.772 78.3447 154.237 77.962C154.729 77.5793 155.153 77.265 155.508 77.019C155.891 76.773 156.287 76.65 156.697 76.65C157.08 76.65 157.394 76.7183 157.64 76.855C157.913 76.9917 158.118 77.142 158.255 77.306L162.396 82.39C159.827 85.3967 156.779 87.6927 153.253 89.278C149.727 90.8633 145.709 91.656 141.199 91.656C137.509 91.656 134.215 91 131.318 89.688C128.448 88.376 126.029 86.572 124.061 84.276C122.093 81.9527 120.59 79.2193 119.551 76.076C118.54 72.9053 118.034 69.4613 118.034 65.744C118.034 62.3273 118.403 59.102 119.141 56.068C119.906 53.0067 120.972 50.1913 122.339 47.622C123.706 45.0253 125.346 42.6883 127.259 40.611C129.2 38.5337 131.345 36.7843 133.696 35.363C136.074 33.9143 138.616 32.8073 141.322 32.042C144.028 31.2493 146.857 30.853 149.809 30.853C151.996 30.853 153.991 31.058 155.795 31.468C157.599 31.878 159.239 32.452 160.715 33.19C162.191 33.9007 163.503 34.7753 164.651 35.814C165.826 36.8253 166.865 37.946 167.767 39.176L163.626 44.055C163.325 44.4103 162.97 44.7247 162.56 44.998C162.177 45.2713 161.672 45.408 161.043 45.408C160.414 45.408 159.827 45.1757 159.28 44.711C158.733 44.219 158.064 43.6997 157.271 43.153C156.478 42.579 155.453 42.0597 154.196 41.595C152.939 41.103 151.285 40.857 149.235 40.857C146.529 40.857 144.014 41.4173 141.691 42.538C139.368 43.6587 137.345 45.2577 135.623 47.335C133.928 49.385 132.589 51.886 131.605 54.838C130.648 57.79 130.17 61.0973 130.17 64.76C130.17 67.4387 130.498 69.8303 131.154 71.935C131.81 74.0123 132.726 75.789 133.901 77.265C135.076 78.7137 136.457 79.8207 138.042 80.586C139.627 81.3513 141.363 81.734 143.249 81.734ZM182.744 55.125C184.739 52.7197 186.871 50.943 189.14 49.795C191.436 48.647 193.786 48.073 196.192 48.073C197.968 48.073 199.567 48.4283 200.989 49.139C202.437 49.8497 203.626 50.8883 204.556 52.255C205.512 53.6217 206.182 55.3027 206.565 57.298C206.947 59.2933 206.975 61.5757 206.647 64.145L203.449 91H192.174L195.331 64.145C195.659 61.603 195.536 59.799 194.962 58.733C194.388 57.6397 193.349 57.093 191.846 57.093C190.889 57.093 189.891 57.3663 188.853 57.913C187.841 58.4597 186.844 59.2523 185.86 60.291C184.903 61.3023 184.015 62.5323 183.195 63.981C182.375 65.4023 181.678 67.0013 181.104 68.778L178.398 91H167.082L174.503 29.869H185.819L182.744 55.125ZM234.108 55.904C232.906 55.904 231.771 56.1637 230.705 56.683C229.639 57.175 228.669 57.8857 227.794 58.815C226.947 59.717 226.195 60.8103 225.539 62.095C224.883 63.3797 224.35 64.8147 223.94 66.4C226.974 65.9627 229.421 65.498 231.279 65.006C233.165 64.4867 234.614 63.94 235.625 63.366C236.664 62.7647 237.347 62.1223 237.675 61.439C238.031 60.7557 238.208 60.0177 238.208 59.225C238.208 58.8423 238.126 58.4597 237.962 58.077C237.798 57.667 237.552 57.3117 237.224 57.011C236.896 56.683 236.473 56.4233 235.953 56.232C235.434 56.0133 234.819 55.904 234.108 55.904ZM223.038 73.657C223.038 79.9163 225.676 83.046 230.951 83.046C232.701 83.046 234.122 82.8273 235.215 82.39C236.336 81.9253 237.293 81.4333 238.085 80.914C238.878 80.3673 239.602 79.8753 240.258 79.438C240.942 78.9733 241.721 78.741 242.595 78.741C242.978 78.741 243.333 78.8367 243.661 79.028C244.017 79.192 244.331 79.4243 244.604 79.725L247.474 83.169C245.998 84.645 244.563 85.916 243.169 86.982C241.775 88.0207 240.327 88.8953 238.823 89.606C237.32 90.2893 235.748 90.795 234.108 91.123C232.468 91.451 230.664 91.615 228.696 91.615C226.209 91.615 223.94 91.1913 221.89 90.344C219.84 89.4967 218.077 88.3077 216.601 86.777C215.153 85.219 214.018 83.3603 213.198 81.201C212.406 79.0143 212.009 76.5817 212.009 73.903C212.009 71.6617 212.255 69.475 212.747 67.343C213.239 65.211 213.95 63.1883 214.879 61.275C215.809 59.3617 216.929 57.6123 218.241 56.027C219.581 54.4143 221.098 53.034 222.792 51.886C224.487 50.7107 226.332 49.795 228.327 49.139C230.35 48.483 232.496 48.155 234.764 48.155C236.978 48.155 238.933 48.483 240.627 49.139C242.349 49.7677 243.784 50.6013 244.932 51.64C246.08 52.6513 246.941 53.7857 247.515 55.043C248.117 56.3003 248.417 57.5577 248.417 58.815C248.417 60.701 248.035 62.4367 247.269 64.022C246.504 65.6073 245.165 67.0287 243.251 68.286C241.338 69.516 238.741 70.582 235.461 71.484C232.181 72.3587 228.04 73.042 223.038 73.534V73.657ZM280.621 57.093C280.293 57.5577 279.965 57.8993 279.637 58.118C279.337 58.3093 278.954 58.405 278.489 58.405C277.97 58.405 277.451 58.2683 276.931 57.995C276.439 57.7217 275.879 57.4347 275.25 57.134C274.622 56.806 273.897 56.5053 273.077 56.232C272.285 55.9587 271.342 55.822 270.248 55.822C268.198 55.822 266.668 56.2593 265.656 57.134C264.672 58.0087 264.18 59.102 264.18 60.414C264.18 61.48 264.577 62.341 265.369 62.997C266.162 63.6257 267.16 64.1997 268.362 64.719C269.565 65.211 270.863 65.7167 272.257 66.236C273.651 66.7553 274.95 67.425 276.152 68.245C277.355 69.065 278.353 70.1173 279.145 71.402C279.938 72.6867 280.334 74.3267 280.334 76.322C280.334 78.3993 279.924 80.3673 279.104 82.226C278.284 84.0847 277.095 85.711 275.537 87.105C274.007 88.499 272.148 89.606 269.961 90.426C267.775 91.246 265.328 91.656 262.622 91.656C261.283 91.656 259.971 91.5193 258.686 91.246C257.429 91 256.226 90.6447 255.078 90.18C253.958 89.688 252.933 89.1277 252.003 88.499C251.101 87.8703 250.336 87.187 249.707 86.449L252.495 82.226C252.823 81.734 253.22 81.3513 253.684 81.078C254.149 80.8047 254.709 80.668 255.365 80.668C255.967 80.668 256.513 80.8457 257.005 81.201C257.497 81.529 258.044 81.898 258.645 82.308C259.247 82.6907 259.957 83.0597 260.777 83.415C261.625 83.743 262.718 83.907 264.057 83.907C265.069 83.907 265.957 83.784 266.722 83.538C267.515 83.2647 268.171 82.9093 268.69 82.472C269.237 82.0073 269.633 81.4743 269.879 80.873C270.153 80.2717 270.289 79.643 270.289 78.987C270.289 77.7843 269.893 76.855 269.1 76.199C268.308 75.543 267.31 74.969 266.107 74.477C264.932 73.985 263.647 73.5067 262.253 73.042C260.859 72.5773 259.561 71.9487 258.358 71.156C257.183 70.3633 256.199 69.3383 255.406 68.081C254.614 66.8237 254.217 65.1427 254.217 63.038C254.217 61.1247 254.573 59.2797 255.283 57.503C256.021 55.699 257.087 54.1 258.481 52.706C259.875 51.312 261.597 50.1913 263.647 49.344C265.725 48.4967 268.116 48.073 270.822 48.073C273.583 48.073 276.029 48.5513 278.161 49.508C280.321 50.4373 282.111 51.6263 283.532 53.075L280.621 57.093ZM314.014 57.093C313.686 57.5577 313.358 57.8993 313.03 58.118C312.729 58.3093 312.347 58.405 311.882 58.405C311.363 58.405 310.843 58.2683 310.324 57.995C309.832 57.7217 309.272 57.4347 308.643 57.134C308.014 56.806 307.29 56.5053 306.47 56.232C305.677 55.9587 304.734 55.822 303.641 55.822C301.591 55.822 300.06 56.2593 299.049 57.134C298.065 58.0087 297.573 59.102 297.573 60.414C297.573 61.48 297.969 62.341 298.762 62.997C299.555 63.6257 300.552 64.1997 301.755 64.719C302.958 65.211 304.256 65.7167 305.65 66.236C307.044 66.7553 308.342 67.425 309.545 68.245C310.748 69.065 311.745 70.1173 312.538 71.402C313.331 72.6867 313.727 74.3267 313.727 76.322C313.727 78.3993 313.317 80.3673 312.497 82.226C311.677 84.0847 310.488 85.711 308.93 87.105C307.399 88.499 305.541 89.606 303.354 90.426C301.167 91.246 298.721 91.656 296.015 91.656C294.676 91.656 293.364 91.5193 292.079 91.246C290.822 91 289.619 90.6447 288.471 90.18C287.35 89.688 286.325 89.1277 285.396 88.499C284.494 87.8703 283.729 87.187 283.1 86.449L285.888 82.226C286.216 81.734 286.612 81.3513 287.077 81.078C287.542 80.8047 288.102 80.668 288.758 80.668C289.359 80.668 289.906 80.8457 290.398 81.201C290.89 81.529 291.437 81.898 292.038 82.308C292.639 82.6907 293.35 83.0597 294.17 83.415C295.017 83.743 296.111 83.907 297.45 83.907C298.461 83.907 299.35 83.784 300.115 83.538C300.908 83.2647 301.564 82.9093 302.083 82.472C302.63 82.0073 303.026 81.4743 303.272 80.873C303.545 80.2717 303.682 79.643 303.682 78.987C303.682 77.7843 303.286 76.855 302.493 76.199C301.7 75.543 300.703 74.969 299.5 74.477C298.325 73.985 297.04 73.5067 295.646 73.042C294.252 72.5773 292.954 71.9487 291.751 71.156C290.576 70.3633 289.592 69.3383 288.799 68.081C288.006 66.8237 287.61 65.1427 287.61 63.038C287.61 61.1247 287.965 59.2797 288.676 57.503C289.414 55.699 290.48 54.1 291.874 52.706C293.268 51.312 294.99 50.1913 297.04 49.344C299.117 48.4967 301.509 48.073 304.215 48.073C306.976 48.073 309.422 48.5513 311.554 49.508C313.713 50.4373 315.504 51.6263 316.925 53.075L314.014 57.093ZM333.344 58.159C334.41 56.191 335.53 54.51 336.706 53.116C337.908 51.722 339.152 50.6423 340.437 49.877C341.721 49.0843 343.033 48.6333 344.373 48.524C345.712 48.3873 347.065 48.6197 348.432 49.221L346.382 59.84C344.769 59.1567 343.252 58.8697 341.831 58.979C340.437 59.0883 339.138 59.635 337.936 60.619C336.76 61.603 335.694 63.038 334.738 64.924C333.781 66.81 332.947 69.188 332.237 72.058L329.941 91H318.83L323.955 48.688H329.777C330.952 48.688 331.868 48.975 332.524 49.549C333.18 50.123 333.508 51.0387 333.508 52.296L333.344 58.159ZM365.17 83.128C366.756 83.128 368.177 82.6633 369.434 81.734C370.692 80.8047 371.758 79.561 372.632 78.003C373.507 76.4177 374.177 74.5863 374.641 72.509C375.133 70.4317 375.379 68.2313 375.379 65.908C375.379 62.628 374.874 60.2637 373.862 58.815C372.851 57.339 371.279 56.601 369.147 56.601C367.589 56.601 366.168 57.0657 364.883 57.995C363.626 58.897 362.56 60.127 361.685 61.685C360.811 63.243 360.127 65.0743 359.635 67.179C359.171 69.2563 358.938 71.4567 358.938 73.78C358.938 77.0053 359.444 79.3697 360.455 80.873C361.467 82.3763 363.038 83.128 365.17 83.128ZM364.186 91.615C361.836 91.615 359.649 91.2323 357.626 90.467C355.604 89.6743 353.854 88.5263 352.378 87.023C350.902 85.5197 349.741 83.661 348.893 81.447C348.073 79.233 347.663 76.7047 347.663 73.862C347.663 70.172 348.265 66.7553 349.467 63.612C350.67 60.4413 352.296 57.708 354.346 55.412C356.396 53.116 358.788 51.3257 361.521 50.041C364.255 48.729 367.138 48.073 370.172 48.073C372.523 48.073 374.696 48.4693 376.691 49.262C378.714 50.0273 380.463 51.1753 381.939 52.706C383.415 54.2093 384.577 56.068 385.424 58.282C386.272 60.496 386.695 63.0243 386.695 65.867C386.695 69.5297 386.094 72.9327 384.891 76.076C383.689 79.2193 382.049 81.939 379.971 84.235C377.921 86.531 375.53 88.335 372.796 89.647C370.09 90.959 367.22 91.615 364.186 91.615ZM431.582 48.729L426.457 91H420.717C418.038 91 416.699 89.729 416.699 87.187L416.822 83.374C414.744 86.162 412.476 88.2393 410.016 89.606C407.583 90.9453 405.055 91.615 402.431 91.615C400.654 91.615 399.055 91.2597 397.634 90.549C396.212 89.8383 395.037 88.7997 394.108 87.433C393.178 86.0663 392.522 84.399 392.14 82.431C391.757 80.4357 391.73 78.1533 392.058 75.584L395.214 48.729H406.531L403.333 75.584C403.032 78.126 403.155 79.93 403.702 80.996C404.276 82.0347 405.301 82.554 406.777 82.554C407.761 82.554 408.772 82.2807 409.811 81.734C410.877 81.16 411.888 80.3537 412.845 79.315C413.829 78.2763 414.731 77.0327 415.551 75.584C416.398 74.108 417.095 72.468 417.642 70.664L420.307 48.729H431.582ZM435.345 91L442.766 29.869H453.918L446.456 91H435.345ZM477.546 55.904C476.343 55.904 475.209 56.1637 474.143 56.683C473.077 57.175 472.106 57.8857 471.232 58.815C470.384 59.717 469.633 60.8103 468.977 62.095C468.321 63.3797 467.788 64.8147 467.378 66.4C470.412 65.9627 472.858 65.498 474.717 65.006C476.603 64.4867 478.051 63.94 479.063 63.366C480.101 62.7647 480.785 62.1223 481.113 61.439C481.468 60.7557 481.646 60.0177 481.646 59.225C481.646 58.8423 481.564 58.4597 481.4 58.077C481.236 57.667 480.99 57.3117 480.662 57.011C480.334 56.683 479.91 56.4233 479.391 56.232C478.871 56.0133 478.256 55.904 477.546 55.904ZM466.476 73.657C466.476 79.9163 469.113 83.046 474.389 83.046C476.138 83.046 477.559 82.8273 478.653 82.39C479.773 81.9253 480.73 81.4333 481.523 80.914C482.315 80.3673 483.04 79.8753 483.696 79.438C484.379 78.9733 485.158 78.741 486.033 78.741C486.415 78.741 486.771 78.8367 487.099 79.028C487.454 79.192 487.768 79.4243 488.042 79.725L490.912 83.169C489.436 84.645 488.001 85.916 486.607 86.982C485.213 88.0207 483.764 88.8953 482.261 89.606C480.757 90.2893 479.186 90.795 477.546 91.123C475.906 91.451 474.102 91.615 472.134 91.615C469.646 91.615 467.378 91.1913 465.328 90.344C463.278 89.4967 461.515 88.3077 460.039 86.777C458.59 85.219 457.456 83.3603 456.636 81.201C455.843 79.0143 455.447 76.5817 455.447 73.903C455.447 71.6617 455.693 69.475 456.185 67.343C456.677 65.211 457.387 63.1883 458.317 61.275C459.246 59.3617 460.367 57.6123 461.679 56.027C463.018 54.4143 464.535 53.034 466.23 51.886C467.924 50.7107 469.769 49.795 471.765 49.139C473.787 48.483 475.933 48.155 478.202 48.155C480.416 48.155 482.37 48.483 484.065 49.139C485.787 49.7677 487.222 50.6013 488.37 51.64C489.518 52.6513 490.379 53.7857 490.953 55.043C491.554 56.3003 491.855 57.5577 491.855 58.815C491.855 60.701 491.472 62.4367 490.707 64.022C489.941 65.6073 488.602 67.0287 486.689 68.286C484.775 69.516 482.179 70.582 478.899 71.484C475.619 72.3587 471.478 73.042 466.476 73.534V73.657ZM498.731 82.144C498.731 81.9527 498.731 81.734 498.731 81.488C498.731 81.2147 498.744 80.832 498.772 80.34C498.826 79.8207 498.895 79.151 498.977 78.331C499.086 77.4837 499.223 76.3903 499.387 75.051L501.683 56.683H498.157C497.583 56.683 497.118 56.5053 496.763 56.15C496.407 55.7673 496.271 55.207 496.353 54.469L496.927 50.205L503.159 49.016L506.685 37.946C507.122 36.716 507.956 36.101 509.186 36.101H515.295L513.655 49.057H528.456L531.982 37.946C532.419 36.716 533.266 36.101 534.524 36.101H540.592L538.993 49.057H548.751L547.767 56.683H538.05L535.877 74.436C535.74 75.5567 535.631 76.445 535.549 77.101C535.467 77.757 535.398 78.2627 535.344 78.618C535.316 78.9733 535.289 79.2193 535.262 79.356C535.262 79.4653 535.262 79.5473 535.262 79.602C535.262 80.5587 535.48 81.324 535.918 81.898C536.382 82.4447 537.052 82.718 537.927 82.718C538.419 82.718 538.842 82.6633 539.198 82.554C539.553 82.4173 539.854 82.2807 540.1 82.144C540.373 81.98 540.619 81.8433 540.838 81.734C541.056 81.5973 541.289 81.529 541.535 81.529C541.863 81.529 542.122 81.611 542.314 81.775C542.505 81.9117 542.669 82.1577 542.806 82.513L545.266 87.925C543.653 89.155 541.904 90.0843 540.018 90.713C538.159 91.3417 536.273 91.656 534.36 91.656C531.216 91.656 528.743 90.8223 526.939 89.155C525.135 87.4603 524.178 85.1233 524.069 82.144C524.069 81.9527 524.069 81.734 524.069 81.488C524.069 81.2147 524.082 80.832 524.11 80.34C524.164 79.8207 524.233 79.151 524.315 78.331C524.424 77.4837 524.561 76.3903 524.725 75.051L526.98 56.683H512.712L510.539 74.436C510.402 75.5567 510.293 76.445 510.211 77.101C510.129 77.757 510.06 78.2627 510.006 78.618C509.978 78.9733 509.965 79.2193 509.965 79.356C509.965 79.4653 509.965 79.5473 509.965 79.602C509.965 80.5587 510.183 81.324 510.621 81.898C511.058 82.4447 511.714 82.718 512.589 82.718C513.108 82.718 513.545 82.6633 513.901 82.554C514.256 82.4173 514.557 82.2807 514.803 82.144C515.076 81.98 515.322 81.8433 515.541 81.734C515.759 81.5973 515.978 81.529 516.197 81.529C516.552 81.529 516.812 81.611 516.976 81.775C517.167 81.9117 517.331 82.1577 517.468 82.513L519.928 87.925C518.342 89.155 516.607 90.0843 514.721 90.713C512.835 91.3417 510.949 91.656 509.063 91.656C505.919 91.656 503.432 90.8223 501.601 89.155C499.797 87.4603 498.84 85.1233 498.731 82.144ZM571.958 55.904C570.755 55.904 569.621 56.1637 568.555 56.683C567.489 57.175 566.518 57.8857 565.644 58.815C564.796 59.717 564.045 60.8103 563.389 62.095C562.733 63.3797 562.2 64.8147 561.79 66.4C564.824 65.9627 567.27 65.498 569.129 65.006C571.015 64.4867 572.463 63.94 573.475 63.366C574.513 62.7647 575.197 62.1223 575.525 61.439C575.88 60.7557 576.058 60.0177 576.058 59.225C576.058 58.8423 575.976 58.4597 575.812 58.077C575.648 57.667 575.402 57.3117 575.074 57.011C574.746 56.683 574.322 56.4233 573.803 56.232C573.283 56.0133 572.668 55.904 571.958 55.904ZM560.888 73.657C560.888 79.9163 563.525 83.046 568.801 83.046C570.55 83.046 571.971 82.8273 573.065 82.39C574.185 81.9253 575.142 81.4333 575.935 80.914C576.727 80.3673 577.452 79.8753 578.108 79.438C578.791 78.9733 579.57 78.741 580.445 78.741C580.827 78.741 581.183 78.8367 581.511 79.028C581.866 79.192 582.18 79.4243 582.454 79.725L585.324 83.169C583.848 84.645 582.413 85.916 581.019 86.982C579.625 88.0207 578.176 88.8953 576.673 89.606C575.169 90.2893 573.598 90.795 571.958 91.123C570.318 91.451 568.514 91.615 566.546 91.615C564.058 91.615 561.79 91.1913 559.74 90.344C557.69 89.4967 555.927 88.3077 554.451 86.777C553.002 85.219 551.868 83.3603 551.048 81.201C550.255 79.0143 549.859 76.5817 549.859 73.903C549.859 71.6617 550.105 69.475 550.597 67.343C551.089 65.211 551.799 63.1883 552.729 61.275C553.658 59.3617 554.779 57.6123 556.091 56.027C557.43 54.4143 558.947 53.034 560.642 51.886C562.336 50.7107 564.181 49.795 566.177 49.139C568.199 48.483 570.345 48.155 572.614 48.155C574.828 48.155 576.782 48.483 578.477 49.139C580.199 49.7677 581.634 50.6013 582.782 51.64C583.93 52.6513 584.791 53.7857 585.365 55.043C585.966 56.3003 586.267 57.5577 586.267 58.815C586.267 60.701 585.884 62.4367 585.119 64.022C584.353 65.6073 583.014 67.0287 581.101 68.286C579.187 69.516 576.591 70.582 573.311 71.484C570.031 72.3587 565.89 73.042 560.888 73.534V73.657Z" fill="white"/>
<path d="M559.853 7C549.439 7 541 15.3147 541 25.5714V27.4286C541 37.6852 549.439 46 559.853 46H614.147C624.561 46 633 37.6852 633 27.4286V25.5714C633 15.3147 624.561 7 614.147 7H559.853Z" fill="#FF32A1"/>
<path d="M567.27 33.3789C567.988 33.3789 568.589 33.2941 569.078 33.1248C569.562 32.9554 569.952 32.7296 570.238 32.4473C570.532 32.165 570.744 31.8357 570.868 31.4593C571.003 31.0829 571.07 30.683 571.07 30.2596C571.07 29.8173 570.996 29.4222 570.854 29.074C570.709 28.7164 570.486 28.4153 570.178 28.1707C569.874 27.9166 569.477 27.7237 568.989 27.592C568.511 27.4603 567.935 27.3944 567.255 27.3944H563.374V33.3789H567.27ZM563.374 18.8694V24.7691H566.442C567.758 24.7691 568.752 24.5339 569.421 24.0634C570.1 23.593 570.436 22.8449 570.436 21.8193C570.436 20.756 570.132 19.9985 569.52 19.5468C568.908 19.0952 567.956 18.8694 566.654 18.8694H563.374ZM566.654 15.9336C568.013 15.9336 569.173 16.0606 570.136 16.3147C571.102 16.5687 571.891 16.931 572.499 17.4015C573.122 17.872 573.575 18.4412 573.862 19.1093C574.148 19.7774 574.293 20.5301 574.293 21.3676C574.293 21.8475 574.219 22.3085 574.077 22.7508C573.932 23.1836 573.709 23.593 573.405 23.9787C573.108 24.3551 572.726 24.6986 572.259 25.0091C571.799 25.3196 571.25 25.5831 570.61 25.7995C573.455 26.4299 574.881 27.9448 574.881 30.3443C574.881 31.2099 574.711 32.0098 574.378 32.7437C574.042 33.4776 573.557 34.1128 572.917 34.6491C572.276 35.1761 571.487 35.5901 570.553 35.8912C569.616 36.1923 568.547 36.3429 567.344 36.3429H559.52V15.9336H566.654Z" fill="white"/>
<path d="M587.095 27.4367C587.095 26.9851 587.032 26.5616 586.897 26.1664C586.773 25.7618 586.582 25.409 586.324 25.1079C586.066 24.8067 585.737 24.5715 585.333 24.4021C584.944 24.2234 584.484 24.134 583.96 24.134C582.938 24.134 582.131 24.421 581.536 24.9949C580.956 25.5689 580.581 26.3828 580.422 27.4367H587.095ZM580.348 29.5397C580.408 30.2831 580.539 30.9276 580.751 31.4734C580.96 32.0097 581.236 32.4567 581.582 32.8142C581.926 33.1624 582.329 33.4258 582.8 33.6046C583.277 33.774 583.801 33.8587 584.374 33.8587C584.948 33.8587 585.439 33.7928 585.85 33.6611C586.271 33.5294 586.635 33.3835 586.94 33.2236C587.255 33.0636 587.527 32.9177 587.757 32.786C587.994 32.6543 588.224 32.5884 588.444 32.5884C588.741 32.5884 588.96 32.6966 589.102 32.913L590.121 34.1833C589.728 34.635 589.289 35.0161 588.801 35.3266C588.316 35.6277 587.803 35.8723 587.269 36.0605C586.745 36.2393 586.204 36.3663 585.652 36.4416C585.107 36.5169 584.576 36.5545 584.059 36.5545C583.037 36.5545 582.088 36.3899 581.207 36.0605C580.33 35.7218 579.566 35.2278 578.914 34.5785C578.267 33.9199 577.754 33.1106 577.382 32.1509C577.011 31.1817 576.823 30.062 576.823 28.7917C576.823 27.8037 576.986 26.8768 577.312 26.0111C577.637 25.1361 578.101 24.3786 578.702 23.7388C579.311 23.0895 580.054 22.5767 580.921 22.2003C581.802 21.8239 582.789 21.6357 583.886 21.6357C584.813 21.6357 585.669 21.7816 586.451 22.0733C587.237 22.365 587.909 22.7931 588.472 23.3577C589.034 23.9129 589.477 24.5997 589.792 25.4184C590.117 26.2276 590.276 27.1544 590.276 28.1989C590.276 28.7258 590.22 29.0834 590.107 29.2716C589.99 29.4504 589.77 29.5397 589.448 29.5397H580.348Z" fill="white"/>
<path d="M597.693 36.5689C596.416 36.5689 595.429 36.216 594.742 35.5103C594.063 34.7952 593.727 33.8119 593.727 32.5604V24.473H592.219C592.028 24.473 591.869 24.4118 591.734 24.2895C591.6 24.1672 591.533 23.9837 591.533 23.739V22.3558L593.896 21.9747L594.643 18.0227C594.689 17.8346 594.781 17.6887 594.915 17.5852C595.046 17.4817 595.22 17.4299 595.429 17.4299H597.265V21.9889H601.189V24.473H597.265V32.3205C597.265 32.7722 597.375 33.125 597.594 33.3791C597.824 33.6331 598.132 33.7601 598.525 33.7601C598.744 33.7601 598.925 33.7367 599.07 33.6896C599.222 33.6331 599.353 33.5767 599.455 33.5202C599.572 33.4638 599.671 33.412 599.756 33.365C599.845 33.3085 599.929 33.2803 600.014 33.2803C600.121 33.2803 600.205 33.3085 600.273 33.365C600.34 33.412 600.411 33.4873 600.489 33.5908L601.547 35.2845C601.033 35.7079 600.439 36.0278 599.77 36.2443C599.101 36.4607 598.411 36.5689 597.693 36.5689Z" fill="white"/>
<path d="M611.221 30.1609C610.198 30.2079 609.338 30.2973 608.641 30.4291C607.944 30.5514 607.385 30.7113 606.967 30.9089C606.546 31.1065 606.246 31.3371 606.065 31.6005C605.881 31.864 605.793 32.151 605.793 32.4615C605.793 33.0731 605.973 33.5107 606.334 33.7741C606.709 34.0376 607.19 34.1693 607.781 34.1693C608.51 34.1693 609.133 34.0423 609.66 33.7882C610.195 33.5248 610.715 33.1296 611.221 32.6026V30.1609ZM603.111 23.88C604.802 22.3557 606.837 21.5935 609.214 21.5935C610.074 21.5935 610.846 21.7346 611.521 22.017C612.201 22.2898 612.774 22.6756 613.241 23.1743C613.708 23.6636 614.062 24.2517 614.303 24.9386C614.55 25.6255 614.674 26.3782 614.674 27.1969V36.3429H613.071C612.735 36.3429 612.477 36.2959 612.296 36.2018C612.116 36.0983 611.971 35.896 611.865 35.5949L611.55 34.5504C611.178 34.8798 610.817 35.1714 610.463 35.4255C610.11 35.6701 609.742 35.8772 609.359 36.0465C608.977 36.2159 608.567 36.3429 608.128 36.4276C607.696 36.5217 607.219 36.5688 606.695 36.5688C606.072 36.5688 605.499 36.4888 604.975 36.3288C604.448 36.1595 603.995 35.9101 603.613 35.5808C603.231 35.2514 602.934 34.8421 602.725 34.3528C602.516 33.8635 602.41 33.2942 602.41 32.645C602.41 32.278 602.474 31.9157 602.597 31.5582C602.721 31.1912 602.919 30.8431 603.199 30.5137C603.486 30.1844 603.854 29.8739 604.299 29.5822C604.749 29.2905 605.301 29.0364 605.948 28.82C606.607 28.6036 607.371 28.4295 608.241 28.2978C609.112 28.1566 610.102 28.072 611.221 28.0437V27.1969C611.221 26.2277 611.012 25.5126 610.591 25.0515C610.17 24.581 609.565 24.3458 608.772 24.3458C608.199 24.3458 607.721 24.4117 607.339 24.5434C606.967 24.6751 606.635 24.8257 606.352 24.995C606.065 25.155 605.8 25.3009 605.563 25.4326C605.333 25.5643 605.074 25.6302 604.788 25.6302C604.54 25.6302 604.331 25.569 604.158 25.4467C603.985 25.315 603.846 25.1644 603.744 24.995L603.111 23.88Z" fill="white"/>
</svg>
