<svg width="1651" height="311" viewBox="0 0 1651 311" fill="none" xmlns="http://www.w3.org/2000/svg">
<path d="M40.341 222.532C39.5295 224.293 39.8799 225.79 40.0086 226.34C40.0178 226.379 40.026 226.414 40.0324 226.443C40.4295 228.756 41.9852 233.84 45.5104 237.732C45.5114 237.943 45.5105 238.181 45.5078 238.441C45.4971 239.471 45.4562 240.796 45.4249 241.615L45.3098 244.622H120.549C120.937 244.72 121.346 244.768 121.776 244.768C122.34 244.768 122.903 244.72 123.467 244.622H139.579L139.464 241.615C139.439 240.97 139.409 240.009 139.392 239.127L139.954 238.933H139.388C139.385 238.764 139.383 238.599 139.381 238.441C139.378 238.181 139.377 237.943 139.378 237.732C142.904 233.84 144.459 228.756 144.857 226.443C144.863 226.414 144.871 226.379 144.88 226.34C145.009 225.79 145.359 224.293 144.548 222.532C143.596 220.466 141.854 219.233 140.626 218.395C139.221 217.436 137.759 216.738 136.738 216.352C128.525 212.646 123.62 209.921 120.818 208.161C119.412 207.277 118.554 206.648 118.082 206.271C117.924 206.145 117.829 206.054 117.72 205.949L117.716 205.945L117.579 205.807C113.639 201.856 110.492 195.032 108.191 187.702C105.949 180.56 104.642 173.375 104.122 168.924V167.171L104.087 166.948C103.982 166.264 104.274 165.09 105.2 163.557C106.065 162.127 107.2 160.854 107.94 160.16C109.249 158.963 111.464 157.621 113.905 156.271C117.216 154.986 119.465 153.894 120.955 153.008C121.71 152.558 122.327 152.128 122.804 151.713C123.042 151.506 123.287 151.266 123.506 150.993C123.671 150.786 123.961 150.392 124.135 149.845C124.409 149.026 124.442 147.927 124.226 146.78L124.133 146.283L123.875 145.847C122.695 143.853 120.657 143.256 119.471 143.213C114.184 142.866 110.629 142.32 108.273 141.733C107.576 141.559 107.007 141.387 106.546 141.226C109.721 139.383 112.215 136.888 114.087 134.431C116.508 131.254 118.024 127.968 118.699 125.788L118.74 125.654L118.768 125.519C121.34 113.245 117.658 104.627 111.658 99.0343C105.906 93.6725 98.3225 91.0223 92.3967 91.0223C86.2568 91.0223 78.9658 93.6887 73.2306 99.0343C67.2308 104.627 63.5487 113.245 66.1205 125.519L66.1489 125.654L66.1898 125.787C66.8644 127.967 68.3802 131.253 70.8023 134.431C72.6744 136.888 75.1678 139.383 78.3426 141.226C77.8817 141.387 77.3132 141.559 76.6156 141.733C74.2603 142.32 70.7053 142.866 65.4179 143.213C64.2318 143.256 62.1935 143.853 61.0137 145.847L60.7558 146.283L60.6626 146.78C60.447 147.927 60.4802 149.026 60.7537 149.845C60.9283 150.392 61.2174 150.786 61.3833 150.993C61.6016 151.266 61.8472 151.506 62.0848 151.713C62.5616 152.128 63.179 152.558 63.934 153.008C65.4237 153.894 67.6728 154.986 70.9838 156.271C73.4248 157.621 75.6397 158.963 76.9487 160.16C77.689 160.854 78.8236 162.127 79.6886 163.557C80.6158 165.09 80.907 166.265 80.8015 166.949L80.767 167.172V168.924C80.2469 173.375 78.9397 180.56 76.6977 187.702C74.3966 195.032 71.2499 201.856 67.3104 205.807L67.1734 205.945L67.1693 205.949C67.0599 206.054 66.9648 206.145 66.807 206.271C66.3349 206.648 65.4764 207.277 64.0707 208.161C61.2692 209.921 56.3639 212.646 48.1509 216.352C47.1301 216.738 45.668 217.436 44.2627 218.395C43.0344 219.233 41.293 220.466 40.341 222.532Z" fill="white"/>
<path fill-rule="evenodd" clip-rule="evenodd" d="M160.025 212.369L163.396 174.63L193.428 237.285C193.697 237.818 193.999 238.483 194.335 239.281C194.738 240.146 195.242 240.977 195.846 241.775C196.451 242.573 197.19 243.238 198.064 243.771C198.937 244.369 199.978 244.668 201.188 244.668C201.792 244.668 202.431 244.569 203.102 244.369C203.841 244.236 204.614 243.937 205.42 243.471C208.511 241.808 211.265 240.378 213.684 239.181C216.17 237.984 218.42 236.953 220.436 236.088C222.451 235.157 224.333 234.326 226.079 233.594C227.826 232.862 229.506 232.097 231.118 231.299C231.924 230.9 233.067 230.368 234.545 229.703C236.09 229.038 237.601 228.339 239.08 227.608C240.558 226.876 241.834 226.178 242.909 225.513C244.051 224.781 244.622 224.149 244.622 223.617C244.622 222.885 244.186 222.486 243.312 222.42C242.439 222.287 241.364 222.22 240.087 222.22C238.811 222.154 237.434 222.021 235.955 221.821C234.477 221.555 233.167 220.923 232.025 219.925C228.532 214.804 225.441 210.015 222.754 205.559C220.066 201.102 217.681 197.078 215.599 193.486C213.583 189.828 211.836 186.669 210.358 184.008C208.88 181.348 207.604 179.219 206.529 177.623C205.521 175.827 204.681 174.43 204.009 173.433C203.405 172.368 202.934 171.57 202.598 171.038C202.263 170.439 202.027 170.04 201.893 169.841C201.826 169.641 201.792 169.475 201.792 169.342C202.464 169.076 203.741 168.511 205.622 167.646C207.503 166.715 209.653 165.484 212.071 163.954C214.557 162.425 217.144 160.595 219.831 158.467C222.519 156.272 224.971 153.778 227.188 150.984C229.472 148.124 231.32 144.931 232.731 141.406C234.209 137.881 234.948 134.023 234.948 129.833C234.948 122.25 233.369 115.998 230.211 111.076C227.121 106.088 222.989 102.163 217.816 99.3032C212.71 96.3767 206.831 94.3147 200.18 93.1175C193.596 91.8537 186.81 91.1553 179.823 91.0223C173.642 91.0223 167.797 91.2551 162.288 91.7207C156.779 92.1198 151.572 92.6519 146.668 93.317C142.043 93.9442 137.687 94.6601 133.6 95.4647C138.355 101.034 140.946 109.013 138.679 119.83L138.651 119.965L138.61 120.099C137.935 122.279 136.419 125.565 133.998 128.742C132.126 131.199 129.632 133.694 126.457 135.537C126.918 135.698 127.487 135.87 128.184 136.044C130.54 136.631 134.095 137.177 139.382 137.524C140.568 137.567 142.607 138.164 143.786 140.158L144.044 140.594L144.137 141.091C144.353 142.238 144.32 143.337 144.046 144.156C143.872 144.703 143.583 145.097 143.417 145.305C143.198 145.577 142.953 145.817 142.715 146.024C142.238 146.439 141.621 146.869 140.866 147.319C139.376 148.206 137.127 149.297 133.816 150.582C131.375 151.932 129.16 153.274 127.851 154.471C127.111 155.165 125.976 156.438 125.111 157.868C124.637 158.654 124.329 159.345 124.155 159.924L124.029 161.455L124.033 161.483V163.235C124.553 167.687 125.86 174.871 128.102 182.013C130.403 189.343 133.55 196.167 137.49 200.118L137.627 200.256L137.631 200.26C137.74 200.365 137.835 200.456 137.993 200.582C138.465 200.959 139.324 201.588 140.729 202.472C143.531 204.232 148.436 206.957 156.649 210.664C157.546 211.003 158.784 211.583 160.025 212.369ZM175.288 159.764C171.593 161.493 168.032 162.358 164.606 162.358L168.637 119.956C169.846 119.823 171.19 119.623 172.668 119.357C174.146 119.024 175.993 118.858 178.211 118.858C189.901 118.858 195.746 123.68 195.746 133.325C195.746 136.85 194.771 140.342 192.823 143.801C190.875 147.259 188.389 150.352 185.366 153.079C182.342 155.806 178.983 158.035 175.288 159.764Z" fill="white"/>
<path fill-rule="evenodd" clip-rule="evenodd" d="M62.5778 25.6001H227.185C226.228 28.8136 225.535 32.1405 225.13 35.5557C224.853 37.8875 224.711 40.2605 224.711 42.6668C224.711 75.6566 251.455 102.4 284.444 102.4V247.467C284.444 282.028 256.427 310.045 221.867 310.045H0V88.1779C0 53.6171 28.017 25.6001 62.5778 25.6001ZM62.5778 35.5557H215.115C214.877 37.8956 214.756 40.2681 214.756 42.6668C214.756 77.7748 240.717 106.819 274.489 111.65V247.467C274.489 276.529 250.929 300.089 221.867 300.089H9.95556V88.1779C9.95556 59.1154 33.5153 35.5557 62.5778 35.5557Z" fill="white"/>
<circle cx="284.444" cy="42.6667" r="42.6667" fill="#FF32A1"/>
<path d="M398.299 226.898C402.782 226.898 406.685 226.549 410.009 225.853C413.332 225.156 416.192 224.266 418.588 223.182C421.061 222.098 423.148 220.937 424.848 219.698C426.548 218.459 428.056 217.298 429.37 216.214C430.761 215.131 431.959 214.24 432.963 213.543C434.046 212.847 435.166 212.498 436.326 212.498C437.408 212.498 438.296 212.692 438.992 213.079C439.765 213.466 440.345 213.892 440.731 214.356L452.44 228.756C445.175 237.272 436.557 243.775 426.587 248.265C416.617 252.755 405.255 255 392.503 255C382.069 255 372.755 253.142 364.563 249.426C356.447 245.71 349.607 240.601 344.042 234.098C338.477 227.517 334.227 219.775 331.29 210.873C328.43 201.892 327 192.138 327 181.609C327 171.932 328.043 162.797 330.13 154.204C332.294 145.533 335.309 137.559 339.173 130.282C343.038 122.927 347.675 116.308 353.085 110.425C358.573 104.541 364.64 99.5864 371.287 95.5607C378.011 91.4576 385.199 88.3223 392.85 86.1546C400.502 83.9095 408.501 82.787 416.849 82.787C423.032 82.787 428.674 83.3676 433.775 84.5289C438.876 85.6901 443.513 87.3159 447.687 89.4061C451.861 91.4189 455.571 93.8963 458.817 96.8381C462.14 99.7025 465.077 102.877 467.628 106.36L455.918 120.179C455.068 121.186 454.063 122.076 452.904 122.85C451.822 123.624 450.392 124.011 448.615 124.011C446.837 124.011 445.175 123.353 443.629 122.037C442.084 120.644 440.19 119.173 437.949 117.624C435.707 115.999 432.809 114.528 429.254 113.212C425.698 111.818 421.022 111.121 415.226 111.121C407.574 111.121 400.463 112.708 393.894 115.883C387.324 119.057 381.605 123.585 376.736 129.469C371.944 135.275 368.156 142.359 365.374 150.72C362.669 159.081 361.316 168.448 361.316 178.822C361.316 186.409 362.244 193.183 364.099 199.144C365.954 205.028 368.543 210.06 371.866 214.24C375.19 218.343 379.093 221.479 383.576 223.646C388.058 225.814 392.966 226.898 398.299 226.898Z" fill="white"/>
<path d="M509.976 151.533C515.618 144.72 521.647 139.688 528.062 136.437C534.554 133.185 541.201 131.559 548.002 131.559C553.026 131.559 557.548 132.566 561.567 134.579C565.663 136.591 569.025 139.533 571.653 143.404C574.358 147.275 576.252 152.036 577.334 157.687C578.416 163.339 578.493 169.803 577.566 177.08L568.523 253.142H536.641L545.568 177.08C546.495 169.881 546.147 164.771 544.524 161.752C542.901 158.655 539.964 157.107 535.713 157.107C533.008 157.107 530.187 157.881 527.25 159.429C524.391 160.978 521.569 163.223 518.787 166.165C516.082 169.029 513.57 172.513 511.251 176.616C508.933 180.641 506.962 185.17 505.339 190.202L497.687 253.142H465.689L486.673 80H518.671L509.976 151.533Z" fill="white"/>
<path d="M655.218 153.739C651.817 153.739 648.609 154.475 645.595 155.946C642.581 157.339 639.837 159.352 637.364 161.984C634.968 164.539 632.842 167.635 630.987 171.274C629.132 174.913 627.625 178.977 626.466 183.467C635.045 182.228 641.962 180.912 647.218 179.519C652.551 178.048 656.647 176.5 659.507 174.874C662.444 173.171 664.376 171.351 665.304 169.416C666.309 167.481 666.811 165.39 666.811 163.145C666.811 162.061 666.579 160.978 666.115 159.894C665.652 158.733 664.956 157.726 664.029 156.875C663.101 155.946 661.903 155.21 660.435 154.668C658.966 154.049 657.227 153.739 655.218 153.739ZM623.915 204.021C623.915 221.75 631.374 230.614 646.291 230.614C651.237 230.614 655.256 229.994 658.348 228.756C661.517 227.44 664.222 226.046 666.463 224.575C668.705 223.027 670.753 221.633 672.608 220.395C674.54 219.079 676.743 218.421 679.216 218.421C680.298 218.421 681.303 218.692 682.23 219.234C683.235 219.698 684.124 220.356 684.897 221.208L693.012 230.962C688.838 235.143 684.781 238.743 680.839 241.762C676.897 244.704 672.801 247.181 668.55 249.194C664.299 251.129 659.855 252.561 655.218 253.49C650.58 254.419 645.479 254.884 639.914 254.884C632.881 254.884 626.466 253.684 620.669 251.284C614.873 248.884 609.887 245.516 605.714 241.181C601.618 236.768 598.41 231.504 596.091 225.388C593.85 219.195 592.729 212.305 592.729 204.718C592.729 198.37 593.425 192.177 594.816 186.138C596.207 180.1 598.217 174.371 600.845 168.952C603.472 163.532 606.641 158.578 610.351 154.088C614.138 149.52 618.428 145.61 623.22 142.359C628.012 139.03 633.229 136.437 638.871 134.579C644.59 132.721 650.658 131.792 657.073 131.792C663.333 131.792 668.859 132.721 673.651 134.579C678.52 136.359 682.578 138.72 685.824 141.662C689.07 144.527 691.505 147.739 693.128 151.301C694.828 154.862 695.678 158.423 695.678 161.984C695.678 167.326 694.596 172.242 692.432 176.732C690.268 181.222 686.481 185.248 681.071 188.809C675.661 192.293 668.318 195.312 659.043 197.867C649.769 200.344 638.059 202.279 623.915 203.673V204.021Z" fill="white"/>
<path d="M786.741 157.107C785.813 158.423 784.886 159.391 783.958 160.01C783.108 160.552 782.026 160.823 780.712 160.823C779.244 160.823 777.775 160.436 776.307 159.662C774.916 158.887 773.331 158.075 771.554 157.223C769.776 156.294 767.728 155.442 765.409 154.668C763.168 153.894 760.501 153.507 757.41 153.507C751.613 153.507 747.285 154.746 744.425 157.223C741.643 159.7 740.251 162.797 740.251 166.513C740.251 169.532 741.372 171.971 743.613 173.829C745.855 175.609 748.676 177.235 752.077 178.706C755.477 180.1 759.149 181.532 763.09 183.003C767.032 184.474 770.703 186.37 774.104 188.693C777.505 191.015 780.326 193.996 782.567 197.634C784.809 201.273 785.929 205.918 785.929 211.569C785.929 217.453 784.77 223.027 782.451 228.291C780.133 233.556 776.771 238.162 772.365 242.11C768.037 246.058 762.781 249.194 756.598 251.516C750.415 253.839 743.498 255 735.846 255C732.059 255 728.349 254.613 724.716 253.839C721.161 253.142 717.76 252.136 714.514 250.82C711.345 249.426 708.447 247.839 705.819 246.058C703.269 244.278 701.104 242.342 699.327 240.252L707.21 228.291C708.138 226.898 709.258 225.814 710.572 225.04C711.886 224.266 713.471 223.879 715.326 223.879C717.026 223.879 718.572 224.382 719.963 225.388C721.354 226.317 722.9 227.362 724.6 228.524C726.301 229.607 728.31 230.653 730.629 231.659C733.025 232.588 736.116 233.052 739.904 233.052C742.763 233.052 745.275 232.704 747.439 232.007C749.681 231.233 751.536 230.227 753.004 228.988C754.55 227.672 755.671 226.162 756.366 224.459C757.139 222.756 757.526 220.975 757.526 219.117C757.526 215.711 756.405 213.079 754.163 211.221C751.922 209.363 749.101 207.737 745.7 206.344C742.377 204.95 738.744 203.595 734.802 202.279C730.861 200.963 727.19 199.183 723.789 196.938C720.465 194.693 717.683 191.789 715.442 188.228C713.2 184.667 712.079 179.906 712.079 173.945C712.079 168.526 713.084 163.3 715.094 158.268C717.181 153.159 720.195 148.63 724.137 144.681C728.078 140.733 732.948 137.559 738.744 135.159C744.618 132.759 751.381 131.559 759.033 131.559C766.839 131.559 773.756 132.914 779.785 135.624C785.891 138.256 790.953 141.624 794.972 145.727L786.741 157.107Z" fill="white"/>
<path d="M881.163 157.107C880.236 158.423 879.309 159.391 878.381 160.01C877.531 160.552 876.449 160.823 875.135 160.823C873.666 160.823 872.198 160.436 870.729 159.662C869.338 158.887 867.754 158.075 865.976 157.223C864.198 156.294 862.15 155.442 859.832 154.668C857.59 153.894 854.924 153.507 851.832 153.507C846.036 153.507 841.707 154.746 838.848 157.223C836.065 159.7 834.674 162.797 834.674 166.513C834.674 169.532 835.795 171.971 838.036 173.829C840.277 175.609 843.099 177.235 846.499 178.706C849.9 180.1 853.571 181.532 857.513 183.003C861.455 184.474 865.126 186.37 868.527 188.693C871.927 191.015 874.748 193.996 876.99 197.634C879.231 201.273 880.352 205.918 880.352 211.569C880.352 217.453 879.193 223.027 876.874 228.291C874.555 233.556 871.193 238.162 866.788 242.11C862.459 246.058 857.204 249.194 851.021 251.516C844.838 253.839 837.92 255 830.269 255C826.481 255 822.771 254.613 819.139 253.839C815.584 253.142 812.183 252.136 808.937 250.82C805.768 249.426 802.87 247.839 800.242 246.058C797.691 244.278 795.527 242.342 793.749 240.252L801.633 228.291C802.56 226.898 803.681 225.814 804.995 225.04C806.309 224.266 807.893 223.879 809.748 223.879C811.449 223.879 812.994 224.382 814.386 225.388C815.777 226.317 817.323 227.362 819.023 228.524C820.723 229.607 822.733 230.653 825.052 231.659C827.447 232.588 830.539 233.052 834.326 233.052C837.186 233.052 839.698 232.704 841.862 232.007C844.103 231.233 845.958 230.227 847.427 228.988C848.973 227.672 850.093 226.162 850.789 224.459C851.562 222.756 851.948 220.975 851.948 219.117C851.948 215.711 850.827 213.079 848.586 211.221C846.345 209.363 843.524 207.737 840.123 206.344C836.799 204.95 833.167 203.595 829.225 202.279C825.283 200.963 821.612 199.183 818.211 196.938C814.888 194.693 812.106 191.789 809.864 188.228C807.623 184.667 806.502 179.906 806.502 173.945C806.502 168.526 807.507 163.3 809.516 158.268C811.603 153.159 814.617 148.63 818.559 144.681C822.501 140.733 827.37 137.559 833.167 135.159C839.041 132.759 845.804 131.559 853.455 131.559C861.261 131.559 868.179 132.914 874.207 135.624C880.313 138.256 885.376 141.624 889.395 145.727L881.163 157.107Z" fill="white"/>
<path d="M935.821 160.126C938.835 154.552 942.004 149.791 945.327 145.843C948.728 141.894 952.245 138.837 955.877 136.669C959.51 134.424 963.22 133.146 967.007 132.837C970.794 132.45 974.62 133.108 978.484 134.811L972.688 164.887C968.128 162.952 963.838 162.139 959.819 162.449C955.877 162.758 952.206 164.307 948.805 167.094C945.482 169.881 942.468 173.945 939.763 179.287C937.057 184.628 934.7 191.364 932.691 199.492L926.198 253.142H894.78L909.272 133.301H925.735C929.058 133.301 931.647 134.114 933.502 135.74C935.357 137.366 936.285 139.959 936.285 143.52L935.821 160.126Z" fill="white"/>
<path d="M1025.82 230.846C1030.3 230.846 1034.32 229.53 1037.87 226.898C1041.43 224.266 1044.44 220.743 1046.92 216.33C1049.39 211.84 1051.28 206.653 1052.6 200.77C1053.99 194.886 1054.68 188.654 1054.68 182.074C1054.68 172.784 1053.25 166.087 1050.39 161.984C1047.53 157.804 1043.09 155.713 1037.06 155.713C1032.66 155.713 1028.64 157.029 1025 159.662C1021.45 162.216 1018.44 165.7 1015.96 170.113C1013.49 174.526 1011.56 179.712 1010.17 185.674C1008.85 191.557 1008.19 197.789 1008.19 204.37C1008.19 213.505 1009.62 220.201 1012.48 224.459C1015.34 228.717 1019.79 230.846 1025.82 230.846ZM1023.03 254.884C1016.39 254.884 1010.2 253.8 1004.48 251.632C998.765 249.387 993.818 246.136 989.645 241.878C985.471 237.62 982.186 232.356 979.791 226.085C977.472 219.814 976.312 212.653 976.312 204.602C976.312 194.151 978.013 184.474 981.414 175.571C984.814 166.59 989.413 158.849 995.21 152.346C1001.01 145.843 1007.77 140.772 1015.5 137.133C1023.23 133.417 1031.38 131.559 1039.96 131.559C1046.61 131.559 1052.75 132.682 1058.39 134.927C1064.11 137.095 1069.06 140.346 1073.23 144.681C1077.41 148.939 1080.69 154.204 1083.09 160.474C1085.48 166.745 1086.68 173.906 1086.68 181.958C1086.68 192.331 1084.98 201.97 1081.58 210.873C1078.18 219.775 1073.54 227.478 1067.67 233.981C1061.87 240.484 1055.11 245.594 1047.38 249.31C1039.73 253.026 1031.61 254.884 1023.03 254.884Z" fill="white"/>
<path d="M1213.6 133.417L1199.11 253.142H1182.88C1175.31 253.142 1171.52 249.542 1171.52 242.342L1171.87 231.543C1165.99 239.439 1159.58 245.323 1152.62 249.194C1145.74 252.987 1138.59 254.884 1131.17 254.884C1126.15 254.884 1121.63 253.877 1117.61 251.865C1113.59 249.852 1110.27 246.91 1107.64 243.039C1105.01 239.168 1103.16 234.446 1102.08 228.872C1100.99 223.221 1100.92 216.756 1101.84 209.479L1110.77 133.417H1142.77L1133.73 209.479C1132.88 216.679 1133.22 221.788 1134.77 224.808C1136.39 227.749 1139.29 229.22 1143.46 229.22C1146.25 229.22 1149.11 228.446 1152.04 226.898C1155.06 225.272 1157.92 222.988 1160.62 220.046C1163.4 217.105 1165.95 213.582 1168.27 209.479C1170.67 205.299 1172.64 200.654 1174.19 195.544L1181.72 133.417H1213.6Z" fill="white"/>
<path d="M1224.25 253.142L1245.23 80H1276.76L1255.66 253.142H1224.25Z" fill="white"/>
<path d="M1343.57 153.739C1340.17 153.739 1336.97 154.475 1333.95 155.946C1330.94 157.339 1328.19 159.352 1325.72 161.984C1323.32 164.539 1321.2 167.635 1319.34 171.274C1317.49 174.913 1315.98 178.977 1314.82 183.467C1323.4 182.228 1330.32 180.912 1335.58 179.519C1340.91 178.048 1345 176.5 1347.86 174.874C1350.8 173.171 1352.73 171.351 1353.66 169.416C1354.67 167.481 1355.17 165.39 1355.17 163.145C1355.17 162.061 1354.94 160.978 1354.47 159.894C1354.01 158.733 1353.31 157.726 1352.39 156.875C1351.46 155.946 1350.26 155.21 1348.79 154.668C1347.32 154.049 1345.58 153.739 1343.57 153.739ZM1312.27 204.021C1312.27 221.75 1319.73 230.614 1334.65 230.614C1339.59 230.614 1343.61 229.994 1346.7 228.756C1349.87 227.44 1352.58 226.046 1354.82 224.575C1357.06 223.027 1359.11 221.633 1360.96 220.395C1362.9 219.079 1365.1 218.421 1367.57 218.421C1368.65 218.421 1369.66 218.692 1370.59 219.234C1371.59 219.698 1372.48 220.356 1373.25 221.208L1381.37 230.962C1377.2 235.143 1373.14 238.743 1369.2 241.762C1365.25 244.704 1361.16 247.181 1356.91 249.194C1352.66 251.129 1348.21 252.561 1343.57 253.49C1338.94 254.419 1333.84 254.884 1328.27 254.884C1321.24 254.884 1314.82 253.684 1309.03 251.284C1303.23 248.884 1298.24 245.516 1294.07 241.181C1289.97 236.768 1286.77 231.504 1284.45 225.388C1282.21 219.195 1281.09 212.305 1281.09 204.718C1281.09 198.37 1281.78 192.177 1283.17 186.138C1284.56 180.1 1286.57 174.371 1289.2 168.952C1291.83 163.532 1295 158.578 1298.71 154.088C1302.5 149.52 1306.78 145.61 1311.58 142.359C1316.37 139.03 1321.59 136.437 1327.23 134.579C1332.95 132.721 1339.01 131.792 1345.43 131.792C1351.69 131.792 1357.22 132.721 1362.01 134.579C1366.88 136.359 1370.93 138.72 1374.18 141.662C1377.43 144.527 1379.86 147.739 1381.48 151.301C1383.19 154.862 1384.04 158.423 1384.04 161.984C1384.04 167.326 1382.95 172.242 1380.79 176.732C1378.62 181.222 1374.84 185.248 1369.43 188.809C1364.02 192.293 1356.67 195.312 1347.4 197.867C1338.13 200.344 1326.42 202.279 1312.27 203.673V204.021Z" fill="white"/>
<path d="M1403.48 228.059C1403.48 227.517 1403.48 226.898 1403.48 226.201C1403.48 225.427 1403.52 224.343 1403.59 222.95C1403.75 221.479 1403.94 219.582 1404.17 217.259C1404.48 214.86 1404.87 211.763 1405.33 207.969L1411.82 155.946H1401.85C1400.23 155.946 1398.92 155.442 1397.91 154.436C1396.91 153.352 1396.52 151.765 1396.75 149.675L1398.38 137.598L1416 134.23L1425.97 102.877C1427.21 99.3928 1429.56 97.651 1433.04 97.651H1450.31L1445.68 134.346H1487.53L1497.5 102.877C1498.74 99.3928 1501.13 97.651 1504.69 97.651H1521.85L1517.32 134.346H1544.92L1542.13 155.946H1514.66L1508.51 206.228C1508.13 209.402 1507.82 211.918 1507.59 213.776C1507.35 215.634 1507.16 217.066 1507.01 218.072C1506.93 219.079 1506.85 219.775 1506.77 220.163C1506.77 220.472 1506.77 220.704 1506.77 220.859C1506.77 223.569 1507.39 225.737 1508.63 227.362C1509.94 228.911 1511.84 229.685 1514.31 229.685C1515.7 229.685 1516.9 229.53 1517.9 229.22C1518.91 228.833 1519.76 228.446 1520.45 228.059C1521.23 227.595 1521.92 227.207 1522.54 226.898C1523.16 226.511 1523.82 226.317 1524.51 226.317C1525.44 226.317 1526.17 226.549 1526.72 227.014C1527.26 227.401 1527.72 228.098 1528.11 229.104L1535.06 244.433C1530.5 247.916 1525.56 250.549 1520.22 252.329C1514.97 254.11 1509.63 255 1504.22 255C1495.34 255 1488.34 252.639 1483.24 247.916C1478.14 243.117 1475.43 236.497 1475.12 228.059C1475.12 227.517 1475.12 226.898 1475.12 226.201C1475.12 225.427 1475.16 224.343 1475.24 222.95C1475.4 221.479 1475.59 219.582 1475.82 217.259C1476.13 214.86 1476.52 211.763 1476.98 207.969L1483.36 155.946H1443.01L1436.87 206.228C1436.48 209.402 1436.17 211.918 1435.94 213.776C1435.71 215.634 1435.51 217.066 1435.36 218.072C1435.28 219.079 1435.24 219.775 1435.24 220.163C1435.24 220.472 1435.24 220.704 1435.24 220.859C1435.24 223.569 1435.86 225.737 1437.1 227.362C1438.34 228.911 1440.19 229.685 1442.66 229.685C1444.13 229.685 1445.37 229.53 1446.37 229.22C1447.38 228.833 1448.23 228.446 1448.92 228.059C1449.7 227.595 1450.39 227.207 1451.01 226.898C1451.63 226.511 1452.25 226.317 1452.87 226.317C1453.87 226.317 1454.6 226.549 1455.07 227.014C1455.61 227.401 1456.07 228.098 1456.46 229.104L1463.42 244.433C1458.93 247.916 1454.02 250.549 1448.69 252.329C1443.36 254.11 1438.03 255 1432.69 255C1423.8 255 1416.77 252.639 1411.59 247.916C1406.49 243.117 1403.79 236.497 1403.48 228.059Z" fill="white"/>
<path d="M1610.54 153.739C1607.14 153.739 1603.93 154.475 1600.92 155.946C1597.9 157.339 1595.16 159.352 1592.69 161.984C1590.29 164.539 1588.16 167.635 1586.31 171.274C1584.45 174.913 1582.95 178.977 1581.79 183.467C1590.37 182.228 1597.28 180.912 1602.54 179.519C1607.87 178.048 1611.97 176.5 1614.83 174.874C1617.77 173.171 1619.7 171.351 1620.63 169.416C1621.63 167.481 1622.13 165.39 1622.13 163.145C1622.13 162.061 1621.9 160.978 1621.44 159.894C1620.97 158.733 1620.28 157.726 1619.35 156.875C1618.42 155.946 1617.22 155.21 1615.76 154.668C1614.29 154.049 1612.55 153.739 1610.54 153.739ZM1579.24 204.021C1579.24 221.75 1586.7 230.614 1601.61 230.614C1606.56 230.614 1610.58 229.994 1613.67 228.756C1616.84 227.44 1619.54 226.046 1621.78 224.575C1624.03 223.027 1626.07 221.633 1627.93 220.395C1629.86 219.079 1632.06 218.421 1634.54 218.421C1635.62 218.421 1636.62 218.692 1637.55 219.234C1638.56 219.698 1639.45 220.356 1640.22 221.208L1648.33 230.962C1644.16 235.143 1640.1 238.743 1636.16 241.762C1632.22 244.704 1628.12 247.181 1623.87 249.194C1619.62 251.129 1615.18 252.561 1610.54 253.49C1605.9 254.419 1600.8 254.884 1595.24 254.884C1588.2 254.884 1581.79 253.684 1575.99 251.284C1570.19 248.884 1565.21 245.516 1561.04 241.181C1556.94 236.768 1553.73 231.504 1551.41 225.388C1549.17 219.195 1548.05 212.305 1548.05 204.718C1548.05 198.37 1548.75 192.177 1550.14 186.138C1551.53 180.1 1553.54 174.371 1556.17 168.952C1558.79 163.532 1561.96 158.578 1565.67 154.088C1569.46 149.52 1573.75 145.61 1578.54 142.359C1583.33 139.03 1588.55 136.437 1594.19 134.579C1599.91 132.721 1605.98 131.792 1612.39 131.792C1618.65 131.792 1624.18 132.721 1628.97 134.579C1633.84 136.359 1637.9 138.72 1641.15 141.662C1644.39 144.527 1646.83 147.739 1648.45 151.301C1650.15 154.862 1651 158.423 1651 161.984C1651 167.326 1649.92 172.242 1647.75 176.732C1645.59 181.222 1641.8 185.248 1636.39 188.809C1630.98 192.293 1623.64 195.312 1614.36 197.867C1605.09 200.344 1593.38 202.279 1579.24 203.673V204.021Z" fill="white"/>
</svg>
