<svg width="362" height="345" viewBox="0 0 362 345" fill="none" xmlns="http://www.w3.org/2000/svg">
<path d="M252.328 45.0242L255.58 34.0996H244.182H81C40.9594 34.0996 8.5 66.559 8.5 106.6V327.04V335.54H17H237.44C277.481 335.54 309.94 303.081 309.94 263.04V119.399V110.899H301.44C273.145 110.899 250.208 87.961 250.208 59.6661C250.208 54.5654 250.951 49.6533 252.328 45.0242Z" fill="#5A20FE" stroke="white" stroke-width="17"/>
<path d="M57.0081 243.337C57.0173 243.376 57.0254 243.411 57.0318 243.44C57.4289 245.753 58.9846 250.836 62.5098 254.729C62.5108 254.94 62.5098 255.178 62.5071 255.438C62.4964 256.468 62.4555 257.793 62.4242 258.611L62.3091 261.619H137.548C137.935 261.716 138.344 261.765 138.774 261.765C139.338 261.765 139.902 261.716 140.465 261.619H156.577L156.462 258.611C156.437 257.966 156.407 257.006 156.39 256.124L156.952 255.93H156.386C156.383 255.761 156.381 255.596 156.379 255.438C156.376 255.178 156.375 254.94 156.376 254.729C159.902 250.836 161.457 245.752 161.854 243.44C161.861 243.411 161.869 243.376 161.878 243.337C162.007 242.787 162.357 241.29 161.546 239.529C160.594 237.463 158.852 236.23 157.624 235.392C156.219 234.433 154.757 233.735 153.736 233.349C145.523 229.643 140.618 226.918 137.816 225.158C136.411 224.274 135.552 223.645 135.08 223.268C134.922 223.142 134.827 223.051 134.718 222.946L134.714 222.942L134.577 222.804C130.637 218.853 127.491 212.029 125.19 204.699C122.948 197.557 121.64 190.373 121.12 185.922V184.169L121.086 183.946C120.981 183.262 121.272 182.087 122.199 180.555C123.064 179.124 124.198 177.851 124.939 177.158C126.248 175.96 128.463 174.619 130.903 173.268C134.214 171.984 136.463 170.892 137.953 170.005C138.708 169.556 139.326 169.125 139.802 168.71C140.04 168.504 140.285 168.264 140.504 167.991C140.67 167.784 140.959 167.39 141.133 166.843C141.407 166.024 141.44 164.925 141.225 163.778L141.131 163.281L140.873 162.845C139.694 160.85 137.655 160.254 136.469 160.211C131.182 159.864 127.627 159.318 125.272 158.731C124.574 158.557 124.006 158.385 123.545 158.223C126.72 156.381 129.213 153.886 131.085 151.429C133.507 148.252 135.022 144.966 135.697 142.786L135.738 142.652L135.767 142.517C138.338 130.244 134.656 121.625 128.657 116.033C122.904 110.671 115.321 108.021 109.395 108.021C103.256 108.021 95.9647 110.687 90.2296 116.033C84.2299 121.625 80.5477 130.244 83.1195 142.517L83.1479 142.652L83.1889 142.785C83.8634 144.965 85.3792 148.251 87.8012 151.429C89.6733 153.886 92.1667 156.381 95.3415 158.223C94.8805 158.385 94.3121 158.557 93.6145 158.731C91.2592 159.318 87.7042 159.864 82.417 160.211C81.2309 160.254 79.1926 160.85 78.0128 162.845L77.7549 163.281L77.6617 163.778C77.4461 164.925 77.4793 166.024 77.7528 166.843C77.9274 167.389 78.2165 167.784 78.3824 167.991C78.6007 168.264 78.8463 168.504 79.0839 168.71C79.5607 169.125 80.1781 169.556 80.9331 170.005C82.4227 170.892 84.6718 171.984 87.9828 173.268C90.4237 174.619 92.6387 175.96 93.9476 177.158C94.6879 177.851 95.8224 179.124 96.6875 180.555C97.6147 182.088 97.9058 183.262 97.8003 183.946L97.7659 184.17V185.922C97.2458 190.373 95.9386 197.557 93.6966 204.699C91.3955 212.029 88.2488 218.853 84.3094 222.804L84.1724 222.942L84.1683 222.946C84.059 223.051 83.9638 223.142 83.806 223.268C83.3339 223.645 82.4755 224.274 81.0697 225.158C78.2684 226.918 73.3631 229.643 65.1502 233.349C64.1294 233.735 62.6674 234.433 61.262 235.392C60.0338 236.23 58.2924 237.463 57.3405 239.529C56.529 241.29 56.8794 242.787 57.0081 243.337Z" fill="white"/>
<path fill-rule="evenodd" clip-rule="evenodd" d="M180.394 191.627L177.022 229.366C175.782 228.58 174.544 228 173.647 227.661C165.434 223.954 160.529 221.229 157.727 219.469C156.322 218.586 155.463 217.956 154.991 217.579C154.833 217.453 154.738 217.362 154.629 217.257L154.625 217.253L154.488 217.116C150.548 213.164 147.402 206.341 145.1 199.01C142.858 191.868 141.551 184.684 141.031 180.233V178.48L141.027 178.452L141.153 176.922C141.327 176.343 141.635 175.651 142.11 174.866C142.975 173.436 144.109 172.162 144.85 171.469C146.159 170.272 148.373 168.93 150.814 167.58C154.125 166.295 156.374 165.203 157.864 164.317C158.619 163.867 159.236 163.437 159.713 163.022C159.951 162.815 160.196 162.575 160.415 162.303C160.58 162.095 160.87 161.701 161.044 161.154C161.318 160.335 161.351 159.236 161.135 158.089L161.042 157.592L160.784 157.156C159.604 155.162 157.566 154.565 156.38 154.522C151.093 154.175 147.538 153.629 145.183 153.042C144.485 152.868 143.916 152.696 143.456 152.535C146.63 150.692 149.124 148.197 150.996 145.74C153.417 142.563 154.933 139.278 155.608 137.097L155.649 136.964L155.677 136.828C157.944 126.011 155.353 118.033 150.598 112.463C154.685 111.659 159.041 110.943 163.665 110.316C168.57 109.651 173.777 109.118 179.286 108.719C184.795 108.254 190.64 108.021 196.82 108.021C203.807 108.154 210.593 108.852 217.177 110.116C223.828 111.313 229.707 113.375 234.813 116.302C239.986 119.162 244.117 123.086 247.208 128.075C250.366 132.996 251.944 139.249 251.944 146.831C251.944 151.021 251.205 154.879 249.727 158.404C248.316 161.929 246.469 165.122 244.185 167.982C241.968 170.776 239.515 173.27 236.828 175.465C234.141 177.593 231.554 179.422 229.068 180.952C226.65 182.482 224.5 183.712 222.619 184.643C220.738 185.508 219.461 186.073 218.789 186.339C218.789 186.473 218.823 186.639 218.89 186.838C219.024 187.038 219.26 187.437 219.596 188.036C219.931 188.568 220.402 189.366 221.006 190.43C221.678 191.428 222.518 192.824 223.526 194.62C224.601 196.217 225.877 198.345 227.355 201.006C228.833 203.666 230.58 206.825 232.596 210.484C234.678 214.075 237.063 218.099 239.751 222.556C242.438 227.012 245.528 231.801 249.022 236.922C250.164 237.92 251.474 238.552 252.952 238.818C254.43 239.017 255.807 239.15 257.084 239.217C258.36 239.217 259.435 239.283 260.309 239.416C261.182 239.483 261.619 239.882 261.619 240.614C261.619 241.146 261.048 241.778 259.906 242.509C258.831 243.174 257.554 243.873 256.076 244.604C254.598 245.336 253.086 246.034 251.541 246.7C250.063 247.365 248.921 247.897 248.115 248.296C246.502 249.094 244.823 249.859 243.076 250.591C241.329 251.322 239.448 252.154 237.433 253.085C235.417 253.949 233.167 254.98 230.681 256.178C228.262 257.375 225.508 258.805 222.417 260.468C221.611 260.933 220.838 261.233 220.099 261.366C219.428 261.565 218.789 261.665 218.185 261.665C216.975 261.665 215.934 261.366 215.061 260.767C214.187 260.235 213.448 259.57 212.844 258.772C212.239 257.973 211.735 257.142 211.332 256.277C210.996 255.479 210.694 254.814 210.425 254.282L180.394 191.627ZM181.603 179.356C185.03 179.356 188.59 178.491 192.286 176.762C195.981 175.032 199.34 172.804 202.363 170.077C205.386 167.35 207.872 164.257 209.82 160.799C211.769 157.34 212.743 153.848 212.743 150.323C212.743 140.679 206.898 135.856 195.208 135.856C192.991 135.856 191.143 136.023 189.665 136.355C188.187 136.621 186.844 136.821 185.634 136.954L181.603 179.356Z" fill="white"/>
<circle cx="301.44" cy="59.6661" r="51.1661" fill="#FF32A1" stroke="white" stroke-width="17"/>
</svg>
