<svg width="328" height="311" viewBox="0 0 328 311" fill="none" xmlns="http://www.w3.org/2000/svg">
<path d="M227.182 25.5996H64C28.6538 25.5996 0 54.2534 0 89.5996V310.04H220.44C255.787 310.04 284.44 281.386 284.44 246.04V102.399C251.451 102.399 224.708 75.6554 224.708 42.6661C224.708 36.7357 225.572 31.0072 227.182 25.5996Z" fill="#5A20FE"/>
<path d="M40.0081 226.337C40.0173 226.376 40.0254 226.411 40.0318 226.44C40.4289 228.753 41.9846 233.836 45.5098 237.729C45.5108 237.94 45.5098 238.178 45.5071 238.438C45.4964 239.468 45.4555 240.793 45.4242 241.611L45.3091 244.619H120.548C120.935 244.716 121.344 244.765 121.774 244.765C122.338 244.765 122.902 244.716 123.465 244.619H139.577L139.462 241.611C139.437 240.966 139.407 240.006 139.39 239.124L139.952 238.93H139.386C139.383 238.761 139.381 238.596 139.379 238.438C139.376 238.178 139.375 237.94 139.376 237.729C142.902 233.836 144.457 228.752 144.854 226.44C144.861 226.411 144.869 226.376 144.878 226.337C145.007 225.787 145.357 224.29 144.546 222.529C143.594 220.463 141.852 219.23 140.624 218.392C139.219 217.433 137.757 216.735 136.736 216.349C128.523 212.643 123.618 209.918 120.816 208.158C119.411 207.274 118.552 206.645 118.08 206.268C117.922 206.142 117.827 206.051 117.718 205.946L117.714 205.942L117.577 205.804C113.637 201.853 110.491 195.029 108.19 187.699C105.948 180.557 104.64 173.373 104.12 168.922V167.169L104.086 166.946C103.981 166.262 104.272 165.087 105.199 163.555C106.064 162.124 107.198 160.851 107.939 160.158C109.248 158.96 111.463 157.619 113.903 156.268C117.214 154.984 119.463 153.892 120.953 153.005C121.708 152.556 122.326 152.125 122.802 151.71C123.04 151.504 123.285 151.264 123.504 150.991C123.67 150.784 123.959 150.39 124.133 149.843C124.407 149.024 124.44 147.925 124.225 146.778L124.131 146.281L123.873 145.845C122.694 143.85 120.655 143.254 119.469 143.211C114.182 142.864 110.627 142.318 108.272 141.731C107.574 141.557 107.006 141.385 106.545 141.223C109.72 139.381 112.213 136.886 114.085 134.429C116.507 131.252 118.022 127.966 118.697 125.786L118.738 125.652L118.767 125.517C121.338 113.244 117.656 104.625 111.657 99.0329C105.904 93.6711 98.3211 91.021 92.3954 91.021C86.2556 91.021 78.9647 93.6873 73.2296 99.0329C67.2299 104.625 63.5477 113.244 66.1195 125.517L66.1479 125.652L66.1889 125.785C66.8634 127.965 68.3792 131.251 70.8012 134.429C72.6733 136.886 75.1667 139.381 78.3415 141.223C77.8805 141.385 77.3121 141.557 76.6145 141.731C74.2592 142.318 70.7042 142.864 65.417 143.211C64.2309 143.254 62.1926 143.85 61.0128 145.845L60.7549 146.281L60.6617 146.778C60.4461 147.925 60.4793 149.024 60.7528 149.843C60.9274 150.389 61.2165 150.784 61.3824 150.991C61.6007 151.264 61.8463 151.504 62.0839 151.71C62.5607 152.125 63.1781 152.556 63.9331 153.005C65.4227 153.892 67.6718 154.984 70.9828 156.268C73.4237 157.619 75.6387 158.96 76.9476 160.158C77.6879 160.851 78.8224 162.124 79.6875 163.555C80.6147 165.088 80.9058 166.262 80.8003 166.946L80.7659 167.17V168.922C80.2458 173.373 78.9386 180.557 76.6966 187.699C74.3955 195.029 71.2488 201.853 67.3094 205.804L67.1724 205.942L67.1683 205.946C67.059 206.051 66.9638 206.142 66.806 206.268C66.3339 206.645 65.4755 207.274 64.0697 208.158C61.2684 209.918 56.3631 212.643 48.1502 216.349C47.1294 216.735 45.6674 217.433 44.262 218.392C43.0338 219.23 41.2924 220.463 40.3405 222.529C39.529 224.29 39.8794 225.787 40.0081 226.337Z" fill="white"/>
<path fill-rule="evenodd" clip-rule="evenodd" d="M163.394 174.627L160.022 212.366C158.782 211.58 157.544 211 156.647 210.661C148.434 206.954 143.529 204.229 140.727 202.469C139.322 201.586 138.463 200.956 137.991 200.579C137.833 200.453 137.738 200.362 137.629 200.257L137.625 200.253L137.488 200.116C133.548 196.164 130.402 189.341 128.1 182.01C125.858 174.868 124.551 167.684 124.031 163.233V161.48L124.027 161.452L124.153 159.922C124.327 159.343 124.635 158.651 125.11 157.866C125.975 156.436 127.109 155.162 127.85 154.469C129.159 153.272 131.373 151.93 133.814 150.58C137.125 149.295 139.374 148.203 140.864 147.317C141.619 146.867 142.236 146.437 142.713 146.022C142.951 145.815 143.196 145.575 143.415 145.303C143.58 145.095 143.87 144.701 144.044 144.154C144.318 143.335 144.351 142.236 144.135 141.089L144.042 140.592L143.784 140.156C142.604 138.162 140.566 137.565 139.38 137.522C134.093 137.175 130.538 136.629 128.183 136.042C127.485 135.868 126.916 135.696 126.456 135.535C129.63 133.692 132.124 131.197 133.996 128.74C136.417 125.563 137.933 122.278 138.608 120.097L138.649 119.964L138.677 119.828C140.944 109.011 138.353 101.033 133.598 95.4633C137.685 94.6587 142.041 93.9428 146.665 93.3157C151.57 92.6506 156.777 92.1185 162.286 91.7194C167.795 91.2538 173.64 91.021 179.82 91.021C186.807 91.154 193.593 91.8524 200.177 93.1161C206.828 94.3134 212.707 96.3753 217.813 99.3018C222.986 102.162 227.117 106.086 230.208 111.075C233.366 115.996 234.944 122.249 234.944 129.831C234.944 134.021 234.205 137.879 232.727 141.404C231.316 144.929 229.469 148.122 227.185 150.982C224.968 153.776 222.515 156.27 219.828 158.465C217.141 160.593 214.554 162.422 212.068 163.952C209.65 165.482 207.5 166.712 205.619 167.643C203.738 168.508 202.461 169.073 201.789 169.339C201.789 169.473 201.823 169.639 201.89 169.838C202.024 170.038 202.26 170.437 202.596 171.036C202.931 171.568 203.402 172.366 204.006 173.43C204.678 174.428 205.518 175.824 206.526 177.62C207.601 179.217 208.877 181.345 210.355 184.006C211.833 186.666 213.58 189.825 215.596 193.484C217.678 197.075 220.063 201.099 222.751 205.556C225.438 210.012 228.528 214.801 232.022 219.922C233.164 220.92 234.474 221.552 235.952 221.818C237.43 222.017 238.807 222.15 240.084 222.217C241.36 222.217 242.435 222.283 243.309 222.416C244.182 222.483 244.619 222.882 244.619 223.614C244.619 224.146 244.048 224.778 242.906 225.509C241.831 226.174 240.554 226.873 239.076 227.604C237.598 228.336 236.086 229.034 234.541 229.7C233.063 230.365 231.921 230.897 231.115 231.296C229.502 232.094 227.823 232.859 226.076 233.591C224.329 234.322 222.448 235.154 220.433 236.085C218.417 236.949 216.167 237.98 213.681 239.178C211.262 240.375 208.508 241.805 205.417 243.468C204.611 243.933 203.838 244.233 203.099 244.366C202.428 244.565 201.789 244.665 201.185 244.665C199.975 244.665 198.934 244.366 198.061 243.767C197.187 243.235 196.448 242.57 195.844 241.772C195.239 240.973 194.735 240.142 194.332 239.277C193.996 238.479 193.694 237.814 193.425 237.282L163.394 174.627ZM164.603 162.356C168.03 162.356 171.59 161.491 175.286 159.762C178.981 158.032 182.34 155.804 185.363 153.077C188.386 150.35 190.872 147.257 192.82 143.799C194.769 140.34 195.743 136.848 195.743 133.323C195.743 123.679 189.898 118.856 178.208 118.856C175.991 118.856 174.143 119.023 172.665 119.355C171.187 119.621 169.844 119.821 168.634 119.954L164.603 162.356Z" fill="white"/>
<circle cx="284.44" cy="42.6661" r="42.6661" fill="#FF32A1"/>
</svg>
