<svg width="328" height="311" viewBox="0 0 328 311" fill="none" xmlns="http://www.w3.org/2000/svg">
<path d="M40.341 222.532C39.5295 224.293 39.8799 225.79 40.0086 226.34C40.0178 226.379 40.026 226.414 40.0324 226.443C40.4295 228.756 41.9852 233.84 45.5104 237.732C45.5114 237.943 45.5105 238.181 45.5078 238.441C45.4971 239.471 45.4562 240.796 45.4249 241.615L45.3098 244.622H120.549C120.937 244.72 121.346 244.768 121.776 244.768C122.34 244.768 122.903 244.72 123.467 244.622H139.579L139.464 241.615C139.439 240.97 139.409 240.009 139.392 239.127L139.954 238.933H139.388C139.385 238.764 139.383 238.599 139.381 238.441C139.378 238.181 139.377 237.943 139.378 237.732C142.904 233.84 144.459 228.756 144.857 226.443C144.863 226.414 144.871 226.379 144.88 226.34C145.009 225.79 145.359 224.293 144.548 222.532C143.596 220.466 141.854 219.233 140.626 218.395C139.221 217.436 137.759 216.738 136.738 216.352C128.525 212.646 123.62 209.921 120.818 208.161C119.412 207.277 118.554 206.648 118.082 206.271C117.924 206.145 117.829 206.054 117.72 205.949L117.716 205.945L117.579 205.807C113.639 201.856 110.492 195.032 108.191 187.702C105.949 180.56 104.642 173.375 104.122 168.924V167.171L104.087 166.948C103.982 166.264 104.274 165.09 105.2 163.557C106.065 162.127 107.2 160.854 107.94 160.16C109.249 158.963 111.464 157.621 113.905 156.271C117.216 154.986 119.465 153.894 120.955 153.008C121.71 152.558 122.327 152.128 122.804 151.713C123.042 151.506 123.287 151.266 123.506 150.993C123.671 150.786 123.961 150.392 124.135 149.845C124.409 149.026 124.442 147.927 124.226 146.78L124.133 146.283L123.875 145.847C122.695 143.853 120.657 143.256 119.471 143.213C114.184 142.866 110.629 142.32 108.273 141.733C107.576 141.559 107.007 141.387 106.546 141.226C109.721 139.383 112.215 136.888 114.087 134.431C116.508 131.254 118.024 127.968 118.699 125.788L118.74 125.654L118.768 125.519C121.34 113.245 117.658 104.627 111.658 99.0343C105.906 93.6725 98.3225 91.0223 92.3967 91.0223C86.2568 91.0223 78.9658 93.6887 73.2306 99.0343C67.2308 104.627 63.5487 113.245 66.1205 125.519L66.1489 125.654L66.1898 125.787C66.8644 127.967 68.3802 131.253 70.8023 134.431C72.6744 136.888 75.1678 139.383 78.3426 141.226C77.8817 141.387 77.3132 141.559 76.6156 141.733C74.2603 142.32 70.7053 142.866 65.4179 143.213C64.2318 143.256 62.1935 143.853 61.0137 145.847L60.7558 146.283L60.6626 146.78C60.447 147.927 60.4802 149.026 60.7537 149.845C60.9283 150.392 61.2174 150.786 61.3833 150.993C61.6016 151.266 61.8472 151.506 62.0848 151.713C62.5616 152.128 63.179 152.558 63.934 153.008C65.4237 153.894 67.6728 154.986 70.9838 156.271C73.4248 157.621 75.6397 158.963 76.9487 160.16C77.689 160.854 78.8236 162.127 79.6886 163.557C80.6158 165.09 80.907 166.265 80.8015 166.949L80.767 167.172V168.924C80.2469 173.375 78.9397 180.56 76.6977 187.702C74.3966 195.032 71.2499 201.856 67.3104 205.807L67.1734 205.945L67.1693 205.949C67.0599 206.054 66.9648 206.145 66.807 206.271C66.3349 206.648 65.4764 207.277 64.0707 208.161C61.2692 209.921 56.3639 212.646 48.1509 216.352C47.1301 216.738 45.668 217.436 44.2627 218.395C43.0344 219.233 41.293 220.466 40.341 222.532Z" fill="white"/>
<path fill-rule="evenodd" clip-rule="evenodd" d="M160.025 212.369L163.396 174.63L193.428 237.285C193.697 237.818 193.999 238.483 194.335 239.281C194.738 240.146 195.242 240.977 195.846 241.775C196.451 242.573 197.19 243.238 198.064 243.771C198.937 244.369 199.978 244.668 201.188 244.668C201.792 244.668 202.431 244.569 203.102 244.369C203.841 244.236 204.614 243.937 205.42 243.471C208.511 241.808 211.265 240.378 213.684 239.181C216.17 237.984 218.42 236.953 220.436 236.088C222.451 235.157 224.333 234.326 226.079 233.594C227.826 232.862 229.506 232.097 231.118 231.299C231.924 230.9 233.067 230.368 234.545 229.703C236.09 229.038 237.601 228.339 239.08 227.608C240.558 226.876 241.834 226.178 242.909 225.513C244.051 224.781 244.622 224.149 244.622 223.617C244.622 222.885 244.186 222.486 243.312 222.42C242.439 222.287 241.364 222.22 240.087 222.22C238.811 222.154 237.434 222.021 235.955 221.821C234.477 221.555 233.167 220.923 232.025 219.925C228.532 214.804 225.441 210.015 222.754 205.559C220.066 201.102 217.681 197.078 215.599 193.486C213.583 189.828 211.836 186.669 210.358 184.008C208.88 181.348 207.604 179.219 206.529 177.623C205.521 175.827 204.681 174.43 204.009 173.433C203.405 172.368 202.934 171.57 202.598 171.038C202.263 170.439 202.027 170.04 201.893 169.841C201.826 169.641 201.792 169.475 201.792 169.342C202.464 169.076 203.741 168.511 205.622 167.646C207.503 166.715 209.653 165.484 212.071 163.954C214.557 162.425 217.144 160.595 219.831 158.467C222.519 156.272 224.971 153.778 227.188 150.984C229.472 148.124 231.32 144.931 232.731 141.406C234.209 137.881 234.948 134.023 234.948 129.833C234.948 122.25 233.369 115.998 230.211 111.076C227.121 106.088 222.989 102.163 217.816 99.3032C212.71 96.3767 206.831 94.3147 200.18 93.1175C193.596 91.8537 186.81 91.1553 179.823 91.0223C173.642 91.0223 167.797 91.2551 162.288 91.7207C156.779 92.1198 151.572 92.6519 146.668 93.317C142.043 93.9442 137.687 94.6601 133.6 95.4647C138.355 101.034 140.946 109.013 138.679 119.83L138.651 119.965L138.61 120.099C137.935 122.279 136.419 125.565 133.998 128.742C132.126 131.199 129.632 133.694 126.457 135.537C126.918 135.698 127.487 135.87 128.184 136.044C130.54 136.631 134.095 137.177 139.382 137.524C140.568 137.567 142.607 138.164 143.786 140.158L144.044 140.594L144.137 141.091C144.353 142.238 144.32 143.337 144.046 144.156C143.872 144.703 143.583 145.097 143.417 145.305C143.198 145.577 142.953 145.817 142.715 146.024C142.238 146.439 141.621 146.869 140.866 147.319C139.376 148.206 137.127 149.297 133.816 150.582C131.375 151.932 129.16 153.274 127.851 154.471C127.111 155.165 125.976 156.438 125.111 157.868C124.637 158.654 124.329 159.345 124.155 159.924L124.029 161.455L124.033 161.483V163.235C124.553 167.687 125.86 174.871 128.102 182.013C130.403 189.343 133.55 196.167 137.49 200.118L137.627 200.256L137.631 200.26C137.74 200.365 137.835 200.456 137.993 200.582C138.465 200.959 139.324 201.588 140.729 202.472C143.531 204.232 148.436 206.957 156.649 210.664C157.546 211.003 158.784 211.583 160.025 212.369ZM175.288 159.764C171.593 161.493 168.032 162.358 164.606 162.358L168.637 119.956C169.846 119.823 171.19 119.623 172.668 119.357C174.146 119.024 175.993 118.858 178.211 118.858C189.901 118.858 195.746 123.68 195.746 133.325C195.746 136.85 194.771 140.342 192.823 143.801C190.875 147.259 188.389 150.352 185.366 153.079C182.342 155.806 178.983 158.035 175.288 159.764Z" fill="white"/>
<path fill-rule="evenodd" clip-rule="evenodd" d="M62.5778 25.6001H227.185C226.228 28.8136 225.535 32.1405 225.13 35.5557C224.853 37.8875 224.711 40.2605 224.711 42.6668C224.711 75.6566 251.455 102.4 284.444 102.4V247.467C284.444 282.028 256.427 310.045 221.867 310.045H0V88.1779C0 53.6171 28.017 25.6001 62.5778 25.6001ZM62.5778 35.5557H215.115C214.877 37.8956 214.756 40.2681 214.756 42.6668C214.756 77.7748 240.717 106.819 274.489 111.65V247.467C274.489 276.529 250.929 300.089 221.867 300.089H9.95556V88.1779C9.95556 59.1154 33.5153 35.5557 62.5778 35.5557Z" fill="white"/>
<circle cx="284.444" cy="42.6667" r="42.6667" fill="#FF32A1"/>
</svg>
