<svg width="1651" height="311" viewBox="0 0 1651 311" fill="none" xmlns="http://www.w3.org/2000/svg">
<path d="M227.182 25.5996H64C28.6538 25.5996 0 54.2534 0 89.5996V310.04H220.44C255.787 310.04 284.44 281.386 284.44 246.04V102.399C251.451 102.399 224.708 75.6554 224.708 42.6661C224.708 36.7357 225.572 31.0072 227.182 25.5996Z" fill="#5A20FE"/>
<path d="M40.0081 226.337C40.0173 226.376 40.0254 226.411 40.0318 226.44C40.4289 228.752 41.9846 233.836 45.5098 237.729C45.5108 237.94 45.5098 238.178 45.5071 238.438C45.4964 239.468 45.4555 240.793 45.4242 241.611L45.3091 244.619H120.548C120.935 244.716 121.344 244.765 121.774 244.765C122.338 244.765 122.902 244.716 123.465 244.619H139.577L139.462 241.611C139.437 240.966 139.407 240.006 139.39 239.124L139.952 238.93H139.386C139.383 238.761 139.381 238.596 139.379 238.438C139.376 238.178 139.375 237.939 139.376 237.729C142.902 233.836 144.457 228.752 144.854 226.44C144.861 226.411 144.869 226.376 144.878 226.337C145.007 225.787 145.357 224.289 144.546 222.529C143.594 220.463 141.852 219.23 140.624 218.392C139.219 217.433 137.757 216.735 136.736 216.349C128.523 212.642 123.618 209.918 120.816 208.158C119.411 207.274 118.552 206.645 118.08 206.268C117.922 206.142 117.827 206.051 117.718 205.946L117.714 205.942L117.577 205.804C113.637 201.853 110.491 195.029 108.19 187.699C105.948 180.557 104.64 173.373 104.12 168.922V167.169L104.086 166.946C103.981 166.262 104.272 165.087 105.199 163.555C106.064 162.124 107.198 160.851 107.939 160.158C109.248 158.96 111.463 157.618 113.903 156.268C117.214 154.984 119.463 153.892 120.953 153.005C121.708 152.556 122.326 152.125 122.802 151.71C123.04 151.504 123.285 151.264 123.504 150.991C123.67 150.784 123.959 150.389 124.133 149.843C124.407 149.024 124.44 147.925 124.225 146.777L124.131 146.281L123.873 145.845C122.694 143.85 120.655 143.254 119.469 143.211C114.182 142.864 110.627 142.318 108.272 141.731C107.574 141.557 107.006 141.385 106.545 141.223C109.72 139.381 112.213 136.886 114.085 134.429C116.507 131.252 118.022 127.966 118.697 125.786L118.738 125.652L118.767 125.517C121.338 113.244 117.656 104.625 111.657 99.0327C105.904 93.671 98.3211 91.0209 92.3954 91.0209C86.2556 91.0209 78.9647 93.6872 73.2296 99.0327C67.2299 104.625 63.5477 113.244 66.1195 125.517L66.1479 125.652L66.1889 125.785C66.8634 127.965 68.3792 131.251 70.8012 134.429C72.6733 136.886 75.1667 139.381 78.3415 141.223C77.8805 141.385 77.3121 141.557 76.6145 141.731C74.2592 142.318 70.7042 142.864 65.417 143.211C64.2309 143.254 62.1926 143.85 61.0128 145.845L60.7549 146.281L60.6617 146.777C60.4461 147.925 60.4793 149.024 60.7528 149.843C60.9274 150.389 61.2165 150.784 61.3824 150.991C61.6007 151.264 61.8463 151.504 62.0839 151.71C62.5607 152.125 63.1781 152.556 63.9331 153.005C65.4227 153.892 67.6718 154.984 70.9828 156.268C73.4237 157.618 75.6387 158.96 76.9476 160.158C77.6879 160.851 78.8224 162.124 79.6875 163.555C80.6147 165.088 80.9058 166.262 80.8003 166.946L80.7659 167.17V168.922C80.2458 173.373 78.9386 180.557 76.6966 187.699C74.3955 195.029 71.2488 201.853 67.3094 205.804L67.1724 205.942L67.1683 205.946C67.059 206.051 66.9638 206.142 66.806 206.268C66.3339 206.645 65.4755 207.274 64.0697 208.158C61.2684 209.918 56.3631 212.642 48.1502 216.349C47.1294 216.735 45.6674 217.433 44.262 218.392C43.0338 219.23 41.2924 220.463 40.3405 222.529C39.529 224.29 39.8794 225.787 40.0081 226.337Z" fill="white"/>
<path fill-rule="evenodd" clip-rule="evenodd" d="M163.394 174.627L160.022 212.366C158.782 211.579 157.544 210.999 156.647 210.66C148.434 206.954 143.529 204.229 140.727 202.469C139.322 201.585 138.463 200.956 137.991 200.579C137.833 200.453 137.738 200.362 137.629 200.257L137.625 200.253L137.488 200.116C133.548 196.164 130.402 189.34 128.1 182.01C125.858 174.868 124.551 167.684 124.031 163.233V161.48L124.027 161.452L124.153 159.922C124.327 159.343 124.635 158.651 125.11 157.866C125.975 156.435 127.109 155.162 127.85 154.469C129.159 153.271 131.373 151.93 133.814 150.58C137.125 149.295 139.374 148.203 140.864 147.317C141.619 146.867 142.236 146.436 142.713 146.022C142.951 145.815 143.196 145.575 143.415 145.302C143.58 145.095 143.87 144.701 144.044 144.154C144.318 143.335 144.351 142.236 144.135 141.089L144.042 140.592L143.784 140.156C142.604 138.162 140.566 137.565 139.38 137.522C134.093 137.175 130.538 136.629 128.183 136.042C127.485 135.868 126.916 135.696 126.456 135.535C129.63 133.692 132.124 131.197 133.996 128.74C136.417 125.563 137.933 122.278 138.608 120.097L138.649 119.964L138.677 119.828C140.944 109.011 138.353 101.033 133.598 95.4632C137.685 94.6586 142.041 93.9427 146.665 93.3156C151.57 92.6504 156.777 92.1183 162.286 91.7193C167.795 91.2537 173.64 91.0209 179.82 91.0209C186.807 91.1539 193.593 91.8523 200.177 93.116C206.828 94.3132 212.707 96.3751 217.813 99.3017C222.986 102.162 227.117 106.086 230.208 111.074C233.366 115.996 234.944 122.249 234.944 129.831C234.944 134.021 234.205 137.879 232.727 141.404C231.316 144.929 229.469 148.122 227.185 150.982C224.968 153.775 222.515 156.27 219.828 158.465C217.141 160.593 214.554 162.422 212.068 163.952C209.65 165.482 207.5 166.712 205.619 167.643C203.738 168.508 202.461 169.073 201.789 169.339C201.789 169.472 201.823 169.639 201.89 169.838C202.024 170.038 202.26 170.437 202.596 171.035C202.931 171.568 203.402 172.366 204.006 173.43C204.678 174.428 205.518 175.824 206.526 177.62C207.601 179.216 208.877 181.345 210.355 184.005C211.833 186.666 213.58 189.825 215.596 193.483C217.678 197.075 220.063 201.099 222.751 205.555C225.438 210.012 228.528 214.801 232.022 219.922C233.164 220.92 234.474 221.552 235.952 221.818C237.43 222.017 238.807 222.15 240.084 222.217C241.36 222.217 242.435 222.283 243.309 222.416C244.182 222.483 244.619 222.882 244.619 223.614C244.619 224.146 244.048 224.778 242.906 225.509C241.831 226.174 240.554 226.873 239.076 227.604C237.598 228.336 236.086 229.034 234.541 229.699C233.063 230.365 231.921 230.897 231.115 231.296C229.502 232.094 227.823 232.859 226.076 233.59C224.329 234.322 222.448 235.153 220.433 236.085C218.417 236.949 216.167 237.98 213.681 239.178C211.262 240.375 208.508 241.805 205.417 243.468C204.611 243.933 203.838 244.232 203.099 244.365C202.428 244.565 201.789 244.665 201.185 244.665C199.975 244.665 198.934 244.365 198.061 243.767C197.187 243.235 196.448 242.57 195.844 241.771C195.239 240.973 194.735 240.142 194.332 239.277C193.996 238.479 193.694 237.814 193.425 237.282L163.394 174.627ZM164.603 162.356C168.03 162.356 171.59 161.491 175.286 159.762C178.981 158.032 182.34 155.804 185.363 153.077C188.386 150.35 190.872 147.257 192.82 143.799C194.769 140.34 195.743 136.848 195.743 133.323C195.743 123.679 189.898 118.856 178.208 118.856C175.991 118.856 174.143 119.023 172.665 119.355C171.187 119.621 169.844 119.821 168.634 119.954L164.603 162.356Z" fill="white"/>
<circle cx="284.44" cy="42.6661" r="42.6661" fill="#FF32A1"/>
<path d="M398.299 226.898C402.782 226.898 406.685 226.549 410.009 225.853C413.332 225.156 416.192 224.266 418.588 223.182C421.061 222.098 423.148 220.937 424.848 219.698C426.548 218.459 428.056 217.298 429.37 216.214C430.761 215.131 431.959 214.24 432.963 213.543C434.046 212.847 435.166 212.498 436.326 212.498C437.408 212.498 438.296 212.692 438.992 213.079C439.765 213.466 440.345 213.892 440.731 214.356L452.44 228.756C445.175 237.272 436.557 243.775 426.587 248.265C416.617 252.755 405.255 255 392.503 255C382.069 255 372.755 253.142 364.563 249.426C356.447 245.71 349.607 240.601 344.042 234.098C338.477 227.517 334.227 219.775 331.29 210.873C328.43 201.892 327 192.138 327 181.609C327 171.932 328.043 162.797 330.13 154.204C332.294 145.533 335.309 137.559 339.173 130.282C343.038 122.927 347.675 116.308 353.085 110.425C358.573 104.541 364.64 99.5864 371.287 95.5607C378.011 91.4576 385.199 88.3223 392.85 86.1546C400.502 83.9095 408.501 82.787 416.849 82.787C423.032 82.787 428.674 83.3676 433.775 84.5289C438.876 85.6901 443.513 87.3159 447.687 89.4061C451.861 91.4189 455.571 93.8963 458.817 96.8381C462.14 99.7025 465.077 102.877 467.628 106.36L455.918 120.179C455.068 121.186 454.063 122.076 452.904 122.85C451.822 123.624 450.392 124.011 448.615 124.011C446.837 124.011 445.175 123.353 443.629 122.037C442.084 120.644 440.19 119.173 437.949 117.624C435.707 115.999 432.809 114.528 429.254 113.212C425.698 111.818 421.022 111.121 415.226 111.121C407.574 111.121 400.463 112.708 393.894 115.883C387.324 119.057 381.605 123.585 376.736 129.469C371.944 135.275 368.156 142.359 365.374 150.72C362.669 159.081 361.316 168.448 361.316 178.822C361.316 186.409 362.244 193.183 364.099 199.144C365.954 205.028 368.543 210.06 371.866 214.24C375.19 218.343 379.093 221.479 383.576 223.646C388.058 225.814 392.966 226.898 398.299 226.898Z" fill="#5A20FE"/>
<path d="M509.976 151.533C515.618 144.72 521.647 139.688 528.062 136.437C534.554 133.185 541.201 131.559 548.002 131.559C553.026 131.559 557.548 132.566 561.567 134.579C565.663 136.591 569.025 139.533 571.653 143.404C574.358 147.275 576.252 152.036 577.334 157.687C578.416 163.339 578.493 169.803 577.566 177.08L568.523 253.142H536.641L545.568 177.08C546.495 169.881 546.147 164.771 544.524 161.752C542.901 158.655 539.964 157.107 535.713 157.107C533.008 157.107 530.187 157.881 527.25 159.429C524.391 160.978 521.569 163.223 518.787 166.165C516.082 169.029 513.57 172.513 511.251 176.616C508.933 180.641 506.962 185.17 505.339 190.202L497.687 253.142H465.689L486.673 80H518.671L509.976 151.533Z" fill="#5A20FE"/>
<path d="M655.218 153.739C651.817 153.739 648.609 154.475 645.595 155.946C642.581 157.339 639.837 159.352 637.364 161.984C634.968 164.539 632.842 167.635 630.987 171.274C629.132 174.913 627.625 178.977 626.466 183.467C635.045 182.228 641.962 180.912 647.218 179.519C652.551 178.048 656.647 176.5 659.507 174.874C662.444 173.171 664.376 171.351 665.304 169.416C666.309 167.481 666.811 165.39 666.811 163.145C666.811 162.061 666.579 160.978 666.115 159.894C665.652 158.733 664.956 157.726 664.029 156.875C663.101 155.946 661.903 155.21 660.435 154.668C658.966 154.049 657.227 153.739 655.218 153.739ZM623.915 204.021C623.915 221.75 631.374 230.614 646.291 230.614C651.237 230.614 655.256 229.994 658.348 228.756C661.517 227.44 664.222 226.046 666.463 224.575C668.705 223.027 670.753 221.633 672.608 220.395C674.54 219.079 676.743 218.421 679.216 218.421C680.298 218.421 681.303 218.692 682.23 219.234C683.235 219.698 684.124 220.356 684.897 221.208L693.012 230.962C688.838 235.143 684.781 238.743 680.839 241.762C676.897 244.704 672.801 247.181 668.55 249.194C664.299 251.129 659.855 252.561 655.218 253.49C650.58 254.419 645.479 254.884 639.914 254.884C632.881 254.884 626.466 253.684 620.669 251.284C614.873 248.884 609.887 245.516 605.714 241.181C601.618 236.768 598.41 231.504 596.091 225.388C593.85 219.195 592.729 212.305 592.729 204.718C592.729 198.37 593.425 192.177 594.816 186.138C596.207 180.1 598.217 174.371 600.845 168.952C603.472 163.532 606.641 158.578 610.351 154.088C614.138 149.52 618.428 145.61 623.22 142.359C628.012 139.03 633.229 136.437 638.871 134.579C644.59 132.721 650.658 131.792 657.073 131.792C663.333 131.792 668.859 132.721 673.651 134.579C678.52 136.359 682.578 138.72 685.824 141.662C689.07 144.527 691.505 147.739 693.128 151.301C694.828 154.862 695.678 158.423 695.678 161.984C695.678 167.326 694.596 172.242 692.432 176.732C690.268 181.222 686.481 185.248 681.071 188.809C675.661 192.293 668.318 195.312 659.043 197.867C649.769 200.344 638.059 202.279 623.915 203.673V204.021Z" fill="#5A20FE"/>
<path d="M786.741 157.107C785.813 158.423 784.886 159.391 783.958 160.01C783.108 160.552 782.026 160.823 780.712 160.823C779.244 160.823 777.775 160.436 776.307 159.662C774.916 158.887 773.331 158.075 771.554 157.223C769.776 156.294 767.728 155.442 765.409 154.668C763.168 153.894 760.501 153.507 757.41 153.507C751.613 153.507 747.285 154.746 744.425 157.223C741.643 159.7 740.251 162.797 740.251 166.513C740.251 169.532 741.372 171.971 743.613 173.829C745.855 175.609 748.676 177.235 752.077 178.706C755.477 180.1 759.149 181.532 763.09 183.003C767.032 184.474 770.703 186.37 774.104 188.693C777.505 191.015 780.326 193.996 782.567 197.634C784.809 201.273 785.929 205.918 785.929 211.569C785.929 217.453 784.77 223.027 782.451 228.291C780.133 233.556 776.771 238.162 772.365 242.11C768.037 246.058 762.781 249.194 756.598 251.516C750.415 253.839 743.498 255 735.846 255C732.059 255 728.349 254.613 724.716 253.839C721.161 253.142 717.76 252.136 714.514 250.82C711.345 249.426 708.447 247.839 705.819 246.058C703.269 244.278 701.104 242.342 699.327 240.252L707.21 228.291C708.138 226.898 709.258 225.814 710.572 225.04C711.886 224.266 713.471 223.879 715.326 223.879C717.026 223.879 718.572 224.382 719.963 225.388C721.354 226.317 722.9 227.362 724.6 228.524C726.301 229.607 728.31 230.653 730.629 231.659C733.025 232.588 736.116 233.052 739.904 233.052C742.763 233.052 745.275 232.704 747.439 232.007C749.681 231.233 751.536 230.227 753.004 228.988C754.55 227.672 755.671 226.162 756.366 224.459C757.139 222.756 757.526 220.975 757.526 219.117C757.526 215.711 756.405 213.079 754.163 211.221C751.922 209.363 749.101 207.737 745.7 206.344C742.377 204.95 738.744 203.595 734.802 202.279C730.861 200.963 727.19 199.183 723.789 196.938C720.465 194.693 717.683 191.789 715.442 188.228C713.2 184.667 712.079 179.906 712.079 173.945C712.079 168.526 713.084 163.3 715.094 158.268C717.181 153.159 720.195 148.63 724.137 144.681C728.078 140.733 732.948 137.559 738.744 135.159C744.618 132.759 751.381 131.559 759.033 131.559C766.839 131.559 773.756 132.914 779.785 135.624C785.891 138.256 790.953 141.624 794.972 145.727L786.741 157.107Z" fill="#5A20FE"/>
<path d="M881.163 157.107C880.236 158.423 879.309 159.391 878.381 160.01C877.531 160.552 876.449 160.823 875.135 160.823C873.666 160.823 872.198 160.436 870.729 159.662C869.338 158.887 867.754 158.075 865.976 157.223C864.198 156.294 862.15 155.442 859.832 154.668C857.59 153.894 854.924 153.507 851.832 153.507C846.036 153.507 841.707 154.746 838.848 157.223C836.065 159.7 834.674 162.797 834.674 166.513C834.674 169.532 835.795 171.971 838.036 173.829C840.277 175.609 843.099 177.235 846.499 178.706C849.9 180.1 853.571 181.532 857.513 183.003C861.455 184.474 865.126 186.37 868.527 188.693C871.927 191.015 874.748 193.996 876.99 197.634C879.231 201.273 880.352 205.918 880.352 211.569C880.352 217.453 879.193 223.027 876.874 228.291C874.555 233.556 871.193 238.162 866.788 242.11C862.459 246.058 857.204 249.194 851.021 251.516C844.838 253.839 837.92 255 830.269 255C826.481 255 822.771 254.613 819.139 253.839C815.584 253.142 812.183 252.136 808.937 250.82C805.768 249.426 802.87 247.839 800.242 246.058C797.691 244.278 795.527 242.342 793.749 240.252L801.633 228.291C802.56 226.898 803.681 225.814 804.995 225.04C806.309 224.266 807.893 223.879 809.748 223.879C811.449 223.879 812.994 224.382 814.386 225.388C815.777 226.317 817.323 227.362 819.023 228.524C820.723 229.607 822.733 230.653 825.052 231.659C827.447 232.588 830.539 233.052 834.326 233.052C837.186 233.052 839.698 232.704 841.862 232.007C844.103 231.233 845.958 230.227 847.427 228.988C848.973 227.672 850.093 226.162 850.789 224.459C851.562 222.756 851.948 220.975 851.948 219.117C851.948 215.711 850.827 213.079 848.586 211.221C846.345 209.363 843.524 207.737 840.123 206.344C836.799 204.95 833.167 203.595 829.225 202.279C825.283 200.963 821.612 199.183 818.211 196.938C814.888 194.693 812.106 191.789 809.864 188.228C807.623 184.667 806.502 179.906 806.502 173.945C806.502 168.526 807.507 163.3 809.516 158.268C811.603 153.159 814.617 148.63 818.559 144.681C822.501 140.733 827.37 137.559 833.167 135.159C839.041 132.759 845.804 131.559 853.455 131.559C861.261 131.559 868.179 132.914 874.207 135.624C880.313 138.256 885.376 141.624 889.395 145.727L881.163 157.107Z" fill="#5A20FE"/>
<path d="M935.821 160.126C938.835 154.552 942.004 149.791 945.327 145.843C948.728 141.894 952.245 138.837 955.877 136.669C959.51 134.424 963.22 133.146 967.007 132.837C970.794 132.45 974.62 133.108 978.484 134.811L972.688 164.887C968.128 162.952 963.838 162.139 959.819 162.449C955.877 162.758 952.206 164.307 948.805 167.094C945.482 169.881 942.468 173.945 939.763 179.287C937.057 184.628 934.7 191.364 932.691 199.492L926.198 253.142H894.78L909.272 133.301H925.735C929.058 133.301 931.647 134.114 933.502 135.74C935.357 137.366 936.285 139.959 936.285 143.52L935.821 160.126Z" fill="#5A20FE"/>
<path d="M1025.82 230.846C1030.3 230.846 1034.32 229.53 1037.87 226.898C1041.43 224.266 1044.44 220.743 1046.92 216.33C1049.39 211.84 1051.28 206.653 1052.6 200.77C1053.99 194.886 1054.68 188.654 1054.68 182.074C1054.68 172.784 1053.25 166.087 1050.39 161.984C1047.53 157.804 1043.09 155.713 1037.06 155.713C1032.66 155.713 1028.64 157.029 1025 159.662C1021.45 162.216 1018.44 165.7 1015.96 170.113C1013.49 174.526 1011.56 179.712 1010.17 185.674C1008.85 191.557 1008.19 197.789 1008.19 204.37C1008.19 213.505 1009.62 220.201 1012.48 224.459C1015.34 228.717 1019.79 230.846 1025.82 230.846ZM1023.03 254.884C1016.39 254.884 1010.2 253.8 1004.48 251.632C998.765 249.387 993.818 246.136 989.645 241.878C985.471 237.62 982.186 232.356 979.791 226.085C977.472 219.814 976.312 212.653 976.312 204.602C976.312 194.151 978.013 184.474 981.414 175.571C984.814 166.59 989.413 158.849 995.21 152.346C1001.01 145.843 1007.77 140.772 1015.5 137.133C1023.23 133.417 1031.38 131.559 1039.96 131.559C1046.61 131.559 1052.75 132.682 1058.39 134.927C1064.11 137.095 1069.06 140.346 1073.23 144.681C1077.41 148.939 1080.69 154.204 1083.09 160.474C1085.48 166.745 1086.68 173.906 1086.68 181.958C1086.68 192.331 1084.98 201.97 1081.58 210.873C1078.18 219.775 1073.54 227.478 1067.67 233.981C1061.87 240.484 1055.11 245.594 1047.38 249.31C1039.73 253.026 1031.61 254.884 1023.03 254.884Z" fill="#5A20FE"/>
<path d="M1213.6 133.417L1199.11 253.142H1182.88C1175.31 253.142 1171.52 249.542 1171.52 242.342L1171.87 231.543C1165.99 239.439 1159.58 245.323 1152.62 249.194C1145.74 252.987 1138.59 254.884 1131.17 254.884C1126.15 254.884 1121.63 253.877 1117.61 251.865C1113.59 249.852 1110.27 246.91 1107.64 243.039C1105.01 239.168 1103.16 234.446 1102.08 228.872C1100.99 223.221 1100.92 216.756 1101.84 209.479L1110.77 133.417H1142.77L1133.73 209.479C1132.88 216.679 1133.22 221.788 1134.77 224.808C1136.39 227.749 1139.29 229.22 1143.46 229.22C1146.25 229.22 1149.11 228.446 1152.04 226.898C1155.06 225.272 1157.92 222.988 1160.62 220.046C1163.4 217.105 1165.95 213.582 1168.27 209.479C1170.67 205.299 1172.64 200.654 1174.19 195.544L1181.72 133.417H1213.6Z" fill="#5A20FE"/>
<path d="M1224.25 253.142L1245.23 80H1276.76L1255.66 253.142H1224.25Z" fill="#5A20FE"/>
<path d="M1343.57 153.739C1340.17 153.739 1336.97 154.475 1333.95 155.946C1330.94 157.339 1328.19 159.352 1325.72 161.984C1323.32 164.539 1321.2 167.635 1319.34 171.274C1317.49 174.913 1315.98 178.977 1314.82 183.467C1323.4 182.228 1330.32 180.912 1335.58 179.519C1340.91 178.048 1345 176.5 1347.86 174.874C1350.8 173.171 1352.73 171.351 1353.66 169.416C1354.67 167.481 1355.17 165.39 1355.17 163.145C1355.17 162.061 1354.94 160.978 1354.47 159.894C1354.01 158.733 1353.31 157.726 1352.39 156.875C1351.46 155.946 1350.26 155.21 1348.79 154.668C1347.32 154.049 1345.58 153.739 1343.57 153.739ZM1312.27 204.021C1312.27 221.75 1319.73 230.614 1334.65 230.614C1339.59 230.614 1343.61 229.994 1346.7 228.756C1349.87 227.44 1352.58 226.046 1354.82 224.575C1357.06 223.027 1359.11 221.633 1360.96 220.395C1362.9 219.079 1365.1 218.421 1367.57 218.421C1368.65 218.421 1369.66 218.692 1370.59 219.234C1371.59 219.698 1372.48 220.356 1373.25 221.208L1381.37 230.962C1377.2 235.143 1373.14 238.743 1369.2 241.762C1365.25 244.704 1361.16 247.181 1356.91 249.194C1352.66 251.129 1348.21 252.561 1343.57 253.49C1338.94 254.419 1333.84 254.884 1328.27 254.884C1321.24 254.884 1314.82 253.684 1309.03 251.284C1303.23 248.884 1298.24 245.516 1294.07 241.181C1289.97 236.768 1286.77 231.504 1284.45 225.388C1282.21 219.195 1281.09 212.305 1281.09 204.718C1281.09 198.37 1281.78 192.177 1283.17 186.138C1284.56 180.1 1286.57 174.371 1289.2 168.952C1291.83 163.532 1295 158.578 1298.71 154.088C1302.5 149.52 1306.78 145.61 1311.58 142.359C1316.37 139.03 1321.59 136.437 1327.23 134.579C1332.95 132.721 1339.01 131.792 1345.43 131.792C1351.69 131.792 1357.22 132.721 1362.01 134.579C1366.88 136.359 1370.93 138.72 1374.18 141.662C1377.43 144.527 1379.86 147.739 1381.48 151.301C1383.19 154.862 1384.04 158.423 1384.04 161.984C1384.04 167.326 1382.95 172.242 1380.79 176.732C1378.62 181.222 1374.84 185.248 1369.43 188.809C1364.02 192.293 1356.67 195.312 1347.4 197.867C1338.13 200.344 1326.42 202.279 1312.27 203.673V204.021Z" fill="#5A20FE"/>
<path d="M1403.48 228.059C1403.48 227.517 1403.48 226.898 1403.48 226.201C1403.48 225.427 1403.52 224.343 1403.59 222.95C1403.75 221.479 1403.94 219.582 1404.17 217.259C1404.48 214.86 1404.87 211.763 1405.33 207.969L1411.82 155.946H1401.85C1400.23 155.946 1398.92 155.442 1397.91 154.436C1396.91 153.352 1396.52 151.765 1396.75 149.675L1398.38 137.598L1416 134.23L1425.97 102.877C1427.21 99.3928 1429.56 97.651 1433.04 97.651H1450.31L1445.68 134.346H1487.53L1497.5 102.877C1498.74 99.3928 1501.13 97.651 1504.69 97.651H1521.85L1517.32 134.346H1544.92L1542.13 155.946H1514.66L1508.51 206.228C1508.13 209.402 1507.82 211.918 1507.59 213.776C1507.35 215.634 1507.16 217.066 1507.01 218.072C1506.93 219.079 1506.85 219.775 1506.77 220.163C1506.77 220.472 1506.77 220.704 1506.77 220.859C1506.77 223.569 1507.39 225.737 1508.63 227.362C1509.94 228.911 1511.84 229.685 1514.31 229.685C1515.7 229.685 1516.9 229.53 1517.9 229.22C1518.91 228.833 1519.76 228.446 1520.45 228.059C1521.23 227.595 1521.92 227.207 1522.54 226.898C1523.16 226.511 1523.82 226.317 1524.51 226.317C1525.44 226.317 1526.17 226.549 1526.72 227.014C1527.26 227.401 1527.72 228.098 1528.11 229.104L1535.06 244.433C1530.5 247.916 1525.56 250.549 1520.22 252.329C1514.97 254.11 1509.63 255 1504.22 255C1495.34 255 1488.34 252.639 1483.24 247.916C1478.14 243.117 1475.43 236.497 1475.12 228.059C1475.12 227.517 1475.12 226.898 1475.12 226.201C1475.12 225.427 1475.16 224.343 1475.24 222.95C1475.4 221.479 1475.59 219.582 1475.82 217.259C1476.13 214.86 1476.52 211.763 1476.98 207.969L1483.36 155.946H1443.01L1436.87 206.228C1436.48 209.402 1436.17 211.918 1435.94 213.776C1435.71 215.634 1435.51 217.066 1435.36 218.072C1435.28 219.079 1435.24 219.775 1435.24 220.163C1435.24 220.472 1435.24 220.704 1435.24 220.859C1435.24 223.569 1435.86 225.737 1437.1 227.362C1438.34 228.911 1440.19 229.685 1442.66 229.685C1444.13 229.685 1445.37 229.53 1446.37 229.22C1447.38 228.833 1448.23 228.446 1448.92 228.059C1449.7 227.595 1450.39 227.207 1451.01 226.898C1451.63 226.511 1452.25 226.317 1452.87 226.317C1453.87 226.317 1454.6 226.549 1455.07 227.014C1455.61 227.401 1456.07 228.098 1456.46 229.104L1463.42 244.433C1458.93 247.916 1454.02 250.549 1448.69 252.329C1443.36 254.11 1438.03 255 1432.69 255C1423.8 255 1416.77 252.639 1411.59 247.916C1406.49 243.117 1403.79 236.497 1403.48 228.059Z" fill="#5A20FE"/>
<path d="M1610.54 153.739C1607.14 153.739 1603.93 154.475 1600.92 155.946C1597.9 157.339 1595.16 159.352 1592.69 161.984C1590.29 164.539 1588.16 167.635 1586.31 171.274C1584.45 174.913 1582.95 178.977 1581.79 183.467C1590.37 182.228 1597.28 180.912 1602.54 179.519C1607.87 178.048 1611.97 176.5 1614.83 174.874C1617.77 173.171 1619.7 171.351 1620.63 169.416C1621.63 167.481 1622.13 165.39 1622.13 163.145C1622.13 162.061 1621.9 160.978 1621.44 159.894C1620.97 158.733 1620.28 157.726 1619.35 156.875C1618.42 155.946 1617.22 155.21 1615.76 154.668C1614.29 154.049 1612.55 153.739 1610.54 153.739ZM1579.24 204.021C1579.24 221.75 1586.7 230.614 1601.61 230.614C1606.56 230.614 1610.58 229.994 1613.67 228.756C1616.84 227.44 1619.54 226.046 1621.78 224.575C1624.03 223.027 1626.07 221.633 1627.93 220.395C1629.86 219.079 1632.06 218.421 1634.54 218.421C1635.62 218.421 1636.62 218.692 1637.55 219.234C1638.56 219.698 1639.45 220.356 1640.22 221.208L1648.33 230.962C1644.16 235.143 1640.1 238.743 1636.16 241.762C1632.22 244.704 1628.12 247.181 1623.87 249.194C1619.62 251.129 1615.18 252.561 1610.54 253.49C1605.9 254.419 1600.8 254.884 1595.24 254.884C1588.2 254.884 1581.79 253.684 1575.99 251.284C1570.19 248.884 1565.21 245.516 1561.04 241.181C1556.94 236.768 1553.73 231.504 1551.41 225.388C1549.17 219.195 1548.05 212.305 1548.05 204.718C1548.05 198.37 1548.75 192.177 1550.14 186.138C1551.53 180.1 1553.54 174.371 1556.17 168.952C1558.79 163.532 1561.96 158.578 1565.67 154.088C1569.46 149.52 1573.75 145.61 1578.54 142.359C1583.33 139.03 1588.55 136.437 1594.19 134.579C1599.91 132.721 1605.98 131.792 1612.39 131.792C1618.65 131.792 1624.18 132.721 1628.97 134.579C1633.84 136.359 1637.9 138.72 1641.15 141.662C1644.39 144.527 1646.83 147.739 1648.45 151.301C1650.15 154.862 1651 158.423 1651 161.984C1651 167.326 1649.92 172.242 1647.75 176.732C1645.59 181.222 1641.8 185.248 1636.39 188.809C1630.98 192.293 1623.64 195.312 1614.36 197.867C1605.09 200.344 1593.38 202.279 1579.24 203.673V204.021Z" fill="#5A20FE"/>
</svg>
