<svg width="188" height="65" viewBox="0 0 188 65" fill="none" xmlns="http://www.w3.org/2000/svg">
<rect x="160" y="37" width="14" height="14" fill="#D4424C"/>
<rect x="174" y="23" width="14" height="14" fill="#3B4B99"/>
<path d="M32.112 33.528C32.112 39.32 30.528 43.688 27.36 46.632C24.224 49.544 19.84 51 14.208 51H4.656V16.728H15.216C18.672 16.728 21.664 17.368 24.192 18.648C26.72 19.928 28.672 21.816 30.048 24.312C31.424 26.776 32.112 29.848 32.112 33.528ZM27.552 33.672C27.552 29.096 26.416 25.752 24.144 23.64C21.904 21.496 18.72 20.424 14.592 20.424H8.976V47.304H13.632C22.912 47.304 27.552 42.76 27.552 33.672ZM59.1585 41.832C59.1585 44.872 58.0545 47.24 55.8465 48.936C53.6385 50.632 50.6625 51.48 46.9185 51.48C44.9985 51.48 43.2225 51.336 41.5905 51.048C39.9585 50.76 38.5985 50.36 37.5105 49.848V45.72C38.6625 46.232 40.0865 46.696 41.7825 47.112C43.5105 47.528 45.2865 47.736 47.1105 47.736C49.6705 47.736 51.5905 47.24 52.8705 46.248C54.1825 45.256 54.8385 43.912 54.8385 42.216C54.8385 41.096 54.5985 40.152 54.1185 39.384C53.6385 38.616 52.8065 37.912 51.6225 37.272C50.4705 36.6 48.8545 35.896 46.7745 35.16C43.8625 34.104 41.6545 32.808 40.1505 31.272C38.6785 29.736 37.9425 27.64 37.9425 24.984C37.9425 23.16 38.4065 21.608 39.3345 20.328C40.2625 19.016 41.5425 18.008 43.1745 17.304C44.8385 16.6 46.7425 16.248 48.8865 16.248C50.7745 16.248 52.5025 16.424 54.0705 16.776C55.6385 17.128 57.0625 17.592 58.3425 18.168L56.9985 21.864C55.8145 21.352 54.5185 20.92 53.1105 20.568C51.7345 20.216 50.2945 20.04 48.7905 20.04C46.6465 20.04 45.0305 20.504 43.9425 21.432C42.8545 22.328 42.3105 23.528 42.3105 25.032C42.3105 26.184 42.5505 27.144 43.0305 27.912C43.5105 28.68 44.2945 29.368 45.3825 29.976C46.4705 30.584 47.9425 31.24 49.7985 31.944C51.8145 32.68 53.5105 33.48 54.8865 34.344C56.2945 35.176 57.3505 36.184 58.0545 37.368C58.7905 38.552 59.1585 40.04 59.1585 41.832ZM76.9103 51H72.5903V20.52H61.8863V16.728H87.5663V20.52H76.9103V51ZM119.902 51H114.862L96.5261 22.536H96.3341C96.3981 23.656 96.4781 25.048 96.5741 26.712C96.6701 28.376 96.7181 30.088 96.7181 31.848V51H92.7341V16.728H97.7261L116.014 45.096H116.206C116.174 44.584 116.126 43.816 116.062 42.792C116.03 41.768 115.982 40.648 115.918 39.432C115.886 38.216 115.87 37.096 115.87 36.072V16.728H119.902V51ZM156.659 33.528C156.659 39.32 155.075 43.688 151.907 46.632C148.771 49.544 144.387 51 138.755 51H129.203V16.728H139.763C143.219 16.728 146.211 17.368 148.739 18.648C151.267 19.928 153.219 21.816 154.595 24.312C155.971 26.776 156.659 29.848 156.659 33.528ZM152.099 33.672C152.099 29.096 150.963 25.752 148.691 23.64C146.451 21.496 143.267 20.424 139.139 20.424H133.523V47.304H138.179C147.459 47.304 152.099 42.76 152.099 33.672Z" fill="white"/>
</svg>
