<svg width="357" height="65" viewBox="0 0 357 65" fill="none" xmlns="http://www.w3.org/2000/svg">
<rect x="329" y="37" width="14" height="14" fill="#D4424C"/>
<rect x="343" y="23" width="14" height="14" fill="#3B4B99"/>
<path d="M19.3359 20.0391C15.6484 20.0391 12.75 21.2734 10.6406 23.7422C8.53125 26.2109 7.47656 29.5859 7.47656 33.8672C7.47656 38.2891 8.5 41.7031 10.5469 44.1094C12.5938 46.5 15.5078 47.6953 19.2891 47.6953C21.7266 47.6953 24.4688 47.2422 27.5156 46.3359V50.0859C26.0625 50.6172 24.6641 50.9766 23.3203 51.1641C21.9766 51.3672 20.4297 51.4688 18.6797 51.4688C13.6328 51.4688 9.74219 49.9375 7.00781 46.875C4.28906 43.7969 2.92969 39.4453 2.92969 33.8203C2.92969 30.2891 3.57812 27.1953 4.875 24.5391C6.1875 21.8828 8.08594 19.8359 10.5703 18.3984C13.0703 16.9609 16.0078 16.2422 19.3828 16.2422C23.0078 16.2422 26.1641 16.9141 28.8516 18.2578L27.1172 21.9141C24.3828 20.6641 21.7891 20.0391 19.3359 20.0391ZM51.9375 51V34.5469C51.9375 32.4531 51.4688 30.8984 50.5312 29.8828C49.6094 28.8516 48.1562 28.3359 46.1719 28.3359C43.5625 28.3359 41.6484 29.0625 40.4297 30.5156C39.2266 31.9688 38.625 34.3672 38.625 37.7109V51H34.4062V14.5312H38.625V25.2188C38.625 26.625 38.5469 27.8281 38.3906 28.8281H38.6719C39.4375 27.5781 40.5234 26.6016 41.9297 25.8984C43.3359 25.1953 44.9219 24.8438 46.6875 24.8438C49.8125 24.8438 52.1641 25.5938 53.7422 27.0938C55.3203 28.5781 56.1094 30.9609 56.1094 34.2422V51H51.9375ZM75.0234 51.4688C71.1641 51.4688 68.1328 50.3047 65.9297 47.9766C63.7422 45.6328 62.6484 42.4141 62.6484 38.3203C62.6484 34.1953 63.6719 30.9141 65.7188 28.4766C67.7656 26.0234 70.5312 24.7969 74.0156 24.7969C77.25 24.7969 79.8281 25.8438 81.75 27.9375C83.6719 30.0156 84.6328 32.8359 84.6328 36.3984V38.9531H67.0078C67.0859 41.875 67.8281 44.0938 69.2344 45.6094C70.6406 47.125 72.6328 47.8828 75.2109 47.8828C76.5859 47.8828 77.8906 47.7656 79.125 47.5312C80.3594 47.2812 81.8047 46.8047 83.4609 46.1016V49.8047C82.0391 50.4141 80.7031 50.8438 79.4531 51.0938C78.2031 51.3438 76.7266 51.4688 75.0234 51.4688ZM73.9688 28.2422C71.9531 28.2422 70.3594 28.8906 69.1875 30.1875C68.0156 31.4844 67.3203 33.2891 67.1016 35.6016H80.2031C80.1719 33.1953 79.6172 31.3672 78.5391 30.1172C77.4609 28.8672 75.9375 28.2422 73.9688 28.2422ZM107.93 43.8984C107.93 46.3047 107.031 48.1719 105.234 49.5C103.438 50.8125 100.914 51.4688 97.6641 51.4688C94.2734 51.4688 91.5781 50.9297 89.5781 49.8516V46.0078C92.4062 47.3828 95.1328 48.0703 97.7578 48.0703C99.8828 48.0703 101.43 47.7266 102.398 47.0391C103.367 46.3516 103.852 45.4297 103.852 44.2734C103.852 43.2578 103.383 42.3984 102.445 41.6953C101.523 40.9922 99.875 40.1875 97.5 39.2812C95.0781 38.3438 93.375 37.5469 92.3906 36.8906C91.4062 36.2188 90.6797 35.4688 90.2109 34.6406C89.7578 33.8125 89.5312 32.8047 89.5312 31.6172C89.5312 29.5078 90.3906 27.8438 92.1094 26.625C93.8281 25.4062 96.1875 24.7969 99.1875 24.7969C102.109 24.7969 104.844 25.375 107.391 26.5312L105.961 29.8828C103.352 28.7891 101 28.2422 98.9062 28.2422C97.1562 28.2422 95.8281 28.5234 94.9219 29.0859C94.0156 29.6328 93.5625 30.3906 93.5625 31.3594C93.5625 32.2969 93.9531 33.0781 94.7344 33.7031C95.5156 34.3125 97.3359 35.1641 100.195 36.2578C102.336 37.0547 103.914 37.7969 104.93 38.4844C105.961 39.1719 106.719 39.9453 107.203 40.8047C107.688 41.6641 107.93 42.6953 107.93 43.8984ZM130.945 43.8984C130.945 46.3047 130.047 48.1719 128.25 49.5C126.453 50.8125 123.93 51.4688 120.68 51.4688C117.289 51.4688 114.594 50.9297 112.594 49.8516V46.0078C115.422 47.3828 118.148 48.0703 120.773 48.0703C122.898 48.0703 124.445 47.7266 125.414 47.0391C126.383 46.3516 126.867 45.4297 126.867 44.2734C126.867 43.2578 126.398 42.3984 125.461 41.6953C124.539 40.9922 122.891 40.1875 120.516 39.2812C118.094 38.3438 116.391 37.5469 115.406 36.8906C114.422 36.2188 113.695 35.4688 113.227 34.6406C112.773 33.8125 112.547 32.8047 112.547 31.6172C112.547 29.5078 113.406 27.8438 115.125 26.625C116.844 25.4062 119.203 24.7969 122.203 24.7969C125.125 24.7969 127.859 25.375 130.406 26.5312L128.977 29.8828C126.367 28.7891 124.016 28.2422 121.922 28.2422C120.172 28.2422 118.844 28.5234 117.938 29.0859C117.031 29.6328 116.578 30.3906 116.578 31.3594C116.578 32.2969 116.969 33.0781 117.75 33.7031C118.531 34.3125 120.352 35.1641 123.211 36.2578C125.352 37.0547 126.93 37.7969 127.945 38.4844C128.977 39.1719 129.734 39.9453 130.219 40.8047C130.703 41.6641 130.945 42.6953 130.945 43.8984ZM142.102 33.1875H147.234C150.016 33.1875 152.047 32.6406 153.328 31.5469C154.609 30.4531 155.25 28.8281 155.25 26.6719C155.25 24.5156 154.602 22.9453 153.305 21.9609C152.008 20.9609 149.906 20.4609 147 20.4609H142.102V33.1875ZM142.102 36.8438V51H137.789V16.7344H147.234C151.484 16.7344 154.625 17.5469 156.656 19.1719C158.703 20.7812 159.727 23.2109 159.727 26.4609C159.727 31.0078 157.438 34.0703 152.859 35.6484L162.258 51H157.219L148.922 36.8438H142.102ZM189.422 38.0859C189.422 42.2891 188.359 45.5703 186.234 47.9297C184.109 50.2891 181.172 51.4688 177.422 51.4688C175.094 51.4688 173.031 50.9297 171.234 49.8516C169.438 48.7578 168.055 47.1953 167.086 45.1641C166.117 43.1328 165.633 40.7734 165.633 38.0859C165.633 33.8984 166.68 30.6406 168.773 28.3125C170.867 25.9688 173.805 24.7969 177.586 24.7969C181.211 24.7969 184.086 25.9922 186.211 28.3828C188.352 30.7578 189.422 33.9922 189.422 38.0859ZM169.992 38.0859C169.992 41.3203 170.625 43.7812 171.891 45.4688C173.172 47.1406 175.055 47.9766 177.539 47.9766C179.992 47.9766 181.859 47.1406 183.141 45.4688C184.422 43.7812 185.062 41.3203 185.062 38.0859C185.062 34.8516 184.414 32.4219 183.117 30.7969C181.836 29.1562 179.953 28.3359 177.469 28.3359C172.484 28.3359 169.992 31.5859 169.992 38.0859ZM200.109 25.2656V41.8359C200.109 43.9141 200.57 45.4609 201.492 46.4766C202.43 47.4766 203.875 47.9766 205.828 47.9766C208.469 47.9766 210.391 47.2422 211.594 45.7734C212.797 44.3047 213.398 41.9375 213.398 38.6719V25.2656H217.641V51H214.172L213.562 47.6016H213.352C212.586 48.8359 211.5 49.7891 210.094 50.4609C208.688 51.1328 207.055 51.4688 205.195 51.4688C202.102 51.4688 199.766 50.7266 198.188 49.2422C196.625 47.7578 195.844 45.3828 195.844 42.1172V25.2656H200.109ZM230.016 51H225.797V14.5312H230.016V51ZM249.117 51.4688C245.258 51.4688 242.227 50.3047 240.023 47.9766C237.836 45.6328 236.742 42.4141 236.742 38.3203C236.742 34.1953 237.766 30.9141 239.812 28.4766C241.859 26.0234 244.625 24.7969 248.109 24.7969C251.344 24.7969 253.922 25.8438 255.844 27.9375C257.766 30.0156 258.727 32.8359 258.727 36.3984V38.9531H241.102C241.18 41.875 241.922 44.0938 243.328 45.6094C244.734 47.125 246.727 47.8828 249.305 47.8828C250.68 47.8828 251.984 47.7656 253.219 47.5312C254.453 47.2812 255.898 46.8047 257.555 46.1016V49.8047C256.133 50.4141 254.797 50.8438 253.547 51.0938C252.297 51.3438 250.82 51.4688 249.117 51.4688ZM248.062 28.2422C246.047 28.2422 244.453 28.8906 243.281 30.1875C242.109 31.4844 241.414 33.2891 241.195 35.6016H254.297C254.266 33.1953 253.711 31.3672 252.633 30.1172C251.555 28.8672 250.031 28.2422 248.062 28.2422ZM273.867 48.0234C274.414 48.0234 275.055 47.9688 275.789 47.8594C276.523 47.75 277.078 47.625 277.453 47.4844V50.7188C277.062 50.8906 276.453 51.0547 275.625 51.2109C274.812 51.3828 273.984 51.4688 273.141 51.4688C268.109 51.4688 265.594 48.8203 265.594 43.5234V28.5469H261.961V26.5312L265.641 24.8438L267.328 19.3594H269.836V25.2656H277.266V28.5469H269.836V43.4062C269.836 44.8906 270.188 46.0312 270.891 46.8281C271.609 47.625 272.602 48.0234 273.867 48.0234ZM291.211 48.0234C291.758 48.0234 292.398 47.9688 293.133 47.8594C293.867 47.75 294.422 47.625 294.797 47.4844V50.7188C294.406 50.8906 293.797 51.0547 292.969 51.2109C292.156 51.3828 291.328 51.4688 290.484 51.4688C285.453 51.4688 282.938 48.8203 282.938 43.5234V28.5469H279.305V26.5312L282.984 24.8438L284.672 19.3594H287.18V25.2656H294.609V28.5469H287.18V43.4062C287.18 44.8906 287.531 46.0312 288.234 46.8281C288.953 47.625 289.945 48.0234 291.211 48.0234ZM310.898 51.4688C307.039 51.4688 304.008 50.3047 301.805 47.9766C299.617 45.6328 298.523 42.4141 298.523 38.3203C298.523 34.1953 299.547 30.9141 301.594 28.4766C303.641 26.0234 306.406 24.7969 309.891 24.7969C313.125 24.7969 315.703 25.8438 317.625 27.9375C319.547 30.0156 320.508 32.8359 320.508 36.3984V38.9531H302.883C302.961 41.875 303.703 44.0938 305.109 45.6094C306.516 47.125 308.508 47.8828 311.086 47.8828C312.461 47.8828 313.766 47.7656 315 47.5312C316.234 47.2812 317.68 46.8047 319.336 46.1016V49.8047C317.914 50.4141 316.578 50.8438 315.328 51.0938C314.078 51.3438 312.602 51.4688 310.898 51.4688ZM309.844 28.2422C307.828 28.2422 306.234 28.8906 305.062 30.1875C303.891 31.4844 303.195 33.2891 302.977 35.6016H316.078C316.047 33.1953 315.492 31.3672 314.414 30.1172C313.336 28.8672 311.812 28.2422 309.844 28.2422Z" fill="black"/>
</svg>
