<svg width="1376" height="316" viewBox="0 0 1376 316" fill="none" xmlns="http://www.w3.org/2000/svg">
<path d="M108.785 148.19L122.464 148.19L122.464 134.499L136.681 134.499L136.681 148.19L149.828 148.19L149.828 161.884L136.681 161.884L136.681 175.578L122.464 175.578L122.464 161.884L108.785 161.884L108.785 148.19ZM104.828 193.661L93.4719 193.661L93.4719 207.904L164.59 207.904L164.59 193.661L153.015 193.661C165.755 188.733 174.236 179.136 174.236 167.464C174.236 155.068 157.589 124.291 143.917 106.208C140.498 110.769 135.047 113.741 128.917 113.741C122.793 113.741 117.335 110.782 113.91 106.22C100.244 124.307 83.6096 155.068 83.6096 167.464C83.6096 179.13 92.0787 188.733 104.828 193.661" fill="#001B36"/>
<path d="M170.473 211.193L87.2071 211.193C83.9604 211.193 81.9849 212.403 81.9849 215.66L81.9849 232.007L128.842 232.007L176.622 232.007L176.622 215.66C176.622 212.403 173.723 211.193 170.473 211.193" fill="#001B36"/>
<path d="M128.917 109.91C134.176 109.91 138.785 107.18 141.453 103.063C142.962 100.727 143.848 97.9466 143.848 94.9652C143.848 86.7167 137.151 80.0139 128.917 80.0139C120.686 80.0139 113.989 86.7167 113.989 94.9652C113.989 97.9466 114.878 100.727 116.387 103.066C119.051 107.179 123.663 109.91 128.917 109.91Z" fill="#001B36"/>
<path d="M163.59 194.661L94.4719 194.661L94.4719 206.904L163.59 206.904L163.59 194.661Z" fill="#001B36" stroke="#001B36" stroke-width="2"/>
<mask id="path-5-inside-1" fill="white">
<path d="M142.746 177.105C135.197 195.163 148.183 207.992 148.183 207.992L217.312 207.992C217.312 174.208 197.288 182.191 200.745 175.268C201.118 174.538 213.855 157.051 215.848 136.205C216.565 128.808 213.949 119.88 208.904 112.309C203.423 104.082 196.105 98.959 188.35 97.8707C178.114 96.43 166.24 100.007 157.374 103.661L140.6 129.556L140.797 130.669L152.518 142.136C152.518 142.136 168.609 129.157 175.214 127.716C181.838 126.285 189.44 127.062 189.44 139.735C189.44 152.411 151.385 156.461 142.746 177.105"/>
</mask>
<path d="M142.746 177.105C135.197 195.163 148.183 207.992 148.183 207.992L217.312 207.992C217.312 174.208 197.288 182.191 200.745 175.268C201.118 174.538 213.855 157.051 215.848 136.205C216.565 128.808 213.949 119.88 208.904 112.309C203.423 104.082 196.105 98.959 188.35 97.8707C178.114 96.43 166.24 100.007 157.374 103.661L140.6 129.556L140.797 130.669L152.518 142.136C152.518 142.136 168.609 129.157 175.214 127.716C181.838 126.285 189.44 127.062 189.44 139.735C189.44 152.411 151.385 156.461 142.746 177.105" fill="white"/>
<path d="M148.183 207.992L148.183 209.992L147.362 209.992L146.778 209.415L148.183 207.992ZM217.312 207.992L219.312 207.992L219.312 209.992L217.312 209.992L217.312 207.992ZM200.745 175.268L198.955 174.375L198.96 174.366L198.965 174.356L200.745 175.268ZM215.848 136.205L213.858 136.014L213.858 136.012L215.848 136.205ZM208.904 112.309L207.24 113.418L207.239 113.418L208.904 112.309ZM188.35 97.8707L188.072 99.8512L188.072 99.8511L188.35 97.8707ZM157.374 103.661L155.695 102.574L156.034 102.05L156.611 101.812L157.374 103.661ZM140.6 129.556L138.631 129.903L138.494 129.129L138.922 128.469L140.6 129.556ZM140.797 130.669L139.398 132.099L138.938 131.65L138.827 131.017L140.797 130.669ZM152.518 142.136L153.774 143.692L152.39 144.808L151.12 143.565L152.518 142.136ZM175.214 127.716L174.788 125.762L174.792 125.762L175.214 127.716ZM144.591 177.876C141.067 186.308 142.335 193.462 144.477 198.544C145.554 201.099 146.853 203.128 147.88 204.515C148.392 205.207 148.833 205.735 149.14 206.083C149.294 206.257 149.413 206.386 149.491 206.468C149.529 206.508 149.558 206.538 149.574 206.555C149.583 206.563 149.588 206.569 149.591 206.571C149.592 206.572 149.592 206.573 149.592 206.573C149.592 206.572 149.592 206.572 149.591 206.572C149.591 206.571 149.59 206.571 149.59 206.571C149.59 206.57 149.589 206.569 148.183 207.992C146.778 209.415 146.777 209.414 146.776 209.413C146.776 209.413 146.775 209.412 146.774 209.412C146.773 209.41 146.772 209.409 146.77 209.407C146.766 209.404 146.762 209.4 146.757 209.395C146.747 209.385 146.734 209.371 146.718 209.355C146.686 209.322 146.643 209.277 146.588 209.22C146.479 209.105 146.327 208.94 146.14 208.728C145.766 208.304 145.252 207.689 144.665 206.896C143.493 205.313 142.017 203.007 140.791 200.097C138.327 194.25 136.877 185.96 140.901 176.334L144.591 177.876ZM148.183 205.992L217.312 205.992L217.312 209.992L148.183 209.992L148.183 205.992ZM215.312 207.992C215.312 191.537 210.471 185.823 206.612 183.214C205.595 182.526 204.587 182.015 203.629 181.572C202.75 181.166 201.689 180.725 200.923 180.31C200.165 179.9 199.124 179.237 198.623 178.058C198.076 176.769 198.406 175.475 198.955 174.375L202.534 176.162C202.219 176.792 202.419 176.763 202.305 176.494C202.238 176.336 202.194 176.449 202.827 176.792C203.452 177.13 204.176 177.419 205.307 177.941C206.358 178.427 207.583 179.042 208.852 179.9C214.141 183.476 219.312 190.663 219.312 207.992L215.312 207.992ZM198.965 174.356C199.533 173.246 211.913 156.354 213.858 136.014L217.839 136.395C216.811 147.147 213.023 156.974 209.484 164.163C207.709 167.767 205.987 170.73 204.683 172.839C204.031 173.895 203.484 174.736 203.089 175.336C202.908 175.611 202.718 175.897 202.623 176.04C202.472 176.269 202.484 176.259 202.525 176.18L198.965 174.356ZM213.858 136.012C214.52 129.174 212.092 120.699 207.24 113.418L210.568 111.2C215.806 119.061 218.61 128.441 217.839 136.397L213.858 136.012ZM207.239 113.418C201.988 105.536 195.123 100.841 188.072 99.8512L188.628 95.8901C197.086 97.0771 204.858 102.629 210.568 111.2L207.239 113.418ZM188.072 99.8511C178.392 98.4889 166.939 101.882 158.136 105.511L156.611 101.812C165.54 98.1319 177.836 94.3711 188.629 95.8902L188.072 99.8511ZM159.052 104.749L142.279 130.644L138.922 128.469L155.695 102.574L159.052 104.749ZM142.57 129.209L142.766 130.322L138.827 131.017L138.631 129.903L142.57 129.209ZM142.195 129.24L153.917 140.706L151.12 143.565L139.398 132.099L142.195 129.24ZM152.518 142.136C151.263 140.579 151.263 140.579 151.263 140.579C151.263 140.578 151.263 140.578 151.264 140.578C151.264 140.577 151.265 140.577 151.266 140.576C151.269 140.574 151.272 140.571 151.276 140.568C151.284 140.561 151.297 140.551 151.313 140.539C151.345 140.513 151.391 140.476 151.452 140.427C151.575 140.329 151.754 140.187 151.983 140.006C152.442 139.643 153.103 139.125 153.917 138.5C155.543 137.25 157.783 135.565 160.235 133.833C162.684 132.103 165.367 130.309 167.875 128.849C170.327 127.421 172.805 126.195 174.788 125.762L175.641 129.67C174.321 129.958 172.311 130.895 169.888 132.306C167.521 133.684 164.944 135.404 162.543 137.1C160.147 138.792 157.952 140.442 156.355 141.671C155.557 142.284 154.909 142.792 154.462 143.145C154.239 143.321 154.065 143.459 153.949 143.552C153.89 143.599 153.846 143.634 153.817 143.658C153.802 143.67 153.791 143.679 153.784 143.684C153.78 143.687 153.778 143.689 153.776 143.691C153.775 143.691 153.774 143.692 153.774 143.692C153.774 143.692 153.774 143.692 153.774 143.692C153.774 143.692 153.774 143.692 152.518 142.136ZM174.792 125.762C178.22 125.021 182.418 124.715 185.823 126.711C189.408 128.812 191.44 133.027 191.44 139.735L187.44 139.735C187.44 133.77 185.672 131.259 183.8 130.162C181.748 128.959 178.832 128.981 175.637 129.671L174.792 125.762ZM191.44 139.735C191.44 143.999 188.239 147.152 184.474 149.679C180.625 152.262 175.427 154.68 170.211 157.229C164.913 159.818 159.49 162.589 154.863 165.956C150.241 169.321 146.556 173.181 144.591 177.877L140.901 176.333C143.255 170.707 147.567 166.32 152.509 162.722C157.448 159.128 163.158 156.224 168.454 153.635C173.832 151.007 178.688 148.745 182.245 146.358C185.885 143.915 187.44 141.808 187.44 139.735L191.44 139.735Z" fill="#001B36" mask="url(#path-5-inside-1)"/>
<mask id="path-7-inside-2" fill="white">
<path d="M188.723 94.9617C197.256 96.1598 205.229 101.699 211.145 110.565C216.564 118.628 219.305 128.203 218.557 136.189C217 152.501 209.557 165.603 205.758 171.344C208.218 172.371 209.931 176.862 209.931 176.862C209.931 176.862 231.325 159.45 231.325 132.585C231.325 102.785 212.796 80.0151 188.599 80.0151C169.216 80.0151 154.691 91.0469 154.691 91.0469L157.186 100.52C166.248 96.8817 178.154 93.4835 188.723 94.9617"/>
</mask>
<path d="M188.723 94.9617C197.256 96.1598 205.229 101.699 211.145 110.565C216.564 118.628 219.305 128.203 218.557 136.189C217 152.501 209.557 165.603 205.758 171.344C208.218 172.371 209.931 176.862 209.931 176.862C209.931 176.862 231.325 159.45 231.325 132.585C231.325 102.785 212.796 80.0151 188.599 80.0151C169.216 80.0151 154.691 91.0469 154.691 91.0469L157.186 100.52C166.248 96.8817 178.154 93.4835 188.723 94.9617" fill="white"/>
<path d="M211.145 110.565L209.485 111.68L209.482 111.675L211.145 110.565ZM218.557 136.189L220.548 136.375L220.548 136.379L218.557 136.189ZM205.758 171.344L204.987 173.19L202.755 172.258L204.09 170.24L205.758 171.344ZM209.931 176.862L211.193 178.413L209.048 180.159L208.062 177.574L209.931 176.862ZM154.691 91.0469L152.757 91.5562L152.417 90.263L153.482 89.4542L154.691 91.0469ZM157.186 100.52L157.931 102.376L155.829 103.22L155.252 101.029L157.186 100.52ZM189.001 92.9811C198.228 94.2766 206.655 100.234 212.809 109.455L209.482 111.675C203.802 103.164 196.285 98.043 188.445 96.9423L189.001 92.9811ZM212.805 109.449C218.429 117.818 221.347 127.845 220.548 136.375L216.566 136.002C217.262 128.561 214.699 119.438 209.485 111.68L212.805 109.449ZM220.548 136.379C218.947 153.157 211.309 166.579 207.426 172.448L204.09 170.24C207.805 164.626 215.054 151.846 216.566 135.999L220.548 136.379ZM206.528 169.498C207.523 169.914 208.326 170.622 208.937 171.305C209.561 172.001 210.082 172.779 210.491 173.474C210.903 174.175 211.226 174.834 211.445 175.315C211.555 175.557 211.641 175.758 211.7 175.902C211.73 175.974 211.753 176.032 211.77 176.073C211.778 176.094 211.785 176.111 211.79 176.124C211.792 176.13 211.794 176.135 211.796 176.14C211.797 176.142 211.797 176.143 211.798 176.145C211.798 176.146 211.799 176.146 211.799 176.147C211.799 176.147 211.799 176.148 211.799 176.148C211.799 176.148 211.799 176.149 209.931 176.862C208.062 177.574 208.062 177.575 208.062 177.575C208.062 177.575 208.063 177.575 208.063 177.576C208.063 177.576 208.063 177.576 208.063 177.577C208.063 177.577 208.063 177.577 208.063 177.577C208.063 177.577 208.063 177.576 208.062 177.573C208.06 177.569 208.057 177.561 208.052 177.548C208.042 177.524 208.026 177.484 208.004 177.431C207.961 177.326 207.893 177.168 207.805 176.973C207.626 176.58 207.366 176.052 207.043 175.502C206.716 174.946 206.347 174.408 205.958 173.974C205.557 173.526 205.222 173.288 204.987 173.19L206.528 169.498ZM209.931 176.862C208.668 175.31 208.668 175.311 208.667 175.311C208.667 175.311 208.667 175.311 208.667 175.311C208.667 175.312 208.667 175.311 208.668 175.311C208.669 175.31 208.671 175.308 208.675 175.305C208.682 175.299 208.694 175.289 208.711 175.275C208.745 175.246 208.799 175.201 208.871 175.14C209.014 175.017 209.231 174.829 209.509 174.577C210.067 174.073 210.872 173.317 211.843 172.323C213.788 170.334 216.386 167.404 218.985 163.658C224.19 156.153 229.325 145.478 229.325 132.585L233.325 132.585C233.325 146.558 227.763 158.021 222.271 165.938C219.521 169.903 216.771 173.004 214.704 175.119C213.67 176.178 212.804 176.991 212.191 177.545C211.884 177.822 211.641 178.034 211.471 178.179C211.387 178.252 211.32 178.308 211.273 178.347C211.25 178.366 211.231 178.381 211.218 178.393C211.211 178.398 211.206 178.402 211.202 178.406C211.2 178.408 211.198 178.409 211.197 178.41C211.196 178.411 211.195 178.411 211.195 178.412C211.194 178.412 211.193 178.413 209.931 176.862ZM229.325 132.585C229.325 103.483 211.324 82.0151 188.599 82.0151L188.599 78.0151C214.267 78.0151 233.325 102.087 233.325 132.585L229.325 132.585ZM188.599 82.0151C179.279 82.0151 171.091 84.6701 165.206 87.351C162.269 88.6889 159.923 90.0252 158.319 91.0219C157.518 91.52 156.903 91.9323 156.493 92.2164C156.288 92.3584 156.135 92.4682 156.035 92.5405C155.986 92.5767 155.95 92.6035 155.927 92.6202C155.916 92.6286 155.908 92.6344 155.904 92.6377C155.901 92.6393 155.9 92.6403 155.9 92.6406C155.9 92.6407 155.9 92.6407 155.9 92.6406C155.9 92.6405 155.9 92.6402 155.9 92.6402C155.901 92.6399 155.901 92.6396 154.691 91.0469C153.482 89.4542 153.482 89.4538 153.483 89.4533C153.483 89.4531 153.484 89.4526 153.484 89.4522C153.485 89.4513 153.487 89.4503 153.488 89.4491C153.492 89.4468 153.496 89.4438 153.5 89.4401C153.51 89.4327 153.523 89.4228 153.54 89.4102C153.574 89.3852 153.622 89.3501 153.683 89.3054C153.806 89.2162 153.983 89.089 154.214 88.9293C154.674 88.6101 155.345 88.1605 156.208 87.6244C157.933 86.5526 160.43 85.131 163.547 83.7109C169.77 80.876 178.536 78.0151 188.599 78.0151L188.599 82.0151ZM156.625 90.5376L159.12 100.01L155.252 101.029L152.757 91.5562L156.625 90.5376ZM156.441 98.6635C165.585 94.9927 177.896 91.428 189 92.981L188.446 96.9424C178.412 95.5391 166.911 98.7708 157.931 102.376L156.441 98.6635Z" fill="#001B36" mask="url(#path-7-inside-2)"/>
<path d="M223.321 212.185L140.496 212.185C138.988 212.185 137.761 212.483 136.94 213.046C136.176 213.57 135.673 214.382 135.673 215.702L135.673 231.008L181.902 231.008L227.802 231.008L227.802 215.702C227.802 214.327 227.345 213.522 226.677 213.022C225.957 212.484 224.838 212.185 223.321 212.185Z" fill="white" stroke="#001B36" stroke-width="2"/>
<mask id="path-10-outside-3" maskUnits="userSpaceOnUse" x="259.663" y="77.928" width="391" height="158" fill="black">
<rect fill="white" x="259.663" y="77.928" width="391" height="158"/>
<path d="M286.941 138.263C291.035 134.442 295.538 131.338 300.45 128.95C305.363 126.562 311.128 125.368 317.746 125.368C323.477 125.368 328.56 126.357 332.995 128.336C337.43 130.246 341.114 132.975 344.048 136.523C347.05 140.003 349.301 144.199 350.802 149.111C352.372 153.955 353.156 159.311 353.156 165.179V232.008H327.878V165.179C327.878 158.765 326.411 153.819 323.477 150.339C320.543 146.791 316.074 145.017 310.07 145.017C305.704 145.017 301.61 146.007 297.789 147.985C293.969 149.964 290.352 152.659 286.941 156.07V232.008H261.663V79.928H286.941V138.263Z"/>
<path d="M445.048 167.43C445.048 164.155 444.57 161.085 443.615 158.22C442.728 155.286 441.363 152.727 439.521 150.544C437.679 148.361 435.325 146.655 432.46 145.427C429.662 144.13 426.387 143.482 422.635 143.482C415.334 143.482 409.569 145.563 405.339 149.725C401.177 153.887 398.516 159.789 397.356 167.43H445.048ZM396.845 182.679C397.254 188.069 398.209 192.743 399.71 196.7C401.211 200.589 403.19 203.83 405.646 206.423C408.102 208.947 411.002 210.857 414.345 212.154C417.757 213.382 421.509 213.996 425.603 213.996C429.696 213.996 433.21 213.518 436.144 212.563C439.146 211.608 441.739 210.55 443.922 209.391C446.173 208.231 448.118 207.173 449.755 206.218C451.461 205.263 453.099 204.785 454.668 204.785C456.783 204.785 458.352 205.57 459.376 207.139L466.642 216.35C463.845 219.625 460.706 222.388 457.226 224.64C453.747 226.823 450.097 228.597 446.276 229.961C442.523 231.258 438.668 232.179 434.711 232.725C430.822 233.27 427.036 233.543 423.351 233.543C416.051 233.543 409.262 232.349 402.985 229.961C396.708 227.505 391.25 223.923 386.61 219.215C381.971 214.439 378.321 208.572 375.66 201.613C372.999 194.585 371.669 186.466 371.669 177.255C371.669 170.091 372.828 163.371 375.148 157.094C377.468 150.749 380.777 145.256 385.075 140.617C389.442 135.909 394.73 132.191 400.938 129.461C407.215 126.732 414.277 125.368 422.123 125.368C428.741 125.368 434.848 126.425 440.442 128.54C446.037 130.655 450.847 133.76 454.873 137.854C458.898 141.879 462.036 146.86 464.288 152.795C466.608 158.663 467.768 165.384 467.768 172.957C467.768 176.778 467.358 179.37 466.54 180.735C465.721 182.031 464.152 182.679 461.832 182.679H396.845Z"/>
<path d="M551.006 147.474C550.324 148.565 549.608 149.35 548.857 149.828C548.107 150.237 547.151 150.442 545.992 150.442C544.763 150.442 543.433 150.1 542 149.418C540.636 148.736 539.032 147.985 537.19 147.167C535.348 146.28 533.233 145.495 530.845 144.813C528.525 144.13 525.762 143.789 522.555 143.789C517.575 143.789 513.652 144.847 510.786 146.962C507.989 149.077 506.59 151.84 506.59 155.252C506.59 157.503 507.306 159.414 508.739 160.983C510.24 162.484 512.185 163.814 514.573 164.974C517.029 166.134 519.792 167.192 522.862 168.147C525.933 169.034 529.037 170.023 532.175 171.115C535.382 172.206 538.521 173.469 541.591 174.901C544.661 176.266 547.39 178.04 549.778 180.223C552.234 182.338 554.179 184.897 555.612 187.899C557.113 190.901 557.863 194.517 557.863 198.747C557.863 203.796 556.942 208.469 555.1 212.768C553.326 216.998 550.665 220.682 547.117 223.821C543.569 226.891 539.169 229.313 533.915 231.087C528.73 232.793 522.726 233.646 515.903 233.646C512.287 233.646 508.739 233.304 505.259 232.622C501.848 232.008 498.539 231.121 495.332 229.961C492.194 228.801 489.26 227.437 486.531 225.868C483.87 224.298 481.516 222.593 479.469 220.75L485.303 211.13C486.053 209.97 486.94 209.084 487.964 208.469C488.987 207.855 490.283 207.548 491.853 207.548C493.422 207.548 494.889 207.992 496.253 208.879C497.686 209.766 499.324 210.721 501.166 211.744C503.008 212.768 505.157 213.723 507.613 214.61C510.138 215.497 513.31 215.94 517.131 215.94C520.133 215.94 522.692 215.599 524.807 214.917C526.99 214.167 528.764 213.211 530.129 212.051C531.561 210.892 532.585 209.561 533.199 208.06C533.881 206.491 534.222 204.887 534.222 203.25C534.222 200.794 533.472 198.781 531.971 197.212C530.538 195.643 528.593 194.278 526.137 193.118C523.749 191.958 520.986 190.935 517.848 190.048C514.777 189.093 511.605 188.069 508.33 186.978C505.123 185.886 501.95 184.624 498.812 183.191C495.742 181.69 492.978 179.814 490.522 177.562C488.134 175.311 486.19 172.547 484.689 169.273C483.256 165.998 482.54 162.04 482.54 157.401C482.54 153.102 483.392 149.009 485.098 145.12C486.804 141.231 489.294 137.854 492.569 134.988C495.912 132.054 500.04 129.734 504.952 128.029C509.933 126.255 515.664 125.368 522.146 125.368C529.378 125.368 535.962 126.562 541.898 128.95C547.834 131.338 552.78 134.476 556.737 138.365L551.006 147.474Z"/>
<path d="M641.158 147.474C640.476 148.565 639.759 149.35 639.009 149.828C638.258 150.237 637.303 150.442 636.143 150.442C634.915 150.442 633.585 150.1 632.152 149.418C630.787 148.736 629.184 147.985 627.342 147.167C625.5 146.28 623.385 145.495 620.997 144.813C618.677 144.13 615.914 143.789 612.707 143.789C607.726 143.789 603.803 144.847 600.938 146.962C598.14 149.077 596.742 151.84 596.742 155.252C596.742 157.503 597.458 159.414 598.891 160.983C600.392 162.484 602.336 163.814 604.724 164.974C607.18 166.134 609.944 167.192 613.014 168.147C616.084 169.034 619.189 170.023 622.327 171.115C625.534 172.206 628.672 173.469 631.742 174.901C634.813 176.266 637.542 178.04 639.93 180.223C642.386 182.338 644.331 184.897 645.763 187.899C647.264 190.901 648.015 194.517 648.015 198.747C648.015 203.796 647.094 208.469 645.252 212.768C643.478 216.998 640.817 220.682 637.269 223.821C633.721 226.891 629.32 229.313 624.067 231.087C618.882 232.793 612.877 233.646 606.055 233.646C602.439 233.646 598.891 233.304 595.411 232.622C592 232.008 588.691 231.121 585.484 229.961C582.345 228.801 579.412 227.437 576.683 225.868C574.022 224.298 571.668 222.593 569.621 220.75L575.454 211.13C576.205 209.97 577.092 209.084 578.115 208.469C579.139 207.855 580.435 207.548 582.004 207.548C583.574 207.548 585.04 207.992 586.405 208.879C587.838 209.766 589.475 210.721 591.317 211.744C593.16 212.768 595.309 213.723 597.765 214.61C600.289 215.497 603.462 215.94 607.283 215.94C610.285 215.94 612.843 215.599 614.958 214.917C617.142 214.167 618.916 213.211 620.28 212.051C621.713 210.892 622.736 209.561 623.35 208.06C624.033 206.491 624.374 204.887 624.374 203.25C624.374 200.794 623.623 198.781 622.122 197.212C620.69 195.643 618.745 194.278 616.289 193.118C613.901 191.958 611.138 190.935 607.999 190.048C604.929 189.093 601.756 188.069 598.481 186.978C595.275 185.886 592.102 184.624 588.964 183.191C585.893 181.69 583.13 179.814 580.674 177.562C578.286 175.311 576.341 172.547 574.84 169.273C573.408 165.998 572.691 162.04 572.691 157.401C572.691 153.102 573.544 149.009 575.25 145.12C576.955 141.231 579.446 137.854 582.721 134.988C586.064 132.054 590.192 129.734 595.104 128.029C600.085 126.255 605.816 125.368 612.298 125.368C619.53 125.368 626.114 126.562 632.05 128.95C637.985 131.338 642.932 134.476 646.889 138.365L641.158 147.474Z"/>
</mask>
<path d="M286.941 138.263C291.035 134.442 295.538 131.338 300.45 128.95C305.363 126.562 311.128 125.368 317.746 125.368C323.477 125.368 328.56 126.357 332.995 128.336C337.43 130.246 341.114 132.975 344.048 136.523C347.05 140.003 349.301 144.199 350.802 149.111C352.372 153.955 353.156 159.311 353.156 165.179V232.008H327.878V165.179C327.878 158.765 326.411 153.819 323.477 150.339C320.543 146.791 316.074 145.017 310.07 145.017C305.704 145.017 301.61 146.007 297.789 147.985C293.969 149.964 290.352 152.659 286.941 156.07V232.008H261.663V79.928H286.941V138.263Z" fill="white"/>
<path d="M445.048 167.43C445.048 164.155 444.57 161.085 443.615 158.22C442.728 155.286 441.363 152.727 439.521 150.544C437.679 148.361 435.325 146.655 432.46 145.427C429.662 144.13 426.387 143.482 422.635 143.482C415.334 143.482 409.569 145.563 405.339 149.725C401.177 153.887 398.516 159.789 397.356 167.43H445.048ZM396.845 182.679C397.254 188.069 398.209 192.743 399.71 196.7C401.211 200.589 403.19 203.83 405.646 206.423C408.102 208.947 411.002 210.857 414.345 212.154C417.757 213.382 421.509 213.996 425.603 213.996C429.696 213.996 433.21 213.518 436.144 212.563C439.146 211.608 441.739 210.55 443.922 209.391C446.173 208.231 448.118 207.173 449.755 206.218C451.461 205.263 453.099 204.785 454.668 204.785C456.783 204.785 458.352 205.57 459.376 207.139L466.642 216.35C463.845 219.625 460.706 222.388 457.226 224.64C453.747 226.823 450.097 228.597 446.276 229.961C442.523 231.258 438.668 232.179 434.711 232.725C430.822 233.27 427.036 233.543 423.351 233.543C416.051 233.543 409.262 232.349 402.985 229.961C396.708 227.505 391.25 223.923 386.61 219.215C381.971 214.439 378.321 208.572 375.66 201.613C372.999 194.585 371.669 186.466 371.669 177.255C371.669 170.091 372.828 163.371 375.148 157.094C377.468 150.749 380.777 145.256 385.075 140.617C389.442 135.909 394.73 132.191 400.938 129.461C407.215 126.732 414.277 125.368 422.123 125.368C428.741 125.368 434.848 126.425 440.442 128.54C446.037 130.655 450.847 133.76 454.873 137.854C458.898 141.879 462.036 146.86 464.288 152.795C466.608 158.663 467.768 165.384 467.768 172.957C467.768 176.778 467.358 179.37 466.54 180.735C465.721 182.031 464.152 182.679 461.832 182.679H396.845Z" fill="white"/>
<path d="M551.006 147.474C550.324 148.565 549.608 149.35 548.857 149.828C548.107 150.237 547.151 150.442 545.992 150.442C544.763 150.442 543.433 150.1 542 149.418C540.636 148.736 539.032 147.985 537.19 147.167C535.348 146.28 533.233 145.495 530.845 144.813C528.525 144.13 525.762 143.789 522.555 143.789C517.575 143.789 513.652 144.847 510.786 146.962C507.989 149.077 506.59 151.84 506.59 155.252C506.59 157.503 507.306 159.414 508.739 160.983C510.24 162.484 512.185 163.814 514.573 164.974C517.029 166.134 519.792 167.192 522.862 168.147C525.933 169.034 529.037 170.023 532.175 171.115C535.382 172.206 538.521 173.469 541.591 174.901C544.661 176.266 547.39 178.04 549.778 180.223C552.234 182.338 554.179 184.897 555.612 187.899C557.113 190.901 557.863 194.517 557.863 198.747C557.863 203.796 556.942 208.469 555.1 212.768C553.326 216.998 550.665 220.682 547.117 223.821C543.569 226.891 539.169 229.313 533.915 231.087C528.73 232.793 522.726 233.646 515.903 233.646C512.287 233.646 508.739 233.304 505.259 232.622C501.848 232.008 498.539 231.121 495.332 229.961C492.194 228.801 489.26 227.437 486.531 225.868C483.87 224.298 481.516 222.593 479.469 220.75L485.303 211.13C486.053 209.97 486.94 209.084 487.964 208.469C488.987 207.855 490.283 207.548 491.853 207.548C493.422 207.548 494.889 207.992 496.253 208.879C497.686 209.766 499.324 210.721 501.166 211.744C503.008 212.768 505.157 213.723 507.613 214.61C510.138 215.497 513.31 215.94 517.131 215.94C520.133 215.94 522.692 215.599 524.807 214.917C526.99 214.167 528.764 213.211 530.129 212.051C531.561 210.892 532.585 209.561 533.199 208.06C533.881 206.491 534.222 204.887 534.222 203.25C534.222 200.794 533.472 198.781 531.971 197.212C530.538 195.643 528.593 194.278 526.137 193.118C523.749 191.958 520.986 190.935 517.848 190.048C514.777 189.093 511.605 188.069 508.33 186.978C505.123 185.886 501.95 184.624 498.812 183.191C495.742 181.69 492.978 179.814 490.522 177.562C488.134 175.311 486.19 172.547 484.689 169.273C483.256 165.998 482.54 162.04 482.54 157.401C482.54 153.102 483.392 149.009 485.098 145.12C486.804 141.231 489.294 137.854 492.569 134.988C495.912 132.054 500.04 129.734 504.952 128.029C509.933 126.255 515.664 125.368 522.146 125.368C529.378 125.368 535.962 126.562 541.898 128.95C547.834 131.338 552.78 134.476 556.737 138.365L551.006 147.474Z" fill="white"/>
<path d="M641.158 147.474C640.476 148.565 639.759 149.35 639.009 149.828C638.258 150.237 637.303 150.442 636.143 150.442C634.915 150.442 633.585 150.1 632.152 149.418C630.787 148.736 629.184 147.985 627.342 147.167C625.5 146.28 623.385 145.495 620.997 144.813C618.677 144.13 615.914 143.789 612.707 143.789C607.726 143.789 603.803 144.847 600.938 146.962C598.14 149.077 596.742 151.84 596.742 155.252C596.742 157.503 597.458 159.414 598.891 160.983C600.392 162.484 602.336 163.814 604.724 164.974C607.18 166.134 609.944 167.192 613.014 168.147C616.084 169.034 619.189 170.023 622.327 171.115C625.534 172.206 628.672 173.469 631.742 174.901C634.813 176.266 637.542 178.04 639.93 180.223C642.386 182.338 644.331 184.897 645.763 187.899C647.264 190.901 648.015 194.517 648.015 198.747C648.015 203.796 647.094 208.469 645.252 212.768C643.478 216.998 640.817 220.682 637.269 223.821C633.721 226.891 629.32 229.313 624.067 231.087C618.882 232.793 612.877 233.646 606.055 233.646C602.439 233.646 598.891 233.304 595.411 232.622C592 232.008 588.691 231.121 585.484 229.961C582.345 228.801 579.412 227.437 576.683 225.868C574.022 224.298 571.668 222.593 569.621 220.75L575.454 211.13C576.205 209.97 577.092 209.084 578.115 208.469C579.139 207.855 580.435 207.548 582.004 207.548C583.574 207.548 585.04 207.992 586.405 208.879C587.838 209.766 589.475 210.721 591.317 211.744C593.16 212.768 595.309 213.723 597.765 214.61C600.289 215.497 603.462 215.94 607.283 215.94C610.285 215.94 612.843 215.599 614.958 214.917C617.142 214.167 618.916 213.211 620.28 212.051C621.713 210.892 622.736 209.561 623.35 208.06C624.033 206.491 624.374 204.887 624.374 203.25C624.374 200.794 623.623 198.781 622.122 197.212C620.69 195.643 618.745 194.278 616.289 193.118C613.901 191.958 611.138 190.935 607.999 190.048C604.929 189.093 601.756 188.069 598.481 186.978C595.275 185.886 592.102 184.624 588.964 183.191C585.893 181.69 583.13 179.814 580.674 177.562C578.286 175.311 576.341 172.547 574.84 169.273C573.408 165.998 572.691 162.04 572.691 157.401C572.691 153.102 573.544 149.009 575.25 145.12C576.955 141.231 579.446 137.854 582.721 134.988C586.064 132.054 590.192 129.734 595.104 128.029C600.085 126.255 605.816 125.368 612.298 125.368C619.53 125.368 626.114 126.562 632.05 128.95C637.985 131.338 642.932 134.476 646.889 138.365L641.158 147.474Z" fill="white"/>
<path d="M286.941 138.263C291.035 134.442 295.538 131.338 300.45 128.95C305.363 126.562 311.128 125.368 317.746 125.368C323.477 125.368 328.56 126.357 332.995 128.336C337.43 130.246 341.114 132.975 344.048 136.523C347.05 140.003 349.301 144.199 350.802 149.111C352.372 153.955 353.156 159.311 353.156 165.179V232.008H327.878V165.179C327.878 158.765 326.411 153.819 323.477 150.339C320.543 146.791 316.074 145.017 310.07 145.017C305.704 145.017 301.61 146.007 297.789 147.985C293.969 149.964 290.352 152.659 286.941 156.07V232.008H261.663V79.928H286.941V138.263Z" stroke="#001B36" stroke-width="4" mask="url(#path-10-outside-3)"/>
<path d="M445.048 167.43C445.048 164.155 444.57 161.085 443.615 158.22C442.728 155.286 441.363 152.727 439.521 150.544C437.679 148.361 435.325 146.655 432.46 145.427C429.662 144.13 426.387 143.482 422.635 143.482C415.334 143.482 409.569 145.563 405.339 149.725C401.177 153.887 398.516 159.789 397.356 167.43H445.048ZM396.845 182.679C397.254 188.069 398.209 192.743 399.71 196.7C401.211 200.589 403.19 203.83 405.646 206.423C408.102 208.947 411.002 210.857 414.345 212.154C417.757 213.382 421.509 213.996 425.603 213.996C429.696 213.996 433.21 213.518 436.144 212.563C439.146 211.608 441.739 210.55 443.922 209.391C446.173 208.231 448.118 207.173 449.755 206.218C451.461 205.263 453.099 204.785 454.668 204.785C456.783 204.785 458.352 205.57 459.376 207.139L466.642 216.35C463.845 219.625 460.706 222.388 457.226 224.64C453.747 226.823 450.097 228.597 446.276 229.961C442.523 231.258 438.668 232.179 434.711 232.725C430.822 233.27 427.036 233.543 423.351 233.543C416.051 233.543 409.262 232.349 402.985 229.961C396.708 227.505 391.25 223.923 386.61 219.215C381.971 214.439 378.321 208.572 375.66 201.613C372.999 194.585 371.669 186.466 371.669 177.255C371.669 170.091 372.828 163.371 375.148 157.094C377.468 150.749 380.777 145.256 385.075 140.617C389.442 135.909 394.73 132.191 400.938 129.461C407.215 126.732 414.277 125.368 422.123 125.368C428.741 125.368 434.848 126.425 440.442 128.54C446.037 130.655 450.847 133.76 454.873 137.854C458.898 141.879 462.036 146.86 464.288 152.795C466.608 158.663 467.768 165.384 467.768 172.957C467.768 176.778 467.358 179.37 466.54 180.735C465.721 182.031 464.152 182.679 461.832 182.679H396.845Z" stroke="#001B36" stroke-width="4" mask="url(#path-10-outside-3)"/>
<path d="M551.006 147.474C550.324 148.565 549.608 149.35 548.857 149.828C548.107 150.237 547.151 150.442 545.992 150.442C544.763 150.442 543.433 150.1 542 149.418C540.636 148.736 539.032 147.985 537.19 147.167C535.348 146.28 533.233 145.495 530.845 144.813C528.525 144.13 525.762 143.789 522.555 143.789C517.575 143.789 513.652 144.847 510.786 146.962C507.989 149.077 506.59 151.84 506.59 155.252C506.59 157.503 507.306 159.414 508.739 160.983C510.24 162.484 512.185 163.814 514.573 164.974C517.029 166.134 519.792 167.192 522.862 168.147C525.933 169.034 529.037 170.023 532.175 171.115C535.382 172.206 538.521 173.469 541.591 174.901C544.661 176.266 547.39 178.04 549.778 180.223C552.234 182.338 554.179 184.897 555.612 187.899C557.113 190.901 557.863 194.517 557.863 198.747C557.863 203.796 556.942 208.469 555.1 212.768C553.326 216.998 550.665 220.682 547.117 223.821C543.569 226.891 539.169 229.313 533.915 231.087C528.73 232.793 522.726 233.646 515.903 233.646C512.287 233.646 508.739 233.304 505.259 232.622C501.848 232.008 498.539 231.121 495.332 229.961C492.194 228.801 489.26 227.437 486.531 225.868C483.87 224.298 481.516 222.593 479.469 220.75L485.303 211.13C486.053 209.97 486.94 209.084 487.964 208.469C488.987 207.855 490.283 207.548 491.853 207.548C493.422 207.548 494.889 207.992 496.253 208.879C497.686 209.766 499.324 210.721 501.166 211.744C503.008 212.768 505.157 213.723 507.613 214.61C510.138 215.497 513.31 215.94 517.131 215.94C520.133 215.94 522.692 215.599 524.807 214.917C526.99 214.167 528.764 213.211 530.129 212.051C531.561 210.892 532.585 209.561 533.199 208.06C533.881 206.491 534.222 204.887 534.222 203.25C534.222 200.794 533.472 198.781 531.971 197.212C530.538 195.643 528.593 194.278 526.137 193.118C523.749 191.958 520.986 190.935 517.848 190.048C514.777 189.093 511.605 188.069 508.33 186.978C505.123 185.886 501.95 184.624 498.812 183.191C495.742 181.69 492.978 179.814 490.522 177.562C488.134 175.311 486.19 172.547 484.689 169.273C483.256 165.998 482.54 162.04 482.54 157.401C482.54 153.102 483.392 149.009 485.098 145.12C486.804 141.231 489.294 137.854 492.569 134.988C495.912 132.054 500.04 129.734 504.952 128.029C509.933 126.255 515.664 125.368 522.146 125.368C529.378 125.368 535.962 126.562 541.898 128.95C547.834 131.338 552.78 134.476 556.737 138.365L551.006 147.474Z" stroke="#001B36" stroke-width="4" mask="url(#path-10-outside-3)"/>
<path d="M641.158 147.474C640.476 148.565 639.759 149.35 639.009 149.828C638.258 150.237 637.303 150.442 636.143 150.442C634.915 150.442 633.585 150.1 632.152 149.418C630.787 148.736 629.184 147.985 627.342 147.167C625.5 146.28 623.385 145.495 620.997 144.813C618.677 144.13 615.914 143.789 612.707 143.789C607.726 143.789 603.803 144.847 600.938 146.962C598.14 149.077 596.742 151.84 596.742 155.252C596.742 157.503 597.458 159.414 598.891 160.983C600.392 162.484 602.336 163.814 604.724 164.974C607.18 166.134 609.944 167.192 613.014 168.147C616.084 169.034 619.189 170.023 622.327 171.115C625.534 172.206 628.672 173.469 631.742 174.901C634.813 176.266 637.542 178.04 639.93 180.223C642.386 182.338 644.331 184.897 645.763 187.899C647.264 190.901 648.015 194.517 648.015 198.747C648.015 203.796 647.094 208.469 645.252 212.768C643.478 216.998 640.817 220.682 637.269 223.821C633.721 226.891 629.32 229.313 624.067 231.087C618.882 232.793 612.877 233.646 606.055 233.646C602.439 233.646 598.891 233.304 595.411 232.622C592 232.008 588.691 231.121 585.484 229.961C582.345 228.801 579.412 227.437 576.683 225.868C574.022 224.298 571.668 222.593 569.621 220.75L575.454 211.13C576.205 209.97 577.092 209.084 578.115 208.469C579.139 207.855 580.435 207.548 582.004 207.548C583.574 207.548 585.04 207.992 586.405 208.879C587.838 209.766 589.475 210.721 591.317 211.744C593.16 212.768 595.309 213.723 597.765 214.61C600.289 215.497 603.462 215.94 607.283 215.94C610.285 215.94 612.843 215.599 614.958 214.917C617.142 214.167 618.916 213.211 620.28 212.051C621.713 210.892 622.736 209.561 623.35 208.06C624.033 206.491 624.374 204.887 624.374 203.25C624.374 200.794 623.623 198.781 622.122 197.212C620.69 195.643 618.745 194.278 616.289 193.118C613.901 191.958 611.138 190.935 607.999 190.048C604.929 189.093 601.756 188.069 598.481 186.978C595.275 185.886 592.102 184.624 588.964 183.191C585.893 181.69 583.13 179.814 580.674 177.562C578.286 175.311 576.341 172.547 574.84 169.273C573.408 165.998 572.691 162.04 572.691 157.401C572.691 153.102 573.544 149.009 575.25 145.12C576.955 141.231 579.446 137.854 582.721 134.988C586.064 132.054 590.192 129.734 595.104 128.029C600.085 126.255 605.816 125.368 612.298 125.368C619.53 125.368 626.114 126.562 632.05 128.95C637.985 131.338 642.932 134.476 646.889 138.365L641.158 147.474Z" stroke="#001B36" stroke-width="4" mask="url(#path-10-outside-3)"/>
<mask id="path-11-outside-4" maskUnits="userSpaceOnUse" x="667.322" y="78.9141" width="696" height="156" fill="black">
<rect fill="white" x="667.322" y="78.9141" width="696" height="156"/>
<path d="M692.855 145.352C696.087 139.157 699.925 134.309 704.369 130.808C708.813 127.239 714.065 125.455 720.125 125.455C724.906 125.455 728.744 126.499 731.639 128.586L730.023 147.271C729.687 148.483 729.182 149.358 728.508 149.897C727.902 150.368 727.061 150.604 725.983 150.604C724.973 150.604 723.458 150.436 721.438 150.099C719.486 149.762 717.567 149.594 715.681 149.594C712.921 149.594 710.463 149.998 708.308 150.806C706.154 151.614 704.201 152.792 702.45 154.341C700.767 155.822 699.252 157.64 697.905 159.795C696.626 161.95 695.414 164.407 694.269 167.168V231H669.322V127.374H683.967C686.526 127.374 688.31 127.845 689.32 128.788C690.33 129.663 691.004 131.279 691.34 133.636L692.855 145.352Z"/>
<path d="M787.773 125.758C795.449 125.758 802.418 127.004 808.68 129.495C815.009 131.986 820.396 135.521 824.84 140.1C829.351 144.679 832.819 150.267 835.243 156.866C837.667 163.465 838.879 170.838 838.879 178.985C838.879 187.2 837.667 194.606 835.243 201.205C832.819 207.804 829.351 213.426 824.84 218.072C820.396 222.718 815.009 226.287 808.68 228.778C802.418 231.269 795.449 232.515 787.773 232.515C780.029 232.515 772.993 231.269 766.664 228.778C760.334 226.287 754.914 222.718 750.403 218.072C745.959 213.426 742.491 207.804 740 201.205C737.576 194.606 736.364 187.2 736.364 178.985C736.364 170.838 737.576 163.465 740 156.866C742.491 150.267 745.959 144.679 750.403 140.1C754.914 135.521 760.334 131.986 766.664 129.495C772.993 127.004 780.029 125.758 787.773 125.758ZM787.773 213.325C796.391 213.325 802.754 210.43 806.862 204.639C811.036 198.848 813.124 190.364 813.124 179.187C813.124 168.01 811.036 159.492 806.862 153.634C802.754 147.776 796.391 144.847 787.773 144.847C779.019 144.847 772.522 147.81 768.28 153.735C764.105 159.593 762.018 168.077 762.018 179.187C762.018 190.297 764.105 198.781 768.28 204.639C772.522 210.43 779.019 213.325 787.773 213.325Z"/>
<path d="M947.395 127.374V231H932.144C928.845 231 926.757 229.485 925.882 226.455L924.165 218.173C919.923 222.482 915.243 225.984 910.126 228.677C905.009 231.303 898.982 232.616 892.047 232.616C886.391 232.616 881.375 231.673 876.998 229.788C872.689 227.835 869.053 225.108 866.09 221.607C863.127 218.106 860.872 213.965 859.323 209.184C857.842 204.336 857.101 199.017 857.101 193.226V127.374H882.048V193.226C882.048 199.555 883.496 204.471 886.391 207.972C889.354 211.406 893.764 213.123 899.622 213.123C903.931 213.123 907.971 212.18 911.742 210.295C915.513 208.342 919.081 205.683 922.448 202.316V127.374H947.395Z"/>
<path d="M997.58 80.9141V231H972.633V80.9141H997.58Z"/>
<path d="M1089.4 167.269C1089.4 164.037 1088.93 161.007 1087.98 158.179C1087.11 155.284 1085.76 152.759 1083.94 150.604C1082.12 148.449 1079.8 146.766 1076.97 145.554C1074.21 144.275 1070.98 143.635 1067.28 143.635C1060.07 143.635 1054.38 145.689 1050.21 149.796C1046.1 153.903 1043.48 159.728 1042.33 167.269H1089.4ZM1041.83 182.318C1042.23 187.637 1043.17 192.25 1044.65 196.155C1046.14 199.993 1048.09 203.191 1050.51 205.75C1052.94 208.241 1055.8 210.127 1059.1 211.406C1062.46 212.618 1066.17 213.224 1070.21 213.224C1074.25 213.224 1077.71 212.753 1080.61 211.81C1083.57 210.867 1086.13 209.824 1088.29 208.679C1090.51 207.534 1092.43 206.491 1094.04 205.548C1095.73 204.605 1097.34 204.134 1098.89 204.134C1100.98 204.134 1102.53 204.908 1103.54 206.457L1110.71 215.547C1107.95 218.779 1104.85 221.506 1101.42 223.728C1097.98 225.883 1094.38 227.633 1090.61 228.98C1086.91 230.259 1083.1 231.168 1079.2 231.707C1075.36 232.246 1071.62 232.515 1067.98 232.515C1060.78 232.515 1054.08 231.337 1047.89 228.98C1041.69 226.556 1036.3 223.021 1031.73 218.375C1027.15 213.662 1023.54 207.871 1020.92 201.003C1018.29 194.068 1016.98 186.055 1016.98 176.965C1016.98 169.895 1018.12 163.263 1020.41 157.068C1022.7 150.806 1025.97 145.386 1030.21 140.807C1034.52 136.161 1039.74 132.491 1045.87 129.798C1052.06 127.105 1059.03 125.758 1066.77 125.758C1073.3 125.758 1079.33 126.802 1084.85 128.889C1090.37 130.976 1095.12 134.04 1099.09 138.08C1103.07 142.053 1106.16 146.968 1108.38 152.826C1110.67 158.617 1111.82 165.249 1111.82 172.723C1111.82 176.494 1111.41 179.052 1110.61 180.399C1109.8 181.678 1108.25 182.318 1105.96 182.318H1041.83Z"/>
<path d="M1164.3 232.616C1155.27 232.616 1148.34 230.091 1143.49 225.041C1138.71 219.924 1136.32 212.887 1136.32 203.932V146.059H1125.71C1124.37 146.059 1123.22 145.621 1122.28 144.746C1121.34 143.871 1120.87 142.558 1120.87 140.807V130.909L1137.53 128.182L1142.78 99.9021C1143.12 98.5554 1143.76 97.5117 1144.7 96.7711C1145.64 96.0304 1146.86 95.6601 1148.34 95.6601H1161.27V128.283H1204.39L1209.75 99.9021C1210.08 98.5554 1210.69 97.5117 1211.56 96.7711C1212.51 96.0304 1213.75 95.6601 1215.3 95.6601H1228.13V128.283H1255.8V146.059H1228.13V202.215C1228.13 205.447 1228.94 207.972 1230.55 209.79C1232.17 211.608 1234.36 212.517 1237.12 212.517C1238.6 212.517 1239.88 212.349 1240.95 212.012C1242.03 211.608 1242.94 211.204 1243.68 210.8C1244.49 210.396 1245.2 210.026 1245.8 209.689C1246.41 209.285 1247.01 209.083 1247.62 209.083C1248.36 209.083 1248.97 209.285 1249.44 209.689C1249.91 210.026 1250.42 210.564 1250.95 211.305L1258.43 223.425C1254.79 226.455 1250.62 228.744 1245.9 230.293C1241.19 231.842 1236.31 232.616 1231.26 232.616C1222.24 232.616 1215.3 230.091 1210.45 225.041C1205.6 219.924 1203.18 212.887 1203.18 203.932V146.059H1161.27V202.215C1161.27 205.447 1162.04 207.972 1163.59 209.79C1165.2 211.608 1167.39 212.517 1170.15 212.517C1171.7 212.517 1172.98 212.349 1173.99 212.012C1175.07 211.608 1175.98 211.204 1176.72 210.8C1177.53 210.396 1178.23 210.026 1178.84 209.689C1179.45 209.285 1180.05 209.083 1180.66 209.083C1181.4 209.083 1182 209.285 1182.48 209.689C1182.95 210.026 1183.45 210.564 1183.99 211.305L1191.46 223.425C1187.83 226.455 1183.65 228.744 1178.94 230.293C1174.23 231.842 1169.35 232.616 1164.3 232.616Z"/>
<path d="M1337.96 167.269C1337.96 164.037 1337.49 161.007 1336.54 158.179C1335.67 155.284 1334.32 152.759 1332.5 150.604C1330.69 148.449 1328.36 146.766 1325.53 145.554C1322.77 144.275 1319.54 143.635 1315.84 143.635C1308.63 143.635 1302.94 145.689 1298.77 149.796C1294.66 153.903 1292.04 159.728 1290.89 167.269H1337.96ZM1290.39 182.318C1290.79 187.637 1291.73 192.25 1293.21 196.155C1294.7 199.993 1296.65 203.191 1299.07 205.75C1301.5 208.241 1304.36 210.127 1307.66 211.406C1311.02 212.618 1314.73 213.224 1318.77 213.224C1322.81 213.224 1326.27 212.753 1329.17 211.81C1332.13 210.867 1334.69 209.824 1336.85 208.679C1339.07 207.534 1340.99 206.491 1342.6 205.548C1344.29 204.605 1345.9 204.134 1347.45 204.134C1349.54 204.134 1351.09 204.908 1352.1 206.457L1359.27 215.547C1356.51 218.779 1353.41 221.506 1349.98 223.728C1346.54 225.883 1342.94 227.633 1339.17 228.98C1335.47 230.259 1331.66 231.168 1327.76 231.707C1323.92 232.246 1320.18 232.515 1316.55 232.515C1309.34 232.515 1302.64 231.337 1296.45 228.98C1290.25 226.556 1284.86 223.021 1280.29 218.375C1275.71 213.662 1272.11 207.871 1269.48 201.003C1266.85 194.068 1265.54 186.055 1265.54 176.965C1265.54 169.895 1266.68 163.263 1268.97 157.068C1271.26 150.806 1274.53 145.386 1278.77 140.807C1283.08 136.161 1288.3 132.491 1294.43 129.798C1300.62 127.105 1307.59 125.758 1315.33 125.758C1321.86 125.758 1327.89 126.802 1333.41 128.889C1338.93 130.976 1343.68 134.04 1347.65 138.08C1351.63 142.053 1354.72 146.968 1356.95 152.826C1359.23 158.617 1360.38 165.249 1360.38 172.723C1360.38 176.494 1359.98 179.052 1359.17 180.399C1358.36 181.678 1356.81 182.318 1354.52 182.318H1290.39Z"/>
</mask>
<path d="M692.855 145.352C696.087 139.157 699.925 134.309 704.369 130.808C708.813 127.239 714.065 125.455 720.125 125.455C724.906 125.455 728.744 126.499 731.639 128.586L730.023 147.271C729.687 148.483 729.182 149.358 728.508 149.897C727.902 150.368 727.061 150.604 725.983 150.604C724.973 150.604 723.458 150.436 721.438 150.099C719.486 149.762 717.567 149.594 715.681 149.594C712.921 149.594 710.463 149.998 708.308 150.806C706.154 151.614 704.201 152.792 702.45 154.341C700.767 155.822 699.252 157.64 697.905 159.795C696.626 161.95 695.414 164.407 694.269 167.168V231H669.322V127.374H683.967C686.526 127.374 688.31 127.845 689.32 128.788C690.33 129.663 691.004 131.279 691.34 133.636L692.855 145.352Z" fill="white"/>
<path d="M787.773 125.758C795.449 125.758 802.418 127.004 808.68 129.495C815.009 131.986 820.396 135.521 824.84 140.1C829.351 144.679 832.819 150.267 835.243 156.866C837.667 163.465 838.879 170.838 838.879 178.985C838.879 187.2 837.667 194.606 835.243 201.205C832.819 207.804 829.351 213.426 824.84 218.072C820.396 222.718 815.009 226.287 808.68 228.778C802.418 231.269 795.449 232.515 787.773 232.515C780.029 232.515 772.993 231.269 766.664 228.778C760.334 226.287 754.914 222.718 750.403 218.072C745.959 213.426 742.491 207.804 740 201.205C737.576 194.606 736.364 187.2 736.364 178.985C736.364 170.838 737.576 163.465 740 156.866C742.491 150.267 745.959 144.679 750.403 140.1C754.914 135.521 760.334 131.986 766.664 129.495C772.993 127.004 780.029 125.758 787.773 125.758ZM787.773 213.325C796.391 213.325 802.754 210.43 806.862 204.639C811.036 198.848 813.124 190.364 813.124 179.187C813.124 168.01 811.036 159.492 806.862 153.634C802.754 147.776 796.391 144.847 787.773 144.847C779.019 144.847 772.522 147.81 768.28 153.735C764.105 159.593 762.018 168.077 762.018 179.187C762.018 190.297 764.105 198.781 768.28 204.639C772.522 210.43 779.019 213.325 787.773 213.325Z" fill="white"/>
<path d="M947.395 127.374V231H932.144C928.845 231 926.757 229.485 925.882 226.455L924.165 218.173C919.923 222.482 915.243 225.984 910.126 228.677C905.009 231.303 898.982 232.616 892.047 232.616C886.391 232.616 881.375 231.673 876.998 229.788C872.689 227.835 869.053 225.108 866.09 221.607C863.127 218.106 860.872 213.965 859.323 209.184C857.842 204.336 857.101 199.017 857.101 193.226V127.374H882.048V193.226C882.048 199.555 883.496 204.471 886.391 207.972C889.354 211.406 893.764 213.123 899.622 213.123C903.931 213.123 907.971 212.18 911.742 210.295C915.513 208.342 919.081 205.683 922.448 202.316V127.374H947.395Z" fill="white"/>
<path d="M997.58 80.9141V231H972.633V80.9141H997.58Z" fill="white"/>
<path d="M1089.4 167.269C1089.4 164.037 1088.93 161.007 1087.98 158.179C1087.11 155.284 1085.76 152.759 1083.94 150.604C1082.12 148.449 1079.8 146.766 1076.97 145.554C1074.21 144.275 1070.98 143.635 1067.28 143.635C1060.07 143.635 1054.38 145.689 1050.21 149.796C1046.1 153.903 1043.48 159.728 1042.33 167.269H1089.4ZM1041.83 182.318C1042.23 187.637 1043.17 192.25 1044.65 196.155C1046.14 199.993 1048.09 203.191 1050.51 205.75C1052.94 208.241 1055.8 210.127 1059.1 211.406C1062.46 212.618 1066.17 213.224 1070.21 213.224C1074.25 213.224 1077.71 212.753 1080.61 211.81C1083.57 210.867 1086.13 209.824 1088.29 208.679C1090.51 207.534 1092.43 206.491 1094.04 205.548C1095.73 204.605 1097.34 204.134 1098.89 204.134C1100.98 204.134 1102.53 204.908 1103.54 206.457L1110.71 215.547C1107.95 218.779 1104.85 221.506 1101.42 223.728C1097.98 225.883 1094.38 227.633 1090.61 228.98C1086.91 230.259 1083.1 231.168 1079.2 231.707C1075.36 232.246 1071.62 232.515 1067.98 232.515C1060.78 232.515 1054.08 231.337 1047.89 228.98C1041.69 226.556 1036.3 223.021 1031.73 218.375C1027.15 213.662 1023.54 207.871 1020.92 201.003C1018.29 194.068 1016.98 186.055 1016.98 176.965C1016.98 169.895 1018.12 163.263 1020.41 157.068C1022.7 150.806 1025.97 145.386 1030.21 140.807C1034.52 136.161 1039.74 132.491 1045.87 129.798C1052.06 127.105 1059.03 125.758 1066.77 125.758C1073.3 125.758 1079.33 126.802 1084.85 128.889C1090.37 130.976 1095.12 134.04 1099.09 138.08C1103.07 142.053 1106.16 146.968 1108.38 152.826C1110.67 158.617 1111.82 165.249 1111.82 172.723C1111.82 176.494 1111.41 179.052 1110.61 180.399C1109.8 181.678 1108.25 182.318 1105.96 182.318H1041.83Z" fill="white"/>
<path d="M1164.3 232.616C1155.27 232.616 1148.34 230.091 1143.49 225.041C1138.71 219.924 1136.32 212.887 1136.32 203.932V146.059H1125.71C1124.37 146.059 1123.22 145.621 1122.28 144.746C1121.34 143.871 1120.87 142.558 1120.87 140.807V130.909L1137.53 128.182L1142.78 99.9021C1143.12 98.5554 1143.76 97.5117 1144.7 96.7711C1145.64 96.0304 1146.86 95.6601 1148.34 95.6601H1161.27V128.283H1204.39L1209.75 99.9021C1210.08 98.5554 1210.69 97.5117 1211.56 96.7711C1212.51 96.0304 1213.75 95.6601 1215.3 95.6601H1228.13V128.283H1255.8V146.059H1228.13V202.215C1228.13 205.447 1228.94 207.972 1230.55 209.79C1232.17 211.608 1234.36 212.517 1237.12 212.517C1238.6 212.517 1239.88 212.349 1240.95 212.012C1242.03 211.608 1242.94 211.204 1243.68 210.8C1244.49 210.396 1245.2 210.026 1245.8 209.689C1246.41 209.285 1247.01 209.083 1247.62 209.083C1248.36 209.083 1248.97 209.285 1249.44 209.689C1249.91 210.026 1250.42 210.564 1250.95 211.305L1258.43 223.425C1254.79 226.455 1250.62 228.744 1245.9 230.293C1241.19 231.842 1236.31 232.616 1231.26 232.616C1222.24 232.616 1215.3 230.091 1210.45 225.041C1205.6 219.924 1203.18 212.887 1203.18 203.932V146.059H1161.27V202.215C1161.27 205.447 1162.04 207.972 1163.59 209.79C1165.2 211.608 1167.39 212.517 1170.15 212.517C1171.7 212.517 1172.98 212.349 1173.99 212.012C1175.07 211.608 1175.98 211.204 1176.72 210.8C1177.53 210.396 1178.23 210.026 1178.84 209.689C1179.45 209.285 1180.05 209.083 1180.66 209.083C1181.4 209.083 1182 209.285 1182.48 209.689C1182.95 210.026 1183.45 210.564 1183.99 211.305L1191.46 223.425C1187.83 226.455 1183.65 228.744 1178.94 230.293C1174.23 231.842 1169.35 232.616 1164.3 232.616Z" fill="white"/>
<path d="M1337.96 167.269C1337.96 164.037 1337.49 161.007 1336.54 158.179C1335.67 155.284 1334.32 152.759 1332.5 150.604C1330.69 148.449 1328.36 146.766 1325.53 145.554C1322.77 144.275 1319.54 143.635 1315.84 143.635C1308.63 143.635 1302.94 145.689 1298.77 149.796C1294.66 153.903 1292.04 159.728 1290.89 167.269H1337.96ZM1290.39 182.318C1290.79 187.637 1291.73 192.25 1293.21 196.155C1294.7 199.993 1296.65 203.191 1299.07 205.75C1301.5 208.241 1304.36 210.127 1307.66 211.406C1311.02 212.618 1314.73 213.224 1318.77 213.224C1322.81 213.224 1326.27 212.753 1329.17 211.81C1332.13 210.867 1334.69 209.824 1336.85 208.679C1339.07 207.534 1340.99 206.491 1342.6 205.548C1344.29 204.605 1345.9 204.134 1347.45 204.134C1349.54 204.134 1351.09 204.908 1352.1 206.457L1359.27 215.547C1356.51 218.779 1353.41 221.506 1349.98 223.728C1346.54 225.883 1342.94 227.633 1339.17 228.98C1335.47 230.259 1331.66 231.168 1327.76 231.707C1323.92 232.246 1320.18 232.515 1316.55 232.515C1309.34 232.515 1302.64 231.337 1296.45 228.98C1290.25 226.556 1284.86 223.021 1280.29 218.375C1275.71 213.662 1272.11 207.871 1269.48 201.003C1266.85 194.068 1265.54 186.055 1265.54 176.965C1265.54 169.895 1266.68 163.263 1268.97 157.068C1271.26 150.806 1274.53 145.386 1278.77 140.807C1283.08 136.161 1288.3 132.491 1294.43 129.798C1300.62 127.105 1307.59 125.758 1315.33 125.758C1321.86 125.758 1327.89 126.802 1333.41 128.889C1338.93 130.976 1343.68 134.04 1347.65 138.08C1351.63 142.053 1354.72 146.968 1356.95 152.826C1359.23 158.617 1360.38 165.249 1360.38 172.723C1360.38 176.494 1359.98 179.052 1359.17 180.399C1358.36 181.678 1356.81 182.318 1354.52 182.318H1290.39Z" fill="white"/>
<path d="M692.855 145.352C696.087 139.157 699.925 134.309 704.369 130.808C708.813 127.239 714.065 125.455 720.125 125.455C724.906 125.455 728.744 126.499 731.639 128.586L730.023 147.271C729.687 148.483 729.182 149.358 728.508 149.897C727.902 150.368 727.061 150.604 725.983 150.604C724.973 150.604 723.458 150.436 721.438 150.099C719.486 149.762 717.567 149.594 715.681 149.594C712.921 149.594 710.463 149.998 708.308 150.806C706.154 151.614 704.201 152.792 702.45 154.341C700.767 155.822 699.252 157.64 697.905 159.795C696.626 161.95 695.414 164.407 694.269 167.168V231H669.322V127.374H683.967C686.526 127.374 688.31 127.845 689.32 128.788C690.33 129.663 691.004 131.279 691.34 133.636L692.855 145.352Z" stroke="#001B36" stroke-width="4" mask="url(#path-11-outside-4)"/>
<path d="M787.773 125.758C795.449 125.758 802.418 127.004 808.68 129.495C815.009 131.986 820.396 135.521 824.84 140.1C829.351 144.679 832.819 150.267 835.243 156.866C837.667 163.465 838.879 170.838 838.879 178.985C838.879 187.2 837.667 194.606 835.243 201.205C832.819 207.804 829.351 213.426 824.84 218.072C820.396 222.718 815.009 226.287 808.68 228.778C802.418 231.269 795.449 232.515 787.773 232.515C780.029 232.515 772.993 231.269 766.664 228.778C760.334 226.287 754.914 222.718 750.403 218.072C745.959 213.426 742.491 207.804 740 201.205C737.576 194.606 736.364 187.2 736.364 178.985C736.364 170.838 737.576 163.465 740 156.866C742.491 150.267 745.959 144.679 750.403 140.1C754.914 135.521 760.334 131.986 766.664 129.495C772.993 127.004 780.029 125.758 787.773 125.758ZM787.773 213.325C796.391 213.325 802.754 210.43 806.862 204.639C811.036 198.848 813.124 190.364 813.124 179.187C813.124 168.01 811.036 159.492 806.862 153.634C802.754 147.776 796.391 144.847 787.773 144.847C779.019 144.847 772.522 147.81 768.28 153.735C764.105 159.593 762.018 168.077 762.018 179.187C762.018 190.297 764.105 198.781 768.28 204.639C772.522 210.43 779.019 213.325 787.773 213.325Z" stroke="#001B36" stroke-width="4" mask="url(#path-11-outside-4)"/>
<path d="M947.395 127.374V231H932.144C928.845 231 926.757 229.485 925.882 226.455L924.165 218.173C919.923 222.482 915.243 225.984 910.126 228.677C905.009 231.303 898.982 232.616 892.047 232.616C886.391 232.616 881.375 231.673 876.998 229.788C872.689 227.835 869.053 225.108 866.09 221.607C863.127 218.106 860.872 213.965 859.323 209.184C857.842 204.336 857.101 199.017 857.101 193.226V127.374H882.048V193.226C882.048 199.555 883.496 204.471 886.391 207.972C889.354 211.406 893.764 213.123 899.622 213.123C903.931 213.123 907.971 212.18 911.742 210.295C915.513 208.342 919.081 205.683 922.448 202.316V127.374H947.395Z" stroke="#001B36" stroke-width="4" mask="url(#path-11-outside-4)"/>
<path d="M997.58 80.9141V231H972.633V80.9141H997.58Z" stroke="#001B36" stroke-width="4" mask="url(#path-11-outside-4)"/>
<path d="M1089.4 167.269C1089.4 164.037 1088.93 161.007 1087.98 158.179C1087.11 155.284 1085.76 152.759 1083.94 150.604C1082.12 148.449 1079.8 146.766 1076.97 145.554C1074.21 144.275 1070.98 143.635 1067.28 143.635C1060.07 143.635 1054.38 145.689 1050.21 149.796C1046.1 153.903 1043.48 159.728 1042.33 167.269H1089.4ZM1041.83 182.318C1042.23 187.637 1043.17 192.25 1044.65 196.155C1046.14 199.993 1048.09 203.191 1050.51 205.75C1052.94 208.241 1055.8 210.127 1059.1 211.406C1062.46 212.618 1066.17 213.224 1070.21 213.224C1074.25 213.224 1077.71 212.753 1080.61 211.81C1083.57 210.867 1086.13 209.824 1088.29 208.679C1090.51 207.534 1092.43 206.491 1094.04 205.548C1095.73 204.605 1097.34 204.134 1098.89 204.134C1100.98 204.134 1102.53 204.908 1103.54 206.457L1110.71 215.547C1107.95 218.779 1104.85 221.506 1101.42 223.728C1097.98 225.883 1094.38 227.633 1090.61 228.98C1086.91 230.259 1083.1 231.168 1079.2 231.707C1075.36 232.246 1071.62 232.515 1067.98 232.515C1060.78 232.515 1054.08 231.337 1047.89 228.98C1041.69 226.556 1036.3 223.021 1031.73 218.375C1027.15 213.662 1023.54 207.871 1020.92 201.003C1018.29 194.068 1016.98 186.055 1016.98 176.965C1016.98 169.895 1018.12 163.263 1020.41 157.068C1022.7 150.806 1025.97 145.386 1030.21 140.807C1034.52 136.161 1039.74 132.491 1045.87 129.798C1052.06 127.105 1059.03 125.758 1066.77 125.758C1073.3 125.758 1079.33 126.802 1084.85 128.889C1090.37 130.976 1095.12 134.04 1099.09 138.08C1103.07 142.053 1106.16 146.968 1108.38 152.826C1110.67 158.617 1111.82 165.249 1111.82 172.723C1111.82 176.494 1111.41 179.052 1110.61 180.399C1109.8 181.678 1108.25 182.318 1105.96 182.318H1041.83Z" stroke="#001B36" stroke-width="4" mask="url(#path-11-outside-4)"/>
<path d="M1164.3 232.616C1155.27 232.616 1148.34 230.091 1143.49 225.041C1138.71 219.924 1136.32 212.887 1136.32 203.932V146.059H1125.71C1124.37 146.059 1123.22 145.621 1122.28 144.746C1121.34 143.871 1120.87 142.558 1120.87 140.807V130.909L1137.53 128.182L1142.78 99.9021C1143.12 98.5554 1143.76 97.5117 1144.7 96.7711C1145.64 96.0304 1146.86 95.6601 1148.34 95.6601H1161.27V128.283H1204.39L1209.75 99.9021C1210.08 98.5554 1210.69 97.5117 1211.56 96.7711C1212.51 96.0304 1213.75 95.6601 1215.3 95.6601H1228.13V128.283H1255.8V146.059H1228.13V202.215C1228.13 205.447 1228.94 207.972 1230.55 209.79C1232.17 211.608 1234.36 212.517 1237.12 212.517C1238.6 212.517 1239.88 212.349 1240.95 212.012C1242.03 211.608 1242.94 211.204 1243.68 210.8C1244.49 210.396 1245.2 210.026 1245.8 209.689C1246.41 209.285 1247.01 209.083 1247.62 209.083C1248.36 209.083 1248.97 209.285 1249.44 209.689C1249.91 210.026 1250.42 210.564 1250.95 211.305L1258.43 223.425C1254.79 226.455 1250.62 228.744 1245.9 230.293C1241.19 231.842 1236.31 232.616 1231.26 232.616C1222.24 232.616 1215.3 230.091 1210.45 225.041C1205.6 219.924 1203.18 212.887 1203.18 203.932V146.059H1161.27V202.215C1161.27 205.447 1162.04 207.972 1163.59 209.79C1165.2 211.608 1167.39 212.517 1170.15 212.517C1171.7 212.517 1172.98 212.349 1173.99 212.012C1175.07 211.608 1175.98 211.204 1176.72 210.8C1177.53 210.396 1178.23 210.026 1178.84 209.689C1179.45 209.285 1180.05 209.083 1180.66 209.083C1181.4 209.083 1182 209.285 1182.48 209.689C1182.95 210.026 1183.45 210.564 1183.99 211.305L1191.46 223.425C1187.83 226.455 1183.65 228.744 1178.94 230.293C1174.23 231.842 1169.35 232.616 1164.3 232.616Z" stroke="#001B36" stroke-width="4" mask="url(#path-11-outside-4)"/>
<path d="M1337.96 167.269C1337.96 164.037 1337.49 161.007 1336.54 158.179C1335.67 155.284 1334.32 152.759 1332.5 150.604C1330.69 148.449 1328.36 146.766 1325.53 145.554C1322.77 144.275 1319.54 143.635 1315.84 143.635C1308.63 143.635 1302.94 145.689 1298.77 149.796C1294.66 153.903 1292.04 159.728 1290.89 167.269H1337.96ZM1290.39 182.318C1290.79 187.637 1291.73 192.25 1293.21 196.155C1294.7 199.993 1296.65 203.191 1299.07 205.75C1301.5 208.241 1304.36 210.127 1307.66 211.406C1311.02 212.618 1314.73 213.224 1318.77 213.224C1322.81 213.224 1326.27 212.753 1329.17 211.81C1332.13 210.867 1334.69 209.824 1336.85 208.679C1339.07 207.534 1340.99 206.491 1342.6 205.548C1344.29 204.605 1345.9 204.134 1347.45 204.134C1349.54 204.134 1351.09 204.908 1352.1 206.457L1359.27 215.547C1356.51 218.779 1353.41 221.506 1349.98 223.728C1346.54 225.883 1342.94 227.633 1339.17 228.98C1335.47 230.259 1331.66 231.168 1327.76 231.707C1323.92 232.246 1320.18 232.515 1316.55 232.515C1309.34 232.515 1302.64 231.337 1296.45 228.98C1290.25 226.556 1284.86 223.021 1280.29 218.375C1275.71 213.662 1272.11 207.871 1269.48 201.003C1266.85 194.068 1265.54 186.055 1265.54 176.965C1265.54 169.895 1266.68 163.263 1268.97 157.068C1271.26 150.806 1274.53 145.386 1278.77 140.807C1283.08 136.161 1288.3 132.491 1294.43 129.798C1300.62 127.105 1307.59 125.758 1315.33 125.758C1321.86 125.758 1327.89 126.802 1333.41 128.889C1338.93 130.976 1343.68 134.04 1347.65 138.08C1351.63 142.053 1354.72 146.968 1356.95 152.826C1359.23 158.617 1360.38 165.249 1360.38 172.723C1360.38 176.494 1359.98 179.052 1359.17 180.399C1358.36 181.678 1356.81 182.318 1354.52 182.318H1290.39Z" stroke="#001B36" stroke-width="4" mask="url(#path-11-outside-4)"/>
<path d="M257.893 268.428L258.477 267.751L257.868 267.095L241.485 249.435C241.485 249.435 241.485 249.434 241.484 249.434C239.615 247.409 237.372 246.347 234.792 246.347C232.066 246.347 229.428 247.554 226.896 249.789L226.888 249.796L226.881 249.803C221.668 254.593 216.391 258.743 211.05 262.257C205.87 265.617 200.194 268.42 194.021 270.665L194.014 270.668C187.988 272.91 181.32 274.596 174.004 275.722C166.825 276.707 158.717 277.202 149.676 277.202C134.905 277.202 121.135 274.529 108.356 269.193C95.723 263.859 84.7061 256.141 75.2986 246.033C66.0348 235.785 58.6507 223.276 53.1573 208.488C47.8141 193.722 45.1325 176.889 45.1325 157.975C45.1325 139.342 47.7439 122.647 52.9488 107.876C58.159 93.0908 65.4007 80.5853 74.6626 70.3404C84.0674 60.0942 95.223 52.3065 108.138 46.9719L108.147 46.9683C121.062 41.4936 135.326 38.7488 150.953 38.7488C163.939 38.7488 174.824 40.1611 183.633 42.9577L183.64 42.9599L183.647 42.962C192.536 45.6427 199.908 48.6662 205.782 52.0228C211.718 55.4144 216.499 58.5102 220.139 61.3099L220.148 61.3174L220.158 61.3247C223.899 64.0583 227.235 65.5603 230.111 65.5603C232.489 65.5603 234.483 65.1171 235.985 64.1156L235.995 64.1093L236.004 64.1028C237.52 63.0415 238.747 61.7457 239.671 60.2168L253.266 41.3116L253.777 40.6012L253.14 40.0006C240.424 27.9988 225.71 18.5002 209.006 11.5043C192.263 4.49256 172.976 1 151.166 1C128.92 1 108.572 4.85057 90.1376 12.567C71.715 20.1364 55.8518 30.8531 42.5594 44.7171L42.5557 44.721C29.406 58.5854 19.1949 75.1575 11.9168 94.4231C4.63439 113.7 1 134.888 1 157.975C1 181.058 4.49114 202.241 11.4867 221.515C18.4787 240.779 28.3324 257.351 41.0549 271.217L41.0584 271.221C53.7836 284.947 69.1509 295.666 87.1477 303.379L87.1539 303.381C105.166 310.958 125.16 314.738 147.123 314.738C172.477 314.738 194.118 310.679 212.013 302.518C230.015 294.374 245.312 283.01 257.893 268.428Z" fill="white" stroke="#001B36" stroke-width="2"/>
</svg>
