<svg width="1361" height="313" viewBox="0 0 1361 313" fill="none" xmlns="http://www.w3.org/2000/svg">
<path d="M102.785 146.19L116.464 146.19L116.464 132.499L130.681 132.499L130.681 146.19L143.828 146.19L143.828 159.884L130.681 159.884L130.681 173.578L116.464 173.578L116.464 159.884L102.785 159.884L102.785 146.19ZM98.8276 191.661L87.4719 191.661L87.4719 205.904L158.59 205.904L158.59 191.661L147.015 191.661C159.755 186.733 168.236 177.136 168.236 165.464C168.236 153.068 151.589 122.291 137.917 104.208C134.498 108.769 129.047 111.741 122.917 111.741C116.793 111.741 111.335 108.782 107.91 104.22C94.2439 122.307 77.6096 153.068 77.6096 165.464C77.6096 177.13 86.0787 186.733 98.8276 191.661" fill="#001B36"/>
<path d="M164.473 209.193L81.2071 209.193C77.9604 209.193 75.9849 210.403 75.9849 213.66L75.9849 230.007L122.842 230.007L170.622 230.007L170.622 213.66C170.622 210.403 167.723 209.193 164.473 209.193" fill="#001B36"/>
<path d="M122.917 107.91C128.176 107.91 132.785 105.18 135.453 101.063C136.962 98.7275 137.848 95.9466 137.848 92.9652C137.848 84.7167 131.151 78.0139 122.917 78.0139C114.686 78.0139 107.989 84.7167 107.989 92.9652C107.989 95.9466 108.878 98.7274 110.387 101.066C113.051 105.179 117.663 107.91 122.917 107.91Z" fill="#001B36"/>
<path d="M158.59 191.661L87.4719 191.661L87.4719 205.904L158.59 205.904L158.59 191.661Z" fill="#001B36"/>
<mask id="path-5-inside-1" fill="white">
<path d="M136.746 175.105C129.197 193.163 142.183 205.992 142.183 205.992L211.312 205.992C211.312 172.208 191.288 180.191 194.744 173.268C195.118 172.538 207.855 155.051 209.848 134.205C210.564 126.808 207.949 117.88 202.904 110.309C197.423 102.082 190.104 96.959 182.35 95.8707C172.114 94.43 160.239 98.0067 151.373 101.661L134.6 127.556L134.796 128.669L146.518 140.136C146.518 140.136 162.609 127.157 169.214 125.716C175.838 124.285 183.44 125.062 183.44 137.735C183.44 150.411 145.384 154.461 136.746 175.105"/>
</mask>
<path d="M136.746 175.105C129.197 193.163 142.183 205.992 142.183 205.992L211.312 205.992C211.312 172.208 191.288 180.191 194.744 173.268C195.118 172.538 207.855 155.051 209.848 134.205C210.564 126.808 207.949 117.88 202.904 110.309C197.423 102.082 190.104 96.959 182.35 95.8707C172.114 94.43 160.239 98.0067 151.373 101.661L134.6 127.556L134.796 128.669L146.518 140.136C146.518 140.136 162.609 127.157 169.214 125.716C175.838 124.285 183.44 125.062 183.44 137.735C183.44 150.411 145.384 154.461 136.746 175.105" fill="white"/>
<path d="M142.183 205.992L142.183 207.992L141.362 207.992L140.778 207.415L142.183 205.992ZM211.312 205.992L213.312 205.992L213.312 207.992L211.312 207.992L211.312 205.992ZM194.744 173.268L192.955 172.375L192.96 172.366L192.964 172.356L194.744 173.268ZM209.848 134.205L207.857 134.014L207.858 134.012L209.848 134.205ZM202.904 110.309L201.239 111.418L201.239 111.418L202.904 110.309ZM182.35 95.8707L182.072 97.8512L182.071 97.8511L182.35 95.8707ZM151.373 101.661L149.695 100.574L150.034 100.05L150.611 99.8124L151.373 101.661ZM134.6 127.556L132.631 127.903L132.494 127.129L132.922 126.469L134.6 127.556ZM134.796 128.669L133.398 130.099L132.938 129.65L132.827 129.017L134.796 128.669ZM146.518 140.136L147.774 141.692L146.39 142.808L145.119 141.565L146.518 140.136ZM169.214 125.716L168.788 123.762L168.792 123.762L169.214 125.716ZM138.591 175.876C135.066 184.308 136.335 191.462 138.477 196.544C139.553 199.099 140.852 201.128 141.879 202.515C142.392 203.207 142.833 203.735 143.14 204.083C143.293 204.257 143.413 204.386 143.49 204.468C143.529 204.508 143.557 204.538 143.574 204.555C143.582 204.563 143.588 204.569 143.59 204.571C143.592 204.572 143.592 204.573 143.592 204.573C143.592 204.572 143.591 204.572 143.591 204.572C143.591 204.571 143.59 204.571 143.59 204.571C143.589 204.57 143.589 204.569 142.183 205.992C140.778 207.415 140.777 207.414 140.776 207.413C140.776 207.413 140.775 207.412 140.774 207.412C140.773 207.41 140.771 207.409 140.77 207.407C140.766 207.404 140.762 207.4 140.757 207.395C140.747 207.385 140.734 207.371 140.718 207.355C140.686 207.322 140.642 207.277 140.588 207.22C140.479 207.105 140.327 206.94 140.14 206.728C139.766 206.304 139.252 205.689 138.665 204.896C137.493 203.313 136.017 201.007 134.791 198.097C132.326 192.25 130.876 183.96 134.9 174.334L138.591 175.876ZM142.183 203.992L211.312 203.992L211.312 207.992L142.183 207.992L142.183 203.992ZM209.312 205.992C209.312 189.537 204.471 183.823 200.612 181.214C199.594 180.526 198.586 180.015 197.629 179.572C196.75 179.166 195.689 178.725 194.923 178.31C194.165 177.9 193.124 177.237 192.623 176.058C192.076 174.769 192.406 173.475 192.955 172.375L196.534 174.162C196.219 174.792 196.419 174.763 196.305 174.494C196.238 174.336 196.194 174.449 196.827 174.792C197.451 175.13 198.176 175.419 199.306 175.941C200.358 176.427 201.582 177.042 202.852 177.9C208.141 181.476 213.312 188.663 213.312 205.992L209.312 205.992ZM192.964 172.356C193.533 171.246 205.913 154.354 207.857 134.014L211.839 134.395C210.811 145.147 207.023 154.974 203.483 162.163C201.709 165.767 199.987 168.73 198.683 170.839C198.031 171.895 197.484 172.736 197.089 173.336C196.908 173.611 196.717 173.897 196.623 174.04C196.471 174.269 196.484 174.259 196.525 174.18L192.964 172.356ZM207.858 134.012C208.52 127.174 206.091 118.699 201.239 111.418L204.568 109.2C209.806 117.061 212.609 126.441 211.839 134.397L207.858 134.012ZM201.239 111.418C195.988 103.536 189.123 98.8408 182.072 97.8512L182.628 93.8901C191.086 95.0771 198.857 100.629 204.568 109.2L201.239 111.418ZM182.071 97.8511C172.392 96.4889 160.939 99.8816 152.135 103.511L150.611 99.8124C159.54 96.1319 171.835 92.3711 182.629 93.8902L182.071 97.8511ZM153.052 102.749L136.279 128.644L132.922 126.469L149.695 100.574L153.052 102.749ZM136.57 127.209L136.766 128.322L132.827 129.017L132.631 127.903L136.57 127.209ZM136.195 127.24L147.917 138.706L145.119 141.565L133.398 130.099L136.195 127.24ZM146.518 140.136C145.262 138.579 145.263 138.579 145.263 138.579C145.263 138.578 145.263 138.578 145.264 138.578C145.264 138.577 145.265 138.577 145.266 138.576C145.268 138.574 145.272 138.571 145.276 138.568C145.284 138.561 145.296 138.551 145.312 138.539C145.344 138.513 145.391 138.476 145.452 138.427C145.574 138.329 145.753 138.187 145.983 138.006C146.441 137.643 147.103 137.125 147.916 136.5C149.542 135.25 151.783 133.565 154.235 131.833C156.683 130.103 159.367 128.309 161.875 126.849C164.327 125.421 166.805 124.195 168.788 123.762L169.64 127.67C168.321 127.958 166.311 128.895 163.888 130.306C161.521 131.684 158.943 133.404 156.543 135.1C154.147 136.792 151.952 138.442 150.355 139.671C149.556 140.284 148.909 140.792 148.462 141.145C148.238 141.321 148.065 141.459 147.948 141.552C147.89 141.599 147.846 141.634 147.816 141.658C147.802 141.67 147.791 141.679 147.784 141.684C147.78 141.687 147.777 141.689 147.776 141.691C147.775 141.691 147.774 141.692 147.774 141.692C147.774 141.692 147.774 141.692 147.774 141.692C147.774 141.692 147.774 141.692 146.518 140.136ZM168.792 123.762C172.22 123.021 176.418 122.715 179.822 124.711C183.408 126.812 185.44 131.027 185.44 137.735L181.44 137.735C181.44 131.77 179.671 129.259 177.8 128.162C175.747 126.959 172.832 126.981 169.637 127.671L168.792 123.762ZM185.44 137.735C185.44 141.999 182.239 145.152 178.473 147.679C174.625 150.262 169.426 152.68 164.211 155.229C158.913 157.818 153.489 160.589 148.863 163.956C144.241 167.321 140.556 171.181 138.591 175.877L134.901 174.333C137.255 168.707 141.567 164.32 146.509 160.722C151.448 157.128 157.158 154.224 162.454 151.635C167.832 149.007 172.687 146.745 176.244 144.358C179.884 141.915 181.44 139.808 181.44 137.735L185.44 137.735Z" fill="#001B36" mask="url(#path-5-inside-1)"/>
<mask id="path-7-inside-2" fill="white">
<path d="M182.723 92.9617C191.256 94.1598 199.228 99.699 205.145 108.565C210.564 116.628 213.304 126.203 212.557 134.189C211 150.501 203.557 163.603 199.757 169.344C202.218 170.371 203.931 174.862 203.931 174.862C203.931 174.862 225.325 157.45 225.325 130.585C225.325 100.785 206.796 78.0151 182.598 78.0151C163.216 78.0151 148.691 89.0469 148.691 89.0469L151.186 98.5196C160.248 94.8817 172.154 91.4835 182.723 92.9617"/>
</mask>
<path d="M182.723 92.9617C191.256 94.1598 199.228 99.699 205.145 108.565C210.564 116.628 213.304 126.203 212.557 134.189C211 150.501 203.557 163.603 199.757 169.344C202.218 170.371 203.931 174.862 203.931 174.862C203.931 174.862 225.325 157.45 225.325 130.585C225.325 100.785 206.796 78.0151 182.598 78.0151C163.216 78.0151 148.691 89.0469 148.691 89.0469L151.186 98.5196C160.248 94.8817 172.154 91.4835 182.723 92.9617" fill="white"/>
<path d="M205.145 108.565L203.485 109.68L203.482 109.675L205.145 108.565ZM212.557 134.189L214.548 134.375L214.548 134.379L212.557 134.189ZM199.757 169.344L198.987 171.19L196.755 170.258L198.09 168.24L199.757 169.344ZM203.931 174.862L205.193 176.413L203.048 178.159L202.062 175.574L203.931 174.862ZM148.691 89.0469L146.757 89.5562L146.417 88.263L147.481 87.4542L148.691 89.0469ZM151.186 98.5196L151.931 100.376L149.828 101.22L149.251 99.0289L151.186 98.5196ZM183.001 90.9811C192.227 92.2766 200.655 98.2342 206.809 107.455L203.482 109.675C197.801 101.164 190.285 96.043 182.445 94.9423L183.001 90.9811ZM206.805 107.449C212.429 115.818 215.347 125.845 214.548 134.375L210.566 134.002C211.262 126.561 208.699 117.438 203.485 109.68L206.805 107.449ZM214.548 134.379C212.946 151.157 205.309 164.579 201.425 170.448L198.09 168.24C201.805 162.626 209.053 149.846 210.566 133.999L214.548 134.379ZM200.528 167.498C201.523 167.914 202.325 168.622 202.937 169.305C203.561 170.001 204.082 170.779 204.491 171.474C204.903 172.175 205.225 172.834 205.445 173.315C205.555 173.557 205.641 173.758 205.7 173.902C205.73 173.974 205.753 174.032 205.77 174.073C205.778 174.094 205.785 174.111 205.79 174.124C205.792 174.13 205.794 174.135 205.796 174.14C205.797 174.142 205.797 174.143 205.798 174.145C205.798 174.146 205.798 174.146 205.799 174.147C205.799 174.147 205.799 174.148 205.799 174.148C205.799 174.148 205.799 174.149 203.931 174.862C202.062 175.574 202.062 175.575 202.062 175.575C202.062 175.575 202.062 175.575 202.062 175.576C202.063 175.576 202.063 175.576 202.063 175.577C202.063 175.577 202.063 175.577 202.063 175.577C202.063 175.577 202.062 175.576 202.062 175.573C202.06 175.569 202.057 175.561 202.052 175.548C202.042 175.524 202.026 175.484 202.004 175.431C201.96 175.326 201.893 175.168 201.804 174.973C201.626 174.58 201.366 174.052 201.043 173.502C200.716 172.946 200.347 172.408 199.958 171.974C199.556 171.526 199.222 171.288 198.987 171.19L200.528 167.498ZM203.931 174.862C202.668 173.31 202.668 173.311 202.667 173.311C202.667 173.311 202.667 173.311 202.667 173.311C202.667 173.312 202.667 173.311 202.667 173.311C202.669 173.31 202.671 173.308 202.674 173.305C202.682 173.299 202.694 173.289 202.711 173.275C202.745 173.246 202.799 173.201 202.871 173.14C203.014 173.017 203.23 172.829 203.509 172.577C204.066 172.073 204.872 171.317 205.843 170.323C207.787 168.334 210.386 165.404 212.984 161.658C218.19 154.153 223.325 143.478 223.325 130.585L227.325 130.585C227.325 144.558 221.763 156.021 216.271 163.938C213.521 167.903 210.771 171.004 208.704 173.119C207.669 174.178 206.803 174.991 206.191 175.545C205.884 175.822 205.641 176.034 205.471 176.179C205.386 176.252 205.32 176.308 205.273 176.347C205.25 176.366 205.231 176.381 205.218 176.393C205.211 176.398 205.206 176.402 205.201 176.406C205.199 176.408 205.198 176.409 205.196 176.41C205.196 176.411 205.195 176.411 205.194 176.412C205.194 176.412 205.193 176.413 203.931 174.862ZM223.325 130.585C223.325 101.483 205.324 80.0151 182.598 80.0151L182.598 76.0151C208.267 76.0151 227.325 100.087 227.325 130.585L223.325 130.585ZM182.598 80.0151C173.279 80.0151 165.09 82.6701 159.205 85.351C156.269 86.6889 153.923 88.0252 152.319 89.0219C151.517 89.52 150.902 89.9323 150.493 90.2164C150.288 90.3584 150.135 90.4682 150.035 90.5405C149.986 90.5767 149.949 90.6035 149.927 90.6202C149.916 90.6286 149.908 90.6344 149.903 90.6377C149.901 90.6393 149.9 90.6403 149.899 90.6406C149.899 90.6407 149.899 90.6407 149.9 90.6406C149.9 90.6405 149.9 90.6402 149.9 90.6402C149.9 90.6399 149.901 90.6396 148.691 89.0469C147.481 87.4542 147.482 87.4538 147.483 87.4533C147.483 87.4531 147.484 87.4526 147.484 87.4522C147.485 87.4513 147.487 87.4503 147.488 87.4491C147.491 87.4468 147.495 87.4438 147.5 87.4401C147.51 87.4327 147.523 87.4228 147.54 87.4102C147.574 87.3852 147.621 87.3501 147.683 87.3054C147.806 87.2162 147.983 87.089 148.213 86.9293C148.674 86.6101 149.345 86.1605 150.208 85.6244C151.933 84.5526 154.43 83.131 157.547 81.7109C163.77 78.876 172.535 76.0151 182.598 76.0151L182.598 80.0151ZM150.625 88.5376L153.12 98.0103L149.251 99.0289L146.757 89.5562L150.625 88.5376ZM150.44 96.6635C159.585 92.9927 171.896 89.428 183 90.981L182.446 94.9424C172.411 93.5391 160.911 96.7708 151.931 100.376L150.44 96.6635Z" fill="#001B36" mask="url(#path-7-inside-2)"/>
<path d="M217.321 210.185L134.496 210.185C132.988 210.185 131.761 210.483 130.94 211.046C130.175 211.57 129.672 212.382 129.672 213.702L129.672 229.008L175.902 229.008L221.802 229.008L221.802 213.702C221.802 212.327 221.345 211.522 220.677 211.022C219.957 210.484 218.837 210.185 217.321 210.185Z" fill="white" stroke="#001B36" stroke-width="2"/>
<path d="M233.742 246.057C236.012 246.057 237.998 246.979 239.7 248.823L256.085 266.485C243.602 280.955 228.423 292.232 210.548 300.318C192.816 308.404 171.324 312.447 146.073 312.447C124.226 312.447 104.366 308.688 86.4916 301.17C68.6172 293.509 53.3673 282.87 40.7417 269.251C28.1162 255.491 18.3278 239.035 11.3767 219.884C4.42552 200.733 0.949951 179.666 0.949951 156.685C0.949951 133.704 4.56738 112.638 11.8022 93.4865C19.0371 74.3354 29.1801 57.8796 42.2312 44.1192C55.4242 30.3587 71.1707 19.7192 89.4707 12.2006C107.771 4.54018 127.986 0.709961 150.116 0.709961C171.82 0.709961 190.972 4.18553 207.569 11.1367C224.167 18.0878 238.778 27.5215 251.404 39.4378L237.785 58.3761C236.934 59.7947 235.799 61.0005 234.381 61.9935C233.104 62.8447 231.331 63.2703 229.061 63.2703C226.508 63.2703 223.387 61.9226 219.698 59.2273C216.01 56.3901 211.187 53.2691 205.228 49.8645C199.27 46.4598 191.823 43.4099 182.886 40.7145C173.948 37.8773 162.954 36.4587 149.903 36.4587C134.157 36.4587 119.758 39.225 106.707 44.7575C93.6555 50.1482 82.3776 58.0214 72.873 68.3772C63.5103 78.733 56.2045 91.3586 50.9556 106.254C45.7068 121.149 43.0824 137.96 43.0824 156.685C43.0824 175.694 45.7777 192.647 51.1684 207.542C56.701 222.437 64.1486 235.063 73.5114 245.419C83.016 255.633 94.152 263.435 106.919 268.826C119.829 274.216 133.731 276.912 148.626 276.912C157.705 276.912 165.862 276.415 173.097 275.422C180.474 274.287 187.212 272.585 193.312 270.315C199.554 268.045 205.299 265.208 210.548 261.803C215.939 258.257 221.259 254.072 226.508 249.249C228.919 247.121 231.331 246.057 233.742 246.057Z" fill="#001B36"/>
<path d="M280.941 136.263C285.034 132.442 289.538 129.338 294.45 126.95C299.362 124.562 305.128 123.368 311.746 123.368C317.477 123.368 322.56 124.357 326.995 126.336C331.429 128.246 335.114 130.975 338.048 134.523C341.05 138.003 343.301 142.199 344.802 147.111C346.371 151.955 347.156 157.311 347.156 163.179V230.008H321.878V163.179C321.878 156.765 320.411 151.819 317.477 148.339C314.543 144.791 310.074 143.017 304.07 143.017C299.703 143.017 295.61 144.007 291.789 145.985C287.968 147.964 284.352 150.659 280.941 154.07V230.008H255.662V77.928H280.941V136.263Z" fill="#001B36"/>
<path d="M439.047 165.43C439.047 162.155 438.57 159.085 437.615 156.22C436.728 153.286 435.363 150.727 433.521 148.544C431.679 146.361 429.325 144.655 426.459 143.427C423.662 142.13 420.387 141.482 416.635 141.482C409.334 141.482 403.569 143.563 399.339 147.725C395.177 151.887 392.516 157.789 391.356 165.43H439.047ZM390.844 180.679C391.254 186.069 392.209 190.743 393.71 194.7C395.211 198.589 397.19 201.83 399.646 204.423C402.102 206.947 405.002 208.857 408.345 210.154C411.756 211.382 415.509 211.996 419.602 211.996C423.696 211.996 427.21 211.518 430.144 210.563C433.146 209.608 435.738 208.55 437.922 207.391C440.173 206.231 442.118 205.173 443.755 204.218C445.461 203.263 447.098 202.785 448.668 202.785C450.783 202.785 452.352 203.57 453.375 205.139L460.642 214.35C457.844 217.625 454.706 220.388 451.226 222.64C447.747 224.823 444.096 226.597 440.276 227.961C436.523 229.258 432.668 230.179 428.711 230.725C424.822 231.27 421.035 231.543 417.351 231.543C410.051 231.543 403.262 230.349 396.985 227.961C390.708 225.505 385.25 221.923 380.61 217.215C375.971 212.439 372.321 206.572 369.66 199.613C366.999 192.585 365.668 184.466 365.668 175.255C365.668 168.091 366.828 161.371 369.148 155.094C371.468 148.749 374.777 143.256 379.075 138.617C383.442 133.909 388.729 130.191 394.938 127.461C401.215 124.732 408.277 123.368 416.123 123.368C422.741 123.368 428.847 124.425 434.442 126.54C440.037 128.655 444.847 131.76 448.872 135.854C452.898 139.879 456.036 144.86 458.288 150.795C460.607 156.663 461.767 163.384 461.767 170.957C461.767 174.778 461.358 177.37 460.539 178.735C459.721 180.031 458.151 180.679 455.832 180.679H390.844Z" fill="#001B36"/>
<path d="M545.006 145.474C544.324 146.565 543.607 147.35 542.857 147.828C542.106 148.237 541.151 148.442 539.991 148.442C538.763 148.442 537.433 148.1 536 147.418C534.635 146.736 533.032 145.985 531.19 145.167C529.348 144.28 527.233 143.495 524.845 142.813C522.525 142.13 519.762 141.789 516.555 141.789C511.574 141.789 507.651 142.847 504.786 144.962C501.988 147.077 500.59 149.84 500.59 153.252C500.59 155.503 501.306 157.414 502.739 158.983C504.24 160.484 506.184 161.814 508.572 162.974C511.029 164.134 513.792 165.192 516.862 166.147C519.932 167.034 523.037 168.023 526.175 169.115C529.382 170.206 532.52 171.469 535.591 172.901C538.661 174.266 541.39 176.04 543.778 178.223C546.234 180.338 548.179 182.897 549.611 185.899C551.112 188.901 551.863 192.517 551.863 196.747C551.863 201.796 550.942 206.469 549.1 210.768C547.326 214.998 544.665 218.682 541.117 221.821C537.569 224.891 533.169 227.313 527.915 229.087C522.73 230.793 516.726 231.646 509.903 231.646C506.287 231.646 502.739 231.304 499.259 230.622C495.848 230.008 492.539 229.121 489.332 227.961C486.194 226.801 483.26 225.437 480.531 223.868C477.87 222.298 475.516 220.593 473.469 218.75L479.303 209.13C480.053 207.97 480.94 207.084 481.963 206.469C482.987 205.855 484.283 205.548 485.852 205.548C487.422 205.548 488.889 205.992 490.253 206.879C491.686 207.766 493.323 208.721 495.166 209.744C497.008 210.768 499.157 211.723 501.613 212.61C504.138 213.497 507.31 213.94 511.131 213.94C514.133 213.94 516.691 213.599 518.807 212.917C520.99 212.167 522.764 211.211 524.128 210.051C525.561 208.892 526.585 207.561 527.199 206.06C527.881 204.491 528.222 202.887 528.222 201.25C528.222 198.794 527.472 196.781 525.97 195.212C524.538 193.643 522.593 192.278 520.137 191.118C517.749 189.958 514.986 188.935 511.847 188.048C508.777 187.093 505.604 186.069 502.33 184.978C499.123 183.886 495.95 182.624 492.812 181.191C489.741 179.69 486.978 177.814 484.522 175.562C482.134 173.311 480.19 170.547 478.689 167.273C477.256 163.998 476.539 160.04 476.539 155.401C476.539 151.102 477.392 147.009 479.098 143.12C480.804 139.231 483.294 135.854 486.569 132.988C489.912 130.054 494.04 127.734 498.952 126.029C503.933 124.255 509.664 123.368 516.146 123.368C523.378 123.368 529.962 124.562 535.898 126.95C541.833 129.338 546.78 132.476 550.737 136.365L545.006 145.474Z" fill="#001B36"/>
<path d="M635.158 145.474C634.475 146.565 633.759 147.35 633.009 147.828C632.258 148.237 631.303 148.442 630.143 148.442C628.915 148.442 627.584 148.1 626.152 147.418C624.787 146.736 623.184 145.985 621.342 145.167C619.499 144.28 617.384 143.495 614.996 142.813C612.677 142.13 609.913 141.789 606.707 141.789C601.726 141.789 597.803 142.847 594.937 144.962C592.14 147.077 590.741 149.84 590.741 153.252C590.741 155.503 591.458 157.414 592.891 158.983C594.392 160.484 596.336 161.814 598.724 162.974C601.18 164.134 603.943 165.192 607.014 166.147C610.084 167.034 613.188 168.023 616.327 169.115C619.534 170.206 622.672 171.469 625.742 172.901C628.813 174.266 631.542 176.04 633.93 178.223C636.386 180.338 638.33 182.897 639.763 185.899C641.264 188.901 642.015 192.517 642.015 196.747C642.015 201.796 641.094 206.469 639.251 210.768C637.477 214.998 634.817 218.682 631.269 221.821C627.721 224.891 623.32 227.313 618.067 229.087C612.881 230.793 606.877 231.646 600.054 231.646C596.438 231.646 592.891 231.304 589.411 230.622C585.999 230.008 582.69 229.121 579.484 227.961C576.345 226.801 573.411 225.437 570.682 223.868C568.021 222.298 565.668 220.593 563.621 218.75L569.454 209.13C570.205 207.97 571.092 207.084 572.115 206.469C573.139 205.855 574.435 205.548 576.004 205.548C577.573 205.548 579.04 205.992 580.405 206.879C581.838 207.766 583.475 208.721 585.317 209.744C587.159 210.768 589.309 211.723 591.765 212.61C594.289 213.497 597.462 213.94 601.283 213.94C604.285 213.94 606.843 213.599 608.958 212.917C611.141 212.167 612.915 211.211 614.28 210.051C615.713 208.892 616.736 207.561 617.35 206.06C618.033 204.491 618.374 202.887 618.374 201.25C618.374 198.794 617.623 196.781 616.122 195.212C614.689 193.643 612.745 192.278 610.289 191.118C607.901 189.958 605.137 188.935 601.999 188.048C598.929 187.093 595.756 186.069 592.481 184.978C589.274 183.886 586.102 182.624 582.963 181.191C579.893 179.69 577.13 177.814 574.674 175.562C572.286 173.311 570.341 170.547 568.84 167.273C567.407 163.998 566.691 160.04 566.691 155.401C566.691 151.102 567.544 147.009 569.25 143.12C570.955 139.231 573.446 135.854 576.72 132.988C580.064 130.054 584.191 127.734 589.104 126.029C594.084 124.255 599.816 123.368 606.297 123.368C613.529 123.368 620.113 124.562 626.049 126.95C631.985 129.338 636.932 132.476 640.889 136.365L635.158 145.474Z" fill="#001B36"/>
<path d="M686.855 143.352C690.087 137.157 693.925 132.309 698.369 128.808C702.813 125.239 708.065 123.455 714.125 123.455C718.906 123.455 722.744 124.499 725.639 126.586L724.023 145.271C723.686 146.483 723.181 147.358 722.508 147.897C721.902 148.368 721.06 148.604 719.983 148.604C718.973 148.604 717.458 148.436 715.438 148.099C713.485 147.762 711.566 147.594 709.681 147.594C706.92 147.594 704.463 147.998 702.308 148.806C700.153 149.614 698.201 150.792 696.45 152.341C694.767 153.822 693.252 155.64 691.905 157.795C690.626 159.95 689.414 162.407 688.269 165.168V229H663.322V125.374H677.967C680.526 125.374 682.31 125.845 683.32 126.788C684.33 127.663 685.003 129.279 685.34 131.636L686.855 143.352ZM781.772 123.758C789.448 123.758 796.417 125.004 802.679 127.495C809.009 129.986 814.395 133.521 818.839 138.1C823.351 142.679 826.818 148.267 829.242 154.866C831.666 161.465 832.878 168.838 832.878 176.985C832.878 185.2 831.666 192.606 829.242 199.205C826.818 205.804 823.351 211.426 818.839 216.072C814.395 220.718 809.009 224.287 802.679 226.778C796.417 229.269 789.448 230.515 781.772 230.515C774.029 230.515 766.993 229.269 760.663 226.778C754.334 224.287 748.914 220.718 744.402 216.072C739.958 211.426 736.491 205.804 733.999 199.205C731.575 192.606 730.363 185.2 730.363 176.985C730.363 168.838 731.575 161.465 733.999 154.866C736.491 148.267 739.958 142.679 744.402 138.1C748.914 133.521 754.334 129.986 760.663 127.495C766.993 125.004 774.029 123.758 781.772 123.758ZM781.772 211.325C790.391 211.325 796.754 208.43 800.861 202.639C805.036 196.848 807.123 188.364 807.123 177.187C807.123 166.01 805.036 157.492 800.861 151.634C796.754 145.776 790.391 142.847 781.772 142.847C773.019 142.847 766.521 145.81 762.279 151.735C758.105 157.593 756.017 166.077 756.017 177.187C756.017 188.297 758.105 196.781 762.279 202.639C766.521 208.43 773.019 211.325 781.772 211.325ZM941.395 125.374V229H926.144C922.844 229 920.757 227.485 919.882 224.455L918.165 216.173C913.923 220.482 909.243 223.984 904.126 226.677C899.008 229.303 892.982 230.616 886.047 230.616C880.391 230.616 875.374 229.673 870.998 227.788C866.688 225.835 863.052 223.108 860.09 219.607C857.127 216.106 854.871 211.965 853.323 207.184C851.841 202.336 851.101 197.017 851.101 191.226V125.374H876.048V191.226C876.048 197.555 877.495 202.471 880.391 205.972C883.353 209.406 887.764 211.123 893.622 211.123C897.931 211.123 901.971 210.18 905.742 208.295C909.512 206.342 913.081 203.683 916.448 200.316V125.374H941.395ZM991.58 78.914V229H966.633V78.914H991.58ZM1083.4 165.269C1083.4 162.037 1082.93 159.007 1081.98 156.179C1081.11 153.284 1079.76 150.759 1077.94 148.604C1076.12 146.449 1073.8 144.766 1070.97 143.554C1068.21 142.275 1064.98 141.635 1061.28 141.635C1054.07 141.635 1048.38 143.689 1044.21 147.796C1040.1 151.903 1037.48 157.728 1036.33 165.269H1083.4ZM1035.83 180.318C1036.23 185.637 1037.17 190.25 1038.65 194.155C1040.13 197.993 1042.09 201.191 1044.51 203.75C1046.94 206.241 1049.8 208.127 1053.1 209.406C1056.46 210.618 1060.17 211.224 1064.21 211.224C1068.25 211.224 1071.71 210.753 1074.61 209.81C1077.57 208.867 1080.13 207.824 1082.29 206.679C1084.51 205.534 1086.43 204.491 1088.04 203.548C1089.73 202.605 1091.34 202.134 1092.89 202.134C1094.98 202.134 1096.53 202.908 1097.54 204.457L1104.71 213.547C1101.95 216.779 1098.85 219.506 1095.42 221.728C1091.98 223.883 1088.38 225.633 1084.61 226.98C1080.91 228.259 1077.1 229.168 1073.2 229.707C1069.36 230.246 1065.62 230.515 1061.98 230.515C1054.78 230.515 1048.08 229.337 1041.89 226.98C1035.69 224.556 1030.3 221.021 1025.73 216.375C1021.15 211.662 1017.54 205.871 1014.92 199.003C1012.29 192.068 1010.98 184.055 1010.98 174.965C1010.98 167.895 1012.12 161.263 1014.41 155.068C1016.7 148.806 1019.97 143.386 1024.21 138.807C1028.52 134.161 1033.74 130.491 1039.87 127.798C1046.06 125.105 1053.03 123.758 1060.77 123.758C1067.3 123.758 1073.33 124.802 1078.85 126.889C1084.37 128.976 1089.12 132.04 1093.09 136.08C1097.07 140.053 1100.16 144.968 1102.38 150.826C1104.67 156.617 1105.82 163.249 1105.82 170.723C1105.82 174.494 1105.41 177.052 1104.61 178.399C1103.8 179.678 1102.25 180.318 1099.96 180.318H1035.83ZM1158.3 230.616C1149.27 230.616 1142.34 228.091 1137.49 223.041C1132.71 217.924 1130.32 210.887 1130.32 201.932V144.059H1119.71C1118.37 144.059 1117.22 143.621 1116.28 142.746C1115.34 141.871 1114.87 140.558 1114.87 138.807V128.909L1131.53 126.182L1136.78 97.902C1137.12 96.5553 1137.76 95.5117 1138.7 94.771C1139.64 94.0303 1140.86 93.66 1142.34 93.66H1155.27V126.283H1198.39L1203.75 97.902C1204.08 96.5553 1204.69 95.5117 1205.56 94.771C1206.51 94.0303 1207.75 93.66 1209.3 93.66H1222.13V126.283H1249.8V144.059H1222.13V200.215C1222.13 203.447 1222.94 205.972 1224.55 207.79C1226.17 209.608 1228.36 210.517 1231.12 210.517C1232.6 210.517 1233.88 210.349 1234.95 210.012C1236.03 209.608 1236.94 209.204 1237.68 208.8C1238.49 208.396 1239.2 208.026 1239.8 207.689C1240.41 207.285 1241.01 207.083 1241.62 207.083C1242.36 207.083 1242.97 207.285 1243.44 207.689C1243.91 208.026 1244.41 208.564 1244.95 209.305L1252.43 221.425C1248.79 224.455 1244.62 226.744 1239.9 228.293C1235.19 229.842 1230.31 230.616 1225.26 230.616C1216.24 230.616 1209.3 228.091 1204.45 223.041C1199.6 217.924 1197.18 210.887 1197.18 201.932V144.059H1155.27V200.215C1155.27 203.447 1156.04 205.972 1157.59 207.79C1159.2 209.608 1161.39 210.517 1164.15 210.517C1165.7 210.517 1166.98 210.349 1167.99 210.012C1169.07 209.608 1169.98 209.204 1170.72 208.8C1171.53 208.396 1172.23 208.026 1172.84 207.689C1173.45 207.285 1174.05 207.083 1174.66 207.083C1175.4 207.083 1176 207.285 1176.48 207.689C1176.95 208.026 1177.45 208.564 1177.99 209.305L1185.46 221.425C1181.83 224.455 1177.65 226.744 1172.94 228.293C1168.23 229.842 1163.35 230.616 1158.3 230.616ZM1331.96 165.269C1331.96 162.037 1331.49 159.007 1330.54 156.179C1329.67 153.284 1328.32 150.759 1326.5 148.604C1324.68 146.449 1322.36 144.766 1319.53 143.554C1316.77 142.275 1313.54 141.635 1309.84 141.635C1302.63 141.635 1296.94 143.689 1292.77 147.796C1288.66 151.903 1286.04 157.728 1284.89 165.269H1331.96ZM1284.39 180.318C1284.79 185.637 1285.73 190.25 1287.21 194.155C1288.7 197.993 1290.65 201.191 1293.07 203.75C1295.5 206.241 1298.36 208.127 1301.66 209.406C1305.02 210.618 1308.73 211.224 1312.77 211.224C1316.81 211.224 1320.27 210.753 1323.17 209.81C1326.13 208.867 1328.69 207.824 1330.85 206.679C1333.07 205.534 1334.99 204.491 1336.6 203.548C1338.29 202.605 1339.9 202.134 1341.45 202.134C1343.54 202.134 1345.09 202.908 1346.1 204.457L1353.27 213.547C1350.51 216.779 1347.41 219.506 1343.98 221.728C1340.54 223.883 1336.94 225.633 1333.17 226.98C1329.47 228.259 1325.66 229.168 1321.76 229.707C1317.92 230.246 1314.18 230.515 1310.54 230.515C1303.34 230.515 1296.64 229.337 1290.45 226.98C1284.25 224.556 1278.86 221.021 1274.29 216.375C1269.71 211.662 1266.1 205.871 1263.48 199.003C1260.85 192.068 1259.54 184.055 1259.54 174.965C1259.54 167.895 1260.68 161.263 1262.97 155.068C1265.26 148.806 1268.53 143.386 1272.77 138.807C1277.08 134.161 1282.3 130.491 1288.43 127.798C1294.62 125.105 1301.59 123.758 1309.33 123.758C1315.86 123.758 1321.89 124.802 1327.41 126.889C1332.93 128.976 1337.68 132.04 1341.65 136.08C1345.63 140.053 1348.72 144.968 1350.94 150.826C1353.23 156.617 1354.38 163.249 1354.38 170.723C1354.38 174.494 1353.97 177.052 1353.17 178.399C1352.36 179.678 1350.81 180.318 1348.52 180.318H1284.39Z" fill="#001B36"/>
</svg>
