<svg width="233" height="41" viewBox="0 0 233 41" fill="none" xmlns="http://www.w3.org/2000/svg">
<rect x="205" y="21" width="14" height="14" fill="#D4424C"/>
<rect x="219" y="7" width="14" height="14" fill="#3B4B99"/>
<path d="M12.085 12.6494C9.78027 12.6494 7.96875 13.4209 6.65039 14.9639C5.33203 16.5068 4.67285 18.6162 4.67285 21.292C4.67285 24.0557 5.3125 26.1895 6.5918 27.6934C7.87109 29.1875 9.69238 29.9346 12.0557 29.9346C13.5791 29.9346 15.293 29.6514 17.1973 29.085V31.4287C16.2891 31.7607 15.415 31.9854 14.5752 32.1025C13.7354 32.2295 12.7686 32.293 11.6748 32.293C8.52051 32.293 6.08887 31.3359 4.37988 29.4219C2.68066 27.498 1.83105 24.7783 1.83105 21.2627C1.83105 19.0557 2.23633 17.1221 3.04688 15.4619C3.86719 13.8018 5.05371 12.5225 6.60645 11.624C8.16895 10.7256 10.0049 10.2764 12.1143 10.2764C14.3799 10.2764 16.3525 10.6963 18.0322 11.5361L16.9482 13.8213C15.2393 13.04 13.6182 12.6494 12.085 12.6494ZM32.4609 32V21.7168C32.4609 20.4082 32.168 19.4365 31.582 18.8018C31.0059 18.1572 30.0977 17.835 28.8574 17.835C27.2266 17.835 26.0303 18.2891 25.2686 19.1973C24.5166 20.1055 24.1406 21.6045 24.1406 23.6943V32H21.5039V9.20703H24.1406V15.8867C24.1406 16.7656 24.0918 17.5176 23.9941 18.1426H24.1699C24.6484 17.3613 25.3271 16.751 26.2061 16.3115C27.085 15.8721 28.0762 15.6523 29.1797 15.6523C31.1328 15.6523 32.6025 16.1211 33.5889 17.0586C34.5752 17.9863 35.0684 19.4756 35.0684 21.5264V32H32.4609ZM46.8896 32.293C44.4775 32.293 42.583 31.5654 41.2061 30.1104C39.8389 28.6455 39.1553 26.6338 39.1553 24.0752C39.1553 21.4971 39.7949 19.4463 41.0742 17.9229C42.3535 16.3896 44.082 15.623 46.2598 15.623C48.2812 15.623 49.8926 16.2773 51.0938 17.5859C52.2949 18.8848 52.8955 20.6475 52.8955 22.874V24.4707H41.8799C41.9287 26.2969 42.3926 27.6836 43.2715 28.6309C44.1504 29.5781 45.3955 30.0518 47.0068 30.0518C47.8662 30.0518 48.6816 29.9785 49.4531 29.832C50.2246 29.6758 51.1279 29.3779 52.1631 28.9385V31.2529C51.2744 31.6338 50.4395 31.9023 49.6582 32.0586C48.877 32.2148 47.9541 32.293 46.8896 32.293ZM46.2305 17.7764C44.9707 17.7764 43.9746 18.1816 43.2422 18.9922C42.5098 19.8027 42.0752 20.9307 41.9385 22.376H50.127C50.1074 20.8721 49.7607 19.7295 49.0869 18.9482C48.4131 18.167 47.4609 17.7764 46.2305 17.7764ZM67.4561 27.5615C67.4561 29.0654 66.8945 30.2324 65.7715 31.0625C64.6484 31.8828 63.0713 32.293 61.04 32.293C58.9209 32.293 57.2363 31.9561 55.9863 31.2822V28.8799C57.7539 29.7393 59.458 30.1689 61.0986 30.1689C62.4268 30.1689 63.3936 29.9541 63.999 29.5244C64.6045 29.0947 64.9072 28.5186 64.9072 27.7959C64.9072 27.1611 64.6143 26.624 64.0283 26.1846C63.4521 25.7451 62.4219 25.2422 60.9375 24.6758C59.4238 24.0898 58.3594 23.5918 57.7441 23.1816C57.1289 22.7617 56.6748 22.293 56.3818 21.7754C56.0986 21.2578 55.957 20.6279 55.957 19.8857C55.957 18.5674 56.4941 17.5273 57.5684 16.7656C58.6426 16.0039 60.1172 15.623 61.9922 15.623C63.8184 15.623 65.5273 15.9844 67.1191 16.707L66.2256 18.8018C64.5947 18.1182 63.125 17.7764 61.8164 17.7764C60.7227 17.7764 59.8926 17.9521 59.3262 18.3037C58.7598 18.6455 58.4766 19.1191 58.4766 19.7246C58.4766 20.3105 58.7207 20.7988 59.209 21.1895C59.6973 21.5703 60.835 22.1025 62.6221 22.7861C63.96 23.2842 64.9463 23.748 65.5811 24.1777C66.2256 24.6074 66.6992 25.0908 67.002 25.6279C67.3047 26.165 67.4561 26.8096 67.4561 27.5615ZM81.8408 27.5615C81.8408 29.0654 81.2793 30.2324 80.1562 31.0625C79.0332 31.8828 77.4561 32.293 75.4248 32.293C73.3057 32.293 71.6211 31.9561 70.3711 31.2822V28.8799C72.1387 29.7393 73.8428 30.1689 75.4834 30.1689C76.8115 30.1689 77.7783 29.9541 78.3838 29.5244C78.9893 29.0947 79.292 28.5186 79.292 27.7959C79.292 27.1611 78.999 26.624 78.4131 26.1846C77.8369 25.7451 76.8066 25.2422 75.3223 24.6758C73.8086 24.0898 72.7441 23.5918 72.1289 23.1816C71.5137 22.7617 71.0596 22.293 70.7666 21.7754C70.4834 21.2578 70.3418 20.6279 70.3418 19.8857C70.3418 18.5674 70.8789 17.5273 71.9531 16.7656C73.0273 16.0039 74.502 15.623 76.377 15.623C78.2031 15.623 79.9121 15.9844 81.5039 16.707L80.6104 18.8018C78.9795 18.1182 77.5098 17.7764 76.2012 17.7764C75.1074 17.7764 74.2773 17.9521 73.7109 18.3037C73.1445 18.6455 72.8613 19.1191 72.8613 19.7246C72.8613 20.3105 73.1055 20.7988 73.5938 21.1895C74.082 21.5703 75.2197 22.1025 77.0068 22.7861C78.3447 23.2842 79.3311 23.748 79.9658 24.1777C80.6104 24.6074 81.084 25.0908 81.3867 25.6279C81.6895 26.165 81.8408 26.8096 81.8408 27.5615ZM93.252 15.623C93.9648 15.623 94.5947 15.6816 95.1416 15.7988L94.8193 18.2305C94.2236 18.0938 93.6426 18.0254 93.0762 18.0254C92.2266 18.0254 91.4355 18.2598 90.7031 18.7285C89.9805 19.1973 89.4141 19.8467 89.0039 20.6768C88.5938 21.4971 88.3887 22.4102 88.3887 23.416V32H85.752V15.916H87.9199L88.2129 18.8604H88.3301C88.9453 17.7959 89.6729 16.9902 90.5127 16.4434C91.3525 15.8965 92.2656 15.623 93.252 15.623ZM111.826 23.9287C111.826 26.5557 111.162 28.6064 109.834 30.0811C108.506 31.5557 106.67 32.293 104.326 32.293C102.871 32.293 101.582 31.9561 100.459 31.2822C99.3359 30.5986 98.4717 29.6221 97.8662 28.3525C97.2607 27.083 96.958 25.6084 96.958 23.9287C96.958 21.3115 97.6123 19.2754 98.9209 17.8203C100.229 16.3555 102.065 15.623 104.429 15.623C106.694 15.623 108.491 16.3701 109.819 17.8643C111.157 19.3486 111.826 21.3701 111.826 23.9287ZM99.6826 23.9287C99.6826 25.9502 100.078 27.4883 100.869 28.543C101.67 29.5879 102.847 30.1104 104.399 30.1104C105.933 30.1104 107.1 29.5879 107.9 28.543C108.701 27.4883 109.102 25.9502 109.102 23.9287C109.102 21.9072 108.696 20.3887 107.886 19.373C107.085 18.3477 105.908 17.835 104.355 17.835C101.24 17.835 99.6826 19.8662 99.6826 23.9287ZM118.506 15.916V26.2725C118.506 27.5713 118.794 28.5381 119.37 29.1729C119.956 29.7979 120.859 30.1104 122.08 30.1104C123.73 30.1104 124.932 29.6514 125.684 28.7334C126.436 27.8154 126.812 26.3359 126.812 24.2949V15.916H129.463V32H127.295L126.914 29.876H126.782C126.304 30.6475 125.625 31.2432 124.746 31.6631C123.867 32.083 122.847 32.293 121.685 32.293C119.751 32.293 118.291 31.8291 117.305 30.9014C116.328 29.9736 115.84 28.4893 115.84 26.4482V15.916H118.506ZM137.197 32H134.561V9.20703H137.197V32ZM149.136 32.293C146.724 32.293 144.829 31.5654 143.452 30.1104C142.085 28.6455 141.401 26.6338 141.401 24.0752C141.401 21.4971 142.041 19.4463 143.32 17.9229C144.6 16.3896 146.328 15.623 148.506 15.623C150.527 15.623 152.139 16.2773 153.34 17.5859C154.541 18.8848 155.142 20.6475 155.142 22.874V24.4707H144.126C144.175 26.2969 144.639 27.6836 145.518 28.6309C146.396 29.5781 147.642 30.0518 149.253 30.0518C150.112 30.0518 150.928 29.9785 151.699 29.832C152.471 29.6758 153.374 29.3779 154.409 28.9385V31.2529C153.521 31.6338 152.686 31.9023 151.904 32.0586C151.123 32.2148 150.2 32.293 149.136 32.293ZM148.477 17.7764C147.217 17.7764 146.221 18.1816 145.488 18.9922C144.756 19.8027 144.321 20.9307 144.185 22.376H152.373C152.354 20.8721 152.007 19.7295 151.333 18.9482C150.659 18.167 149.707 17.7764 148.477 17.7764ZM164.604 30.1396C164.946 30.1396 165.347 30.1055 165.806 30.0371C166.265 29.9688 166.611 29.8906 166.846 29.8027V31.8242C166.602 31.9316 166.221 32.0342 165.703 32.1318C165.195 32.2393 164.678 32.293 164.15 32.293C161.006 32.293 159.434 30.6377 159.434 27.3271V17.9668H157.163V16.707L159.463 15.6523L160.518 12.2246H162.085V15.916H166.729V17.9668H162.085V27.2539C162.085 28.1816 162.305 28.8945 162.744 29.3926C163.193 29.8906 163.813 30.1396 164.604 30.1396ZM175.444 30.1396C175.786 30.1396 176.187 30.1055 176.646 30.0371C177.104 29.9688 177.451 29.8906 177.686 29.8027V31.8242C177.441 31.9316 177.061 32.0342 176.543 32.1318C176.035 32.2393 175.518 32.293 174.99 32.293C171.846 32.293 170.273 30.6377 170.273 27.3271V17.9668H168.003V16.707L170.303 15.6523L171.357 12.2246H172.925V15.916H177.568V17.9668H172.925V27.2539C172.925 28.1816 173.145 28.8945 173.584 29.3926C174.033 29.8906 174.653 30.1396 175.444 30.1396ZM187.749 32.293C185.337 32.293 183.442 31.5654 182.065 30.1104C180.698 28.6455 180.015 26.6338 180.015 24.0752C180.015 21.4971 180.654 19.4463 181.934 17.9229C183.213 16.3896 184.941 15.623 187.119 15.623C189.141 15.623 190.752 16.2773 191.953 17.5859C193.154 18.8848 193.755 20.6475 193.755 22.874V24.4707H182.739C182.788 26.2969 183.252 27.6836 184.131 28.6309C185.01 29.5781 186.255 30.0518 187.866 30.0518C188.726 30.0518 189.541 29.9785 190.312 29.832C191.084 29.6758 191.987 29.3779 193.022 28.9385V31.2529C192.134 31.6338 191.299 31.9023 190.518 32.0586C189.736 32.2148 188.813 32.293 187.749 32.293ZM187.09 17.7764C185.83 17.7764 184.834 18.1816 184.102 18.9922C183.369 19.8027 182.935 20.9307 182.798 22.376H190.986C190.967 20.8721 190.62 19.7295 189.946 18.9482C189.272 18.167 188.32 17.7764 187.09 17.7764Z" fill="black"/>
</svg>
